<svg width="18" height="30" viewBox="0 0 18 30" fill="none" xmlns="http://www.w3.org/2000/svg"><path d="M17.477 16.289c.471-.777.797-1.95.197-2.714a.847.847 0 00-.148-.183c.344-.461-.108-.852-.565-.933.039-.178.085-.4.12-.663.335-1.877-.372-3.798-1.437-5.35-.56-.855-1.183-1.689-1.983-2.343a5.848 5.848 0 00-1.365-.842 4.477 4.477 0 00-1.006-.356 2.11 2.11 0 00-.11-.027v-.003c.266-.735-.06-1.605-.74-2.089.067.054.13.111.189.173-.06-.055-.122-.109-.189-.173C10.007.37 9.31.634 9.31.634v.008a.676.676 0 00-.8-.634.626.626 0 00-.416.322c.373-.656 1.35-.154 1.14.52a.521.521 0 01-.116.201c-.047.047-.085.073-.085.073-.246.164-.639.124-.907.001C7.314.761 6.336.533 5.482.902c-.745.304-1.07.973-.838 1.594a.77.77 0 00.114.225c.054.087.12.172.199.255a1.498 1.498 0 01-.12-.155c.239.279.597.57.597.57l-.032.02a5.766 5.766 0 00-1.059.694c-.049.04-.095.082-.142.124l-.031.023a4.667 4.667 0 00-.65.646 12.758 12.758 0 00-1.162 1.55 9.495 9.495 0 00-.99 1.837l-.016.032A5.49 5.49 0 00.97 9.58a5.74 5.74 0 00.017 2.522c.066.367.257 1.079.257 1.079H1.2a1.3 1.3 0 00-.662.172c-.375.317-.526.743-.536 1.193v.052c0 .049-.004.097 0 .15.011.28.05.454.164.77a3.697 3.697 0 00.092.244v.004c.214.558.513.976.831 1.29.068.072.14.142.214.21-.646 1.446-.883 3.157-.48 4.678a4.9 4.9 0 00.791 1.56 4.894 4.894 0 01-.753-1.572c-.384-1.508-.14-3.187.503-4.611.401.342.879.585 1.41.642 0 .015.002.029.004.044-.013.057-.012.2.068.55.036.254.082.503.165.747.36 1.08.943 2.09 1.687 2.962l.002.004c.155.704.247 1.389.294 2.04a18.488 18.488 0 00-.15-1.233c.278 2.31.174 4.685-.504 6.923.005-.015.01-.032.017-.047L4.34 30h9.332c-.186-.41-.33-.926-.434-1.495.11.507.251 1.007.434 1.495-.678-2.238-.78-4.612-.504-6.923a17 17 0 00-.12.93c.03-.363.07-.682.12-.93.088-.443.178-.745.284-.985a9.174 9.174 0 001.033-1.582l.002-.004c.28-.457.45-.939.553-1.358.108-.386.143-.787.193-1.185.53-.055 1.007-.3 1.408-.642.644 1.424.887 3.103.503 4.611a4.86 4.86 0 01-.753 1.572c.349-.47.63-.996.792-1.56.403-1.521.167-3.23-.48-4.679.312-.28.575-.62.778-.974l-.004-.002zM2.65 17.935a2.549 2.549 0 01-.62-.222c.26.123.48.188.62.222zm14.174-8.907zM7.557.99a7.294 7.294 0 00-.481-.13c.166.022.324.072.48.13zM.87 11.077c.017.396.061.706.09.882a5.755 5.755 0 01-.09-.882zm12.853 10.525a1.83 1.83 0 01.072-.1l-.072.1z" fill="#F3597B"/></svg>