<svg width="20" height="30" viewBox="0 0 20 30" fill="none" xmlns="http://www.w3.org/2000/svg"><path d="M14.029 3.097c-.139.335-.09.706 0 1.049-.168-.317-.216-.745 0-1.05zM8.136 16.953c.038.267-.042.968-.351 1.038-.03.036-.068.07-.115.07l-.035.03c-.035.05-.076.099-.137.11h-.002a1.277 1.277 0 01-.208.31c-.046.034-.092-.024-.1-.065-.038-.158.075-.299.145-.423.119-.21.132-.439.175-.67a.575.575 0 00-.05-.332.734.734 0 00-.03.097.552.552 0 01.03-.103s-.028.04-.045.168l.016-.065c-.029.14-.02.288-.048.43-.017.1-.033.202-.064.302-.015.053-.073.184-.136.108-.044-.083-.03-.182-.036-.272-.018-.153.049-.306.04-.46-.004-.203-.034-.408-.033-.615a1.457 1.457 0 01.11-.609c.084-.187.025-.398-.01-.593-.14-.7-.361-1.702-.507-2.412-.083-.402-.172-.802-.241-1.21-.015-.413-.012-.823-.01-1.235.01-.376.007-.756.059-1.13l.003-.05a.593.593 0 01-.113.114c-.023.295-.046.592-.071.887l.02.035-.025.014a53.04 53.04 0 01-.037.427c-.015.458-.198.93-.076 1.383.176.432.337.875.448 1.33.129.69.39 1.364.348 2.075a14.218 14.218 0 01-.29 2.088c-.168.68-.346 1.36-.465 2.052-.04.23-.084.46-.101.693.01-.138.026-.276.044-.413a2.889 2.889 0 00-.049.413l.018.32c.049.56.128 1.264.136 1.785.086 1.65-.579 3.203-.923 4.79a3.992 3.992 0 00-.07.971 4.172 4.172 0 01-.003-.574l-.005.054c-.013.162-.005.565-.005.663 0 .043.046.141.108.253a5.193 5.193 0 01-.103-.235c.126.209.295.509.438.701.082.11.173.213.269.31.06.056.194.213.068.275a.113.113 0 01-.078-.011.08.08 0 01-.006.027c-.04.077-.132.05-.186.006.022.096-.12.121-.183.05a.097.097 0 01-.032.046c-.097.05-.19-.01-.26-.066.043.01.084.019.125.024.18.026.12-.065.054-.15a.176.176 0 01-.027-.028c.006.007.013.02.005.04-.012.028-.093-.03-.131 0-.038.03-.013.122-.031.098a1.781 1.781 0 00-.186-.13l.018.027a.217.217 0 00-.02-.027l-.007-.005c-.014.054-.029.014-.071-.01a.252.252 0 00-.216 0c-.085.039-.085-.04-.093-.138-.008-.098-.043-.586-.063-.747a25.307 25.307 0 01-.07-.612c-.003.175 0 .35.018.526.015.303.056.6.072.903-.011.154.056.31.229.323.123.014.251-.044.245-.143.015.168-.345.212-.44.04-.045-.065-.045-.146-.048-.22-.02-.3-.066-.6-.086-.902-.064-.603.026-1.208.084-1.808.069-.6-.004-1.202-.008-1.807-.018-.603-.001-1.21.024-1.811l.038-.905c.01-.152.04-.3.022-.447a11.838 11.838 0 01-.125-1.352c-.058-1.43-.014-2.86.041-4.29l.005-.226c-.076 0-.16-.01-.16-.01a.452.452 0 01-.072.006.255.255 0 01-.052 0h-.03c.059 1.505.11 3.014.05 4.521a11.59 11.59 0 01-.126 1.352c-.018.147.013.295.022.447l.038.905c.025.603.043 1.208.024 1.811-.003.605-.076 1.207-.008 1.807.059.6.148 1.205.084 1.809-.02.3-.065.6-.086.9-.004.075-.004.157-.048.221-.092.171-.456.128-.44-.041-.005.098.12.159.246.143a.242.242 0 00.185-.109c.042-.062.04-.14.043-.215.016-.303.058-.6.072-.903.019-.19.021-.378.017-.567-.02.216-.058.538-.073.654-.02.161-.055.65-.063.747-.008.098-.008.177-.093.138a.252.252 0 00-.216 0c-.042.024-.057.063-.071.011a.305.305 0 01-.001 0s-.176.11-.194.134c-.019.024.007-.068-.031-.098s-.12.028-.131 0a.038.038 0 01.003-.038c-.069.089-.166.204.034.177.041-.006.081-.017.125-.025-.073.056-.163.116-.26.066a.103.103 0 01-.033-.046c-.063.073-.204.046-.183-.05a.167.167 0 01-.106.044c-.046.002-.08-.036-.086-.077a.113.113 0 01-.079.011c-.126-.062.007-.219.068-.274.097-.098.187-.201.269-.31.141-.191.311-.49.436-.698.003-.008.003-.015.003-.02l.002-.37a5.004 5.004 0 01-.012.228 3.936 3.936 0 00-.069-.972c-.343-1.587-1.009-3.14-.923-4.79.008-.466.073-1.085.12-1.61.016-.227.025-.414.03-.495a1.606 1.606 0 00-.022-.237c.009.08.016.158.023.237-.018-.233-.061-.463-.101-.693-.12-.692-.298-1.37-.466-2.052a14.35 14.35 0 01-.29-2.087c-.041-.712.22-1.386.348-2.075.111-.456.273-.899.448-1.33.122-.454-.061-.926-.076-1.384l-.037-.426-.028-.015.024-.044-.024-.281a14.02 14.02 0 01-.05-.601c-.318-.259-.33-.746-.203-1.214.003-.052.007-.132.008-.23-.005-.123-.006-.247-.01-.37a5.012 5.012 0 00-.062-.553c-.19-.88-.65-1.65-1.055-2.446-.107-.237-.312-.562-.44-.793C.519 3.09-.05 2.283.005 1.35v.119a.396.396 0 01.055-.202l.011-.013-.015.015a.36.36 0 01.168-.123c.46-.163.989-.037 1.462 0 .478.051 1.154.12 1.635.177.139-.285.364-.54.617-.68-.009-.013-.026-.041-.04-.06-.076-.068-.1-.137-.094-.198 0-.007 0-.014.002-.02.035-.15.264-.252.446-.2.125.018.243.129.327.059C4.64.169 4.575.049 4.49.063a.104.104 0 00-.073.046.104.104 0 01.13-.059L4.545.048l.01.005a1.564 1.564 0 01.305.166l.01.008.004.003.003.004c.095.089.12.217.085.32.356.077.687.404.869.784.113-.05.304.025.272.17 0-.003-.002-.004-.004-.005 0 .004.004.007.005.012h.002a.4.4 0 01.106.011c.09.013.235.103.188.204.15.019.28.075.315.213l.08.011c.094.014.237.031.241.157.01.06-.044.127-.106.125a3.658 3.658 0 00-.966-.031.147.147 0 01.067.03c.04.032.046.106.003.136.194.152.075.491-.125.675.11.256.147.55.071.818a.81.81 0 01-.146.268c.203-.312.172-.717.03-1.048a.38.38 0 01-.208.084l-.011.091c-.038.259-.166.49-.337.682a1.405 1.405 0 00-.033.163l.008-.046c-.048.719.025 1.563.667 2.007l.045.009-.034-.01.121.028.101.023c.097.021.192.042.288.06.044.006.103.014.167.03.029.004.059.01.087.013.407.087.636.516.662.905.046.39.077.782.103 1.174.084 1.004-.005 2.01-.026 3.014.01.115.044.268.079.411.134.455.27.915.295 1.39l.016.519c.013.61.03 1.473.024 2.076l-.013-.235c.003.132.01.279.026.409.081.353.152.72.242 1.07l.003.002zM3.172 29.676H3.09c-.039 0-.06-.005-.069-.014-.02.04-.025.079.015.108a.124.124 0 00.074-.003c0-.02.004-.04.021-.056l.04-.036v.001zm.164.042c-.01.005-.019.009-.025.004-.02-.011-.023-.07-.098-.052-.037.05-.087.11-.016.123.05-.004.096-.037.139-.075zm.17.046l-.01.002c-.063 0-.006-.041-.096-.041h-.03a.309.309 0 01-.057.071c.035.065.097.045.167.047a.102.102 0 01.027-.08zm.296-1.256c-.022.055-.046.109-.07.163a.871.871 0 00.07-.163zm2.177 1.17c.032.025.06.053.06.091a.13.13 0 00.073.003c.043-.03.037-.072.014-.111-.008.012-.029.018-.072.017h-.075zm-.16.045c.04.036.084.067.132.07.072-.01.022-.07-.015-.12-.08-.022-.083.039-.104.05a.014.014 0 01-.015 0h.001zm-.176.042c.019.024.03.052.025.08.07-.004.132.017.166-.048l-.016-.017a.427.427 0 01-.039-.054l-.035-.002c-.09 0-.034.042-.096.042h-.005v-.001zm.905-20.301c-.017.17-.025.344-.027.516.006-.15.02-.373.027-.516zM3.297 3.05a.517.517 0 00.191.115s-.091-.046-.189-.118l-.002.003zm2.505 2.921l-.037-.03.037.03zm.048-2.92l-.028-.06-.031-.058-.045.119a.418.418 0 01.011-.177 5.497 5.497 0 01-.048-.084c-.018.125-.034.25-.05.374a.536.536 0 00.192-.115zM3.614.978l.22-.217a1.631 1.631 0 00-.22.217zm-.747 3.597c.227.122.453.278.607.487.095-.074.23-.064.338-.016.049-.314.07-.627.052-.945l-.013-.141a1.34 1.34 0 01-.351-.7l-.012-.09a.384.384 0 01-.207-.085c-.143.331-.174.736.03 1.048a.83.83 0 01-.146-.268 1.234 1.234 0 01.07-.818c-.214-.198-.338-.578-.074-.708a.232.232 0 01.063-.01c-.003-.032-.01-.119-.016-.152a.857.857 0 01-.035-.192c-.584.021-1.19.099-1.774.069a1.69 1.69 0 00-.199.018c.415.373.68.88.976 1.345.201.335.456.786.691 1.158zm1.546 11.48l.002.091-.002-.09zm.074 0h-.006.006zm3 1.024zm12.39-15.195c-.098.269-1.223 3.167-1.492 4.013-.267.846-.453 1.435-.575 1.696-.09.197-.173.356-.241.614a50.388 50.388 0 00-.366 2.26c-.035.258-.056.518-.09.775-.03.257-.083.517-.038.77.199.752.46 1.49.613 2.256.148.768.183 1.559.11 2.336-.081.56-.197 1.113-.316 1.666-.031.155-.061.298-.091.422l-.045.21c-.072.343-.196.809-.265 1.208a5.487 5.487 0 00-.04.588c.08 1.374.234 2.82-.076 4.17-.157.693-.393 1.364-.579 2.046-.177.684-.232 1.397-.24 2.103l-.001-.167c-.003.146-.003.25 0 .286.013.13.152.227.302.29a2.13 2.13 0 01-.117-.079c.126.055.25.119.385.145.055.005.128.014.168.067.108.175-.23.187-.327.22-.106.035-.204.098-.318.075a.135.135 0 01-.047.048c-.184.117-.521.154-.672-.033-.085-.143-.066-.315-.06-.473.07-1.27.149-2.543.13-3.814-.046-1.113-.111-2.232.06-3.338.04-.33-.093-1.084-.117-1.42-.086-.548-.04-1.687-.018-2.447l.006-.29c0-.044.002-.086.003-.126l.025-.909.014-.494.014-.505v.031c0-.04 0-.07.002-.085a.972.972 0 01-.136-.156.126.126 0 01-.077.026.133.133 0 01-.072-.024 1.05 1.05 0 01-.133.152l.012.433-.004-.377.053 1.908c.005.693.093 2.202-.01 2.865-.026.341-.158 1.092-.118 1.419.171 1.106.106 2.226.06 3.338-.018 1.272.06 2.545.13 3.814.006.158.024.33-.06.473-.15.188-.488.148-.672.033a.144.144 0 01-.047-.048c-.115.023-.212-.04-.318-.074-.097-.033-.435-.047-.327-.22.039-.055.114-.064.169-.067.134-.027.257-.09.384-.146a1.512 1.512 0 01-.1.07c.142-.063.27-.157.28-.28a9.32 9.32 0 00-.03-.925 7.477 7.477 0 00-.205-1.297c-.186-.682-.422-1.352-.578-2.046-.302-1.313-.165-2.721-.084-4.06a5.338 5.338 0 00-.05-.791c-.07-.376-.18-.797-.248-1.116l-.014-.068c-.054-.2-.115-.49-.173-.807a22.91 22.91 0 01-.265-1.421 8.263 8.263 0 01.11-2.337c.153-.766.414-1.503.613-2.256.045-.253-.008-.512-.037-.77-.031-.233-.052-.467-.08-.699a39.253 39.253 0 00-.14-.962l-.006.257c.017.672.034 1.342.014 2.014-.043.266-.105.523-.158.786-.16.776-.49 2.326-.66 3.11.011.01.016.024.022.036.04.176.04.37.014.562.08.294.066.606.097.906a1.5 1.5 0 01.016.482c-.006.03-.012.107-.043.125.054.082.078.195.032.28v.003c.007.02-.043.06-.075.083.008.036.01.071-.012.105a.09.09 0 01-.016.01c.029.056.02.133-.038.17-.244.05-.53-.552-.582-.755-.033-.194-.132-.37-.184-.56-.032-.204.021-.402.061-.598.045-.259.093-.517.145-.776-.022.183-.046.365-.071.547.053-.32.103-.678.105-.913a89.359 89.359 0 01-.02-1.799c-.025-.692.213-1.352.393-2.01-.05.248-.114.497-.173.745.105-.392.225-.867.213-1.05a12.492 12.492 0 01-.008-.52 8.566 8.566 0 01-.03.62c.028-1.028-.062-2.059.008-3.088l.039-.77c.02-.258.008-.525.105-.77a.793.793 0 01.237-.31c.053-.048.109-.09.166-.132.103-.081.205-.137.29-.171a1.37 1.37 0 01.592-.134 1.624 1.624 0 00-.406.077c.228-.054.473-.077.473-.077.04-.035.138-.113.177-.145.523-.497.627-1.264.546-1.955-.244-.127-.35-.437-.355-.7v.003l-.01-.059c-.013-.015-.023-.031-.034-.047l-.018-.001h.004a.28.28 0 01-.16-.038.367.367 0 01-.154-.186c-.042-.12-.121-.236-.11-.365a.895.895 0 01-.033-.118c-.094-.024-.167-.068-.14-.163a.13.13 0 01.086-.066c-.256-.022-.512-.054-.767-.013l-.188.023c-.085.013-.15-.083-.117-.161.02-.075.106-.1.17-.108l.14-.023c.032-.13.157-.19.314-.213a.104.104 0 01.012-.102c.064-.09.181-.113.287-.115v-.013l.002-.01c0-.003.003-.008.007-.016a.207.207 0 01.142-.148.833.833 0 00.23-.052c.066-.025.136-.044.207-.06.017-.036.037-.077.056-.113a.83.83 0 01.3-.359l.012-.007c.062-.04.13-.07.202-.084a4.01 4.01 0 01.068-.026.322.322 0 01.01-.268c.001-.005.002-.01.005-.013a.678.678 0 01.142-.19s.169-.145.237-.15c.07-.026.158.02.158.101a.104.104 0 00-.17-.063c-.05.043-.056.145-.007.182.05.038.13.004.201-.022.167-.061.463-.163.574.04a.324.324 0 01-.016.248.212.212 0 01-.05.057v.001s.05.054.1.104a.975.975 0 01.48.451l.021.032c.383-.015.765-.028 1.146-.048l1.088-.054c.32-.022.658-.054.963.06a.41.41 0 01.175.092c.203.205.098.428 0 .697l-.006-.001zm-7.398 7.1c-.01.31-.017.618-.017.914l.007.341c0-.385.004-.827.01-1.256zm.254-2.33a.633.633 0 00-.101.176l-.013.039c.032-.08.07-.151.114-.216v.001zm.874 13.155a6.474 6.474 0 00-.133-.634c.044.201.092.42.133.634zm4.123-3.055l.024-.153.004-.062-.028.217v-.002zm-.633 3.212c.052-.291.123-.604.179-.874a6.482 6.482 0 00-.18.874zm-2.599 9.888a.185.185 0 01-.02-.05l-.004-.002s-.04-.028-.121-.063c-.08-.033-.089-.06-.177-.068a2.893 2.893 0 01-.285-.06.026.026 0 00.006.025c.096.071.272.067.378.142a.48.48 0 00.225.076h-.002zm.695-1.39c.017.424.05 1.083.059 1.232.012-.098.003-.201-.003-.298l-.056-.935zm-.43 1.42a.657.657 0 01-.277-.076c.008.037.037.064.066.086.18.11.505.142.648-.036a.414.414 0 00.044-.115c-.098.18-.328.145-.48.14h-.001zm.715-.226c.008-.15.026-.52.041-.862l-.037.6c-.004.085-.011.175-.005.26v.002zm.777.141a.144.144 0 01-.02.054.476.476 0 00.224-.077c.105-.075.28-.07.377-.142a.04.04 0 00.006-.026 2.443 2.443 0 01-.29.062c-.089.008-.097.034-.177.068-.075.032-.114.057-.12.06v.002zm-.29.085c-.15.003-.37.035-.472-.127a.434.434 0 00.04.101c.144.18.469.143.648.036a.139.139 0 00.065-.089.653.653 0 01-.281.079zm.42-24.501l-.115.073.01.018a.973.973 0 01.105-.091zm1.178 2.844a3.33 3.33 0 00-.06.283l-.021.13.081-.414v.001zm1.32-6.374s-.192.009-.435.017a7.65 7.65 0 01-1.054.02c-.211-.006-.423-.034-.635-.058 0 .017.004.033.004.052.002.133.005.273 0 .415v.056c.042-.006.07.016.087.047a.08.08 0 01.013.028c.016.048.018.11.02.149a.626.626 0 01-.198.487c.24.31.203.763-.012 1.078.137-.348.175-.73.007-1.076a.453.453 0 01-.218.107.021.021 0 00-.005.006l-.026.02a.574.574 0 01-.035.083v.003l.012-.023c-.063.245-.052.652-.341.737-.048.487-.02 1.018.204 1.45.207-.148.424-.285.638-.42.219-.171.35-.425.52-.643.459-.584.87-1.205 1.13-1.906l.012-.025c.114-.275.22-.51.315-.608l-.002.004zm.58-.801z" fill="#F3597B"/></svg>