<svg width="18" height="22" viewBox="0 0 18 22" fill="none" xmlns="http://www.w3.org/2000/svg"><path d="M17.28 18.292c.394-2.038.767-4.577.715-6.717v-.012a14.93 14.93 0 00-.033-.698c-.09-1.39-.477-2.73-.815-4.071l-.123-.614-.016-.065a31.383 31.383 0 00-.54-2.227l-.017-.067s-.006-.021-.02-.059A31.396 31.396 0 0015.097 0c.32.823.624 1.654.898 2.493-.261-.752-.597-1.7-.898-2.493H2.9c-.3.793-.637 1.741-.898 2.495A47.54 47.54 0 012.9 0a31.385 31.385 0 00-1.334 3.762l-.019.059-.016.067a31.354 31.354 0 00-.54 2.227l-.016.065-.123.614C.515 8.136.13 9.477.038 10.867a14.83 14.83 0 00-.033.712c-.052 2.14.32 4.68.716 6.717.056.324.116.645.18.969.185.91.409 1.812.66 2.708l.008.027c3.866-.119 6.97-4.117 6.97-4.117a50.56 50.56 0 00-.1-3.965c.137.017.274.02.406-.006l.156-.013.156.013c.132.027.271.022.406.006a51.588 51.588 0 00-.1 3.965s3.103 3.998 6.97 4.117l.008-.027a37.88 37.88 0 00.66-2.708c.064-.322.122-.645.18-.969l-.002-.004zm.416-8.752l-.184-.925c.068.307.133.616.184.925zm-8.11 4.324h-.002.002zM.488 8.614l-.184.926c.051-.31.116-.618.184-.925z" fill="#F3597B"/></svg>