<svg width="80" height="80" viewBox="0 0 80 80" fill="none" xmlns="http://www.w3.org/2000/svg">
<mask id="mask0_375_12282" style="mask-type:luminance" maskUnits="userSpaceOnUse" x="0" y="0" width="80" height="80">
<path d="M2.75862 24.8276H0V27.5863H2.75862V24.8276Z" fill="white"/>
<path d="M2.75862 27.5862H0V30.3448H2.75862V27.5862Z" fill="white"/>
<path d="M2.75862 33.1034H0V35.862H2.75862V33.1034Z" fill="white"/>
<path d="M2.75862 38.6207H0V41.3793H2.75862V38.6207Z" fill="white"/>
<path d="M2.75862 46.8966H0V49.6552H2.75862V46.8966Z" fill="white"/>
<path d="M2.75862 49.6552H0V52.4138H2.75862V49.6552Z" fill="white"/>
<path d="M2.75862 52.4138H0V55.1724H2.75862V52.4138Z" fill="white"/>
<path d="M2.75862 55.1724H0V57.931H2.75862V55.1724Z" fill="white"/>
<path d="M5.51729 22.069H2.75867V24.8276H5.51729V22.069Z" fill="white"/>
<path d="M5.51729 24.8276H2.75867V27.5863H5.51729V24.8276Z" fill="white"/>
<path d="M5.51729 27.5862H2.75867V30.3448H5.51729V27.5862Z" fill="white"/>
<path d="M5.51729 30.3448H2.75867V33.1035H5.51729V30.3448Z" fill="white"/>
<path d="M5.51729 35.8621H2.75867V38.6207H5.51729V35.8621Z" fill="white"/>
<path d="M5.51729 38.6207H2.75867V41.3793H5.51729V38.6207Z" fill="white"/>
<path d="M5.51729 41.3793H2.75867V44.1379H5.51729V41.3793Z" fill="white"/>
<path d="M5.51729 44.1379H2.75867V46.8966H5.51729V44.1379Z" fill="white"/>
<path d="M5.51729 46.8966H2.75867V49.6552H5.51729V46.8966Z" fill="white"/>
<path d="M5.51729 52.4138H2.75867V55.1724H5.51729V52.4138Z" fill="white"/>
<path d="M8.27583 24.8276H5.51721V27.5863H8.27583V24.8276Z" fill="white"/>
<path d="M8.27583 38.6207H5.51721V41.3793H8.27583V38.6207Z" fill="white"/>
<path d="M8.27583 41.3793H5.51721V44.1379H8.27583V41.3793Z" fill="white"/>
<path d="M8.27583 55.1724H5.51721V57.931H8.27583V55.1724Z" fill="white"/>
<path d="M11.0345 22.069H8.27588V24.8276H11.0345V22.069Z" fill="white"/>
<path d="M11.0345 24.8276H8.27588V27.5863H11.0345V24.8276Z" fill="white"/>
<path d="M11.0345 27.5862H8.27588V30.3448H11.0345V27.5862Z" fill="white"/>
<path d="M11.0345 30.3448H8.27588V33.1035H11.0345V30.3448Z" fill="white"/>
<path d="M11.0345 46.8966H8.27588V49.6552H11.0345V46.8966Z" fill="white"/>
<path d="M11.0345 49.6552H8.27588V52.4138H11.0345V49.6552Z" fill="white"/>
<path d="M11.0345 52.4138H8.27588V55.1724H11.0345V52.4138Z" fill="white"/>
<path d="M13.793 22.069H11.0344V24.8276H13.793V22.069Z" fill="white"/>
<path d="M13.793 24.8276H11.0344V27.5863H13.793V24.8276Z" fill="white"/>
<path d="M13.793 38.6207H11.0344V41.3793H13.793V38.6207Z" fill="white"/>
<path d="M13.793 41.3793H11.0344V44.1379H13.793V41.3793Z" fill="white"/>
<path d="M13.793 49.6552H11.0344V52.4138H13.793V49.6552Z" fill="white"/>
<path d="M13.793 52.4138H11.0344V55.1724H13.793V52.4138Z" fill="white"/>
<path d="M16.5517 24.8276H13.7931V27.5863H16.5517V24.8276Z" fill="white"/>
<path d="M16.5517 30.3448H13.7931V33.1035H16.5517V30.3448Z" fill="white"/>
<path d="M16.5517 44.1379H13.7931V46.8966H16.5517V44.1379Z" fill="white"/>
<path d="M16.5517 55.1724H13.7931V57.931H16.5517V55.1724Z" fill="white"/>
<path d="M19.3104 22.069H16.5518V24.8276H19.3104V22.069Z" fill="white"/>
<path d="M19.3104 27.5862H16.5518V30.3448H19.3104V27.5862Z" fill="white"/>
<path d="M19.3104 33.1034H16.5518V35.862H19.3104V33.1034Z" fill="white"/>
<path d="M19.3104 38.6207H16.5518V41.3793H19.3104V38.6207Z" fill="white"/>
<path d="M19.3104 44.1379H16.5518V46.8966H19.3104V44.1379Z" fill="white"/>
<path d="M19.3104 49.6552H16.5518V52.4138H19.3104V49.6552Z" fill="white"/>
<path d="M19.3104 55.1724H16.5518V57.931H19.3104V55.1724Z" fill="white"/>
<path d="M22.0689 22.069H19.3103V24.8276H22.0689V22.069Z" fill="white"/>
<path d="M22.0689 24.8276H19.3103V27.5863H22.0689V24.8276Z" fill="white"/>
<path d="M22.0689 33.1034H19.3103V35.862H22.0689V33.1034Z" fill="white"/>
<path d="M22.0689 35.8621H19.3103V38.6207H22.0689V35.8621Z" fill="white"/>
<path d="M22.0689 41.3793H19.3103V44.1379H22.0689V41.3793Z" fill="white"/>
<path d="M22.0689 46.8966H19.3103V49.6552H22.0689V46.8966Z" fill="white"/>
<path d="M22.0689 49.6552H19.3103V52.4138H22.0689V49.6552Z" fill="white"/>
<path d="M24.8276 2.75867H22.069V5.51729H24.8276V2.75867Z" fill="white"/>
<path d="M24.8276 8.27588H22.069V11.0345H24.8276V8.27588Z" fill="white"/>
<path d="M24.8276 11.0344H22.069V13.793H24.8276V11.0344Z" fill="white"/>
<path d="M24.8276 13.7931H22.069V16.5517H24.8276V13.7931Z" fill="white"/>
<path d="M24.8276 16.5518H22.069V19.3104H24.8276V16.5518Z" fill="white"/>
<path d="M24.8276 22.069H22.069V24.8276H24.8276V22.069Z" fill="white"/>
<path d="M24.8276 24.8276H22.069V27.5863H24.8276V24.8276Z" fill="white"/>
<path d="M24.8276 27.5862H22.069V30.3448H24.8276V27.5862Z" fill="white"/>
<path d="M24.8276 30.3448H22.069V33.1035H24.8276V30.3448Z" fill="white"/>
<path d="M24.8276 33.1034H22.069V35.862H24.8276V33.1034Z" fill="white"/>
<path d="M24.8276 35.8621H22.069V38.6207H24.8276V35.8621Z" fill="white"/>
<path d="M24.8276 38.6207H22.069V41.3793H24.8276V38.6207Z" fill="white"/>
<path d="M24.8276 41.3793H22.069V44.1379H24.8276V41.3793Z" fill="white"/>
<path d="M24.8276 44.1379H22.069V46.8966H24.8276V44.1379Z" fill="white"/>
<path d="M24.8276 52.4138H22.069V55.1724H24.8276V52.4138Z" fill="white"/>
<path d="M24.8276 57.931H22.069V60.6897H24.8276V57.931Z" fill="white"/>
<path d="M24.8276 60.6897H22.069V63.4483H24.8276V60.6897Z" fill="white"/>
<path d="M24.8276 66.2069H22.069V68.9655H24.8276V66.2069Z" fill="white"/>
<path d="M24.8276 68.9656H22.069V71.7242H24.8276V68.9656Z" fill="white"/>
<path d="M24.8276 74.4828H22.069V77.2414H24.8276V74.4828Z" fill="white"/>
<path d="M27.5863 0H24.8276V2.75862H27.5863V0Z" fill="white"/>
<path d="M27.5863 8.27588H24.8276V11.0345H27.5863V8.27588Z" fill="white"/>
<path d="M27.5863 11.0344H24.8276V13.793H27.5863V11.0344Z" fill="white"/>
<path d="M27.5863 19.3103H24.8276V22.0689H27.5863V19.3103Z" fill="white"/>
<path d="M27.5863 22.069H24.8276V24.8276H27.5863V22.069Z" fill="white"/>
<path d="M27.5863 27.5862H24.8276V30.3448H27.5863V27.5862Z" fill="white"/>
<path d="M27.5863 35.8621H24.8276V38.6207H27.5863V35.8621Z" fill="white"/>
<path d="M27.5863 41.3793H24.8276V44.1379H27.5863V41.3793Z" fill="white"/>
<path d="M27.5863 46.8966H24.8276V49.6552H27.5863V46.8966Z" fill="white"/>
<path d="M27.5863 49.6552H24.8276V52.4138H27.5863V49.6552Z" fill="white"/>
<path d="M27.5863 52.4138H24.8276V55.1724H27.5863V52.4138Z" fill="white"/>
<path d="M27.5863 55.1724H24.8276V57.931H27.5863V55.1724Z" fill="white"/>
<path d="M27.5863 66.2069H24.8276V68.9655H27.5863V66.2069Z" fill="white"/>
<path d="M27.5863 71.7241H24.8276V74.4827H27.5863V71.7241Z" fill="white"/>
<path d="M27.5863 74.4828H24.8276V77.2414H27.5863V74.4828Z" fill="white"/>
<path d="M30.3448 0H27.5862V2.75862H30.3448V0Z" fill="white"/>
<path d="M30.3448 2.75867H27.5862V5.51729H30.3448V2.75867Z" fill="white"/>
<path d="M30.3448 5.51721H27.5862V8.27583H30.3448V5.51721Z" fill="white"/>
<path d="M30.3448 8.27588H27.5862V11.0345H30.3448V8.27588Z" fill="white"/>
<path d="M30.3448 16.5518H27.5862V19.3104H30.3448V16.5518Z" fill="white"/>
<path d="M30.3448 24.8276H27.5862V27.5863H30.3448V24.8276Z" fill="white"/>
<path d="M30.3448 33.1034H27.5862V35.862H30.3448V33.1034Z" fill="white"/>
<path d="M30.3448 35.8621H27.5862V38.6207H30.3448V35.8621Z" fill="white"/>
<path d="M30.3448 44.1379H27.5862V46.8966H30.3448V44.1379Z" fill="white"/>
<path d="M30.3448 57.931H27.5862V60.6897H30.3448V57.931Z" fill="white"/>
<path d="M30.3448 60.6897H27.5862V63.4483H30.3448V60.6897Z" fill="white"/>
<path d="M33.1035 2.75867H30.3448V5.51729H33.1035V2.75867Z" fill="white"/>
<path d="M33.1035 5.51721H30.3448V8.27583H33.1035V5.51721Z" fill="white"/>
<path d="M33.1035 8.27588H30.3448V11.0345H33.1035V8.27588Z" fill="white"/>
<path d="M33.1035 13.7931H30.3448V16.5517H33.1035V13.7931Z" fill="white"/>
<path d="M33.1035 22.069H30.3448V24.8276H33.1035V22.069Z" fill="white"/>
<path d="M33.1035 24.8276H30.3448V27.5863H33.1035V24.8276Z" fill="white"/>
<path d="M33.1035 27.5862H30.3448V30.3448H33.1035V27.5862Z" fill="white"/>
<path d="M33.1035 30.3448H30.3448V33.1035H33.1035V30.3448Z" fill="white"/>
<path d="M33.1035 33.1034H30.3448V35.862H33.1035V33.1034Z" fill="white"/>
<path d="M33.1035 38.6207H30.3448V41.3793H33.1035V38.6207Z" fill="white"/>
<path d="M33.1035 41.3793H30.3448V44.1379H33.1035V41.3793Z" fill="white"/>
<path d="M33.1035 46.8966H30.3448V49.6552H33.1035V46.8966Z" fill="white"/>
<path d="M33.1035 49.6552H30.3448V52.4138H33.1035V49.6552Z" fill="white"/>
<path d="M33.1035 55.1724H30.3448V57.931H33.1035V55.1724Z" fill="white"/>
<path d="M33.1035 63.4482H30.3448V66.2069H33.1035V63.4482Z" fill="white"/>
<path d="M33.1035 66.2069H30.3448V68.9655H33.1035V66.2069Z" fill="white"/>
<path d="M33.1035 68.9656H30.3448V71.7242H33.1035V68.9656Z" fill="white"/>
<path d="M33.1035 77.2413H30.3448V80H33.1035V77.2413Z" fill="white"/>
<path d="M35.862 0H33.1034V2.75862H35.862V0Z" fill="white"/>
<path d="M35.862 2.75867H33.1034V5.51729H35.862V2.75867Z" fill="white"/>
<path d="M35.862 8.27588H33.1034V11.0345H35.862V8.27588Z" fill="white"/>
<path d="M35.862 16.5518H33.1034V19.3104H35.862V16.5518Z" fill="white"/>
<path d="M35.862 22.069H33.1034V24.8276H35.862V22.069Z" fill="white"/>
<path d="M35.862 27.5862H33.1034V30.3448H35.862V27.5862Z" fill="white"/>
<path d="M35.862 44.1379H33.1034V46.8966H35.862V44.1379Z" fill="white"/>
<path d="M35.862 57.931H33.1034V60.6897H35.862V57.931Z" fill="white"/>
<path d="M35.862 60.6897H33.1034V63.4483H35.862V60.6897Z" fill="white"/>
<path d="M35.862 68.9656H33.1034V71.7242H35.862V68.9656Z" fill="white"/>
<path d="M35.862 74.4828H33.1034V77.2414H35.862V74.4828Z" fill="white"/>
<path d="M38.6207 0H35.8621V2.75862H38.6207V0Z" fill="white"/>
<path d="M38.6207 8.27588H35.8621V11.0345H38.6207V8.27588Z" fill="white"/>
<path d="M38.6207 11.0344H35.8621V13.793H38.6207V11.0344Z" fill="white"/>
<path d="M38.6207 19.3103H35.8621V22.0689H38.6207V19.3103Z" fill="white"/>
<path d="M38.6207 22.069H35.8621V24.8276H38.6207V22.069Z" fill="white"/>
<path d="M38.6207 30.3448H35.8621V33.1035H38.6207V30.3448Z" fill="white"/>
<path d="M38.6207 33.1034H35.8621V35.862H38.6207V33.1034Z" fill="white"/>
<path d="M38.6207 35.8621H35.8621V38.6207H38.6207V35.8621Z" fill="white"/>
<path d="M38.6207 38.6207H35.8621V41.3793H38.6207V38.6207Z" fill="white"/>
<path d="M38.6207 41.3793H35.8621V44.1379H38.6207V41.3793Z" fill="white"/>
<path d="M38.6207 44.1379H35.8621V46.8966H38.6207V44.1379Z" fill="white"/>
<path d="M38.6207 49.6552H35.8621V52.4138H38.6207V49.6552Z" fill="white"/>
<path d="M38.6207 60.6897H35.8621V63.4483H38.6207V60.6897Z" fill="white"/>
<path d="M38.6207 66.2069H35.8621V68.9655H38.6207V66.2069Z" fill="white"/>
<path d="M38.6207 71.7241H35.8621V74.4827H38.6207V71.7241Z" fill="white"/>
<path d="M38.6207 77.2413H35.8621V80H38.6207V77.2413Z" fill="white"/>
<path d="M41.3793 5.51721H38.6207V8.27583H41.3793V5.51721Z" fill="white"/>
<path d="M41.3793 11.0344H38.6207V13.793H41.3793V11.0344Z" fill="white"/>
<path d="M41.3793 16.5518H38.6207V19.3104H41.3793V16.5518Z" fill="white"/>
<path d="M41.3793 22.069H38.6207V24.8276H41.3793V22.069Z" fill="white"/>
<path d="M41.3793 44.1379H38.6207V46.8966H41.3793V44.1379Z" fill="white"/>
<path d="M41.3793 49.6552H38.6207V52.4138H41.3793V49.6552Z" fill="white"/>
<path d="M41.3793 52.4138H38.6207V55.1724H41.3793V52.4138Z" fill="white"/>
<path d="M41.3793 55.1724H38.6207V57.931H41.3793V55.1724Z" fill="white"/>
<path d="M41.3793 63.4482H38.6207V66.2069H41.3793V63.4482Z" fill="white"/>
<path d="M41.3793 68.9656H38.6207V71.7242H41.3793V68.9656Z" fill="white"/>
<path d="M41.3793 77.2413H38.6207V80H41.3793V77.2413Z" fill="white"/>
<path d="M44.1379 2.75867H41.3793V5.51729H44.1379V2.75867Z" fill="white"/>
<path d="M44.1379 5.51721H41.3793V8.27583H44.1379V5.51721Z" fill="white"/>
<path d="M44.1379 11.0344H41.3793V13.793H44.1379V11.0344Z" fill="white"/>
<path d="M44.1379 22.069H41.3793V24.8276H44.1379V22.069Z" fill="white"/>
<path d="M44.1379 27.5862H41.3793V30.3448H44.1379V27.5862Z" fill="white"/>
<path d="M44.1379 38.6207H41.3793V41.3793H44.1379V38.6207Z" fill="white"/>
<path d="M44.1379 41.3793H41.3793V44.1379H44.1379V41.3793Z" fill="white"/>
<path d="M44.1379 44.1379H41.3793V46.8966H44.1379V44.1379Z" fill="white"/>
<path d="M44.1379 52.4138H41.3793V55.1724H44.1379V52.4138Z" fill="white"/>
<path d="M44.1379 66.2069H41.3793V68.9655H44.1379V66.2069Z" fill="white"/>
<path d="M44.1379 68.9656H41.3793V71.7242H44.1379V68.9656Z" fill="white"/>
<path d="M44.1379 71.7241H41.3793V74.4827H44.1379V71.7241Z" fill="white"/>
<path d="M44.1379 74.4828H41.3793V77.2414H44.1379V74.4828Z" fill="white"/>
<path d="M44.1379 77.2413H41.3793V80H44.1379V77.2413Z" fill="white"/>
<path d="M46.8966 2.75867H44.1379V5.51729H46.8966V2.75867Z" fill="white"/>
<path d="M46.8966 5.51721H44.1379V8.27583H46.8966V5.51721Z" fill="white"/>
<path d="M46.8966 11.0344H44.1379V13.793H46.8966V11.0344Z" fill="white"/>
<path d="M46.8966 16.5518H44.1379V19.3104H46.8966V16.5518Z" fill="white"/>
<path d="M46.8966 19.3103H44.1379V22.0689H46.8966V19.3103Z" fill="white"/>
<path d="M46.8966 24.8276H44.1379V27.5863H46.8966V24.8276Z" fill="white"/>
<path d="M46.8966 30.3448H44.1379V33.1035H46.8966V30.3448Z" fill="white"/>
<path d="M46.8966 33.1034H44.1379V35.862H46.8966V33.1034Z" fill="white"/>
<path d="M46.8966 35.8621H44.1379V38.6207H46.8966V35.8621Z" fill="white"/>
<path d="M46.8966 38.6207H44.1379V41.3793H46.8966V38.6207Z" fill="white"/>
<path d="M46.8966 41.3793H44.1379V44.1379H46.8966V41.3793Z" fill="white"/>
<path d="M46.8966 46.8966H44.1379V49.6552H46.8966V46.8966Z" fill="white"/>
<path d="M46.8966 49.6552H44.1379V52.4138H46.8966V49.6552Z" fill="white"/>
<path d="M46.8966 55.1724H44.1379V57.931H46.8966V55.1724Z" fill="white"/>
<path d="M46.8966 68.9656H44.1379V71.7242H46.8966V68.9656Z" fill="white"/>
<path d="M46.8966 74.4828H44.1379V77.2414H46.8966V74.4828Z" fill="white"/>
<path d="M49.6552 0H46.8966V2.75862H49.6552V0Z" fill="white"/>
<path d="M49.6552 11.0344H46.8966V13.793H49.6552V11.0344Z" fill="white"/>
<path d="M49.6552 13.7931H46.8966V16.5517H49.6552V13.7931Z" fill="white"/>
<path d="M49.6552 22.069H46.8966V24.8276H49.6552V22.069Z" fill="white"/>
<path d="M49.6552 30.3448H46.8966V33.1035H49.6552V30.3448Z" fill="white"/>
<path d="M49.6552 38.6207H46.8966V41.3793H49.6552V38.6207Z" fill="white"/>
<path d="M49.6552 46.8966H46.8966V49.6552H49.6552V46.8966Z" fill="white"/>
<path d="M49.6552 52.4138H46.8966V55.1724H49.6552V52.4138Z" fill="white"/>
<path d="M49.6552 55.1724H46.8966V57.931H49.6552V55.1724Z" fill="white"/>
<path d="M49.6552 66.2069H46.8966V68.9655H49.6552V66.2069Z" fill="white"/>
<path d="M49.6552 68.9656H46.8966V71.7242H49.6552V68.9656Z" fill="white"/>
<path d="M49.6552 71.7241H46.8966V74.4827H49.6552V71.7241Z" fill="white"/>
<path d="M52.4138 0H49.6552V2.75862H52.4138V0Z" fill="white"/>
<path d="M52.4138 2.75867H49.6552V5.51729H52.4138V2.75867Z" fill="white"/>
<path d="M52.4138 13.7931H49.6552V16.5517H52.4138V13.7931Z" fill="white"/>
<path d="M52.4138 16.5518H49.6552V19.3104H52.4138V16.5518Z" fill="white"/>
<path d="M52.4138 19.3103H49.6552V22.0689H52.4138V19.3103Z" fill="white"/>
<path d="M52.4138 22.069H49.6552V24.8276H52.4138V22.069Z" fill="white"/>
<path d="M52.4138 24.8276H49.6552V27.5863H52.4138V24.8276Z" fill="white"/>
<path d="M52.4138 27.5862H49.6552V30.3448H52.4138V27.5862Z" fill="white"/>
<path d="M52.4138 30.3448H49.6552V33.1035H52.4138V30.3448Z" fill="white"/>
<path d="M52.4138 44.1379H49.6552V46.8966H52.4138V44.1379Z" fill="white"/>
<path d="M52.4138 52.4138H49.6552V55.1724H52.4138V52.4138Z" fill="white"/>
<path d="M52.4138 68.9656H49.6552V71.7242H52.4138V68.9656Z" fill="white"/>
<path d="M52.4138 71.7241H49.6552V74.4827H52.4138V71.7241Z" fill="white"/>
<path d="M52.4138 77.2413H49.6552V80H52.4138V77.2413Z" fill="white"/>
<path d="M55.1724 0H52.4138V2.75862H55.1724V0Z" fill="white"/>
<path d="M55.1724 2.75867H52.4138V5.51729H55.1724V2.75867Z" fill="white"/>
<path d="M55.1724 8.27588H52.4138V11.0345H55.1724V8.27588Z" fill="white"/>
<path d="M55.1724 13.7931H52.4138V16.5517H55.1724V13.7931Z" fill="white"/>
<path d="M55.1724 19.3103H52.4138V22.0689H55.1724V19.3103Z" fill="white"/>
<path d="M55.1724 24.8276H52.4138V27.5863H55.1724V24.8276Z" fill="white"/>
<path d="M55.1724 27.5862H52.4138V30.3448H55.1724V27.5862Z" fill="white"/>
<path d="M55.1724 33.1034H52.4138V35.862H55.1724V33.1034Z" fill="white"/>
<path d="M55.1724 35.8621H52.4138V38.6207H55.1724V35.8621Z" fill="white"/>
<path d="M55.1724 38.6207H52.4138V41.3793H55.1724V38.6207Z" fill="white"/>
<path d="M55.1724 41.3793H52.4138V44.1379H55.1724V41.3793Z" fill="white"/>
<path d="M55.1724 44.1379H52.4138V46.8966H55.1724V44.1379Z" fill="white"/>
<path d="M55.1724 57.931H52.4138V60.6897H55.1724V57.931Z" fill="white"/>
<path d="M55.1724 60.6897H52.4138V63.4483H55.1724V60.6897Z" fill="white"/>
<path d="M55.1724 66.2069H52.4138V68.9655H55.1724V66.2069Z" fill="white"/>
<path d="M55.1724 71.7241H52.4138V74.4827H55.1724V71.7241Z" fill="white"/>
<path d="M55.1724 74.4828H52.4138V77.2414H55.1724V74.4828Z" fill="white"/>
<path d="M55.1724 77.2413H52.4138V80H55.1724V77.2413Z" fill="white"/>
<path d="M57.931 0H55.1724V2.75862H57.931V0Z" fill="white"/>
<path d="M57.931 2.75867H55.1724V5.51729H57.931V2.75867Z" fill="white"/>
<path d="M57.931 5.51721H55.1724V8.27583H57.931V5.51721Z" fill="white"/>
<path d="M57.931 8.27588H55.1724V11.0345H57.931V8.27588Z" fill="white"/>
<path d="M57.931 11.0344H55.1724V13.793H57.931V11.0344Z" fill="white"/>
<path d="M57.931 16.5518H55.1724V19.3104H57.931V16.5518Z" fill="white"/>
<path d="M57.931 19.3103H55.1724V22.0689H57.931V19.3103Z" fill="white"/>
<path d="M57.931 22.069H55.1724V24.8276H57.931V22.069Z" fill="white"/>
<path d="M57.931 24.8276H55.1724V27.5863H57.931V24.8276Z" fill="white"/>
<path d="M57.931 38.6207H55.1724V41.3793H57.931V38.6207Z" fill="white"/>
<path d="M57.931 46.8966H55.1724V49.6552H57.931V46.8966Z" fill="white"/>
<path d="M57.931 55.1724H55.1724V57.931H57.931V55.1724Z" fill="white"/>
<path d="M57.931 57.931H55.1724V60.6897H57.931V57.931Z" fill="white"/>
<path d="M57.931 60.6897H55.1724V63.4483H57.931V60.6897Z" fill="white"/>
<path d="M57.931 63.4482H55.1724V66.2069H57.931V63.4482Z" fill="white"/>
<path d="M57.931 66.2069H55.1724V68.9655H57.931V66.2069Z" fill="white"/>
<path d="M57.931 68.9656H55.1724V71.7242H57.931V68.9656Z" fill="white"/>
<path d="M57.931 71.7241H55.1724V74.4827H57.931V71.7241Z" fill="white"/>
<path d="M57.931 74.4828H55.1724V77.2414H57.931V74.4828Z" fill="white"/>
<path d="M60.6897 22.069H57.931V24.8276H60.6897V22.069Z" fill="white"/>
<path d="M60.6897 27.5862H57.931V30.3448H60.6897V27.5862Z" fill="white"/>
<path d="M60.6897 35.8621H57.931V38.6207H60.6897V35.8621Z" fill="white"/>
<path d="M60.6897 38.6207H57.931V41.3793H60.6897V38.6207Z" fill="white"/>
<path d="M60.6897 41.3793H57.931V44.1379H60.6897V41.3793Z" fill="white"/>
<path d="M60.6897 46.8966H57.931V49.6552H60.6897V46.8966Z" fill="white"/>
<path d="M60.6897 49.6552H57.931V52.4138H60.6897V49.6552Z" fill="white"/>
<path d="M60.6897 52.4138H57.931V55.1724H60.6897V52.4138Z" fill="white"/>
<path d="M60.6897 55.1724H57.931V57.931H60.6897V55.1724Z" fill="white"/>
<path d="M60.6897 66.2069H57.931V68.9655H60.6897V66.2069Z" fill="white"/>
<path d="M60.6897 68.9656H57.931V71.7242H60.6897V68.9656Z" fill="white"/>
<path d="M60.6897 71.7241H57.931V74.4827H60.6897V71.7241Z" fill="white"/>
<path d="M63.4483 24.8276H60.6897V27.5863H63.4483V24.8276Z" fill="white"/>
<path d="M63.4483 35.8621H60.6897V38.6207H63.4483V35.8621Z" fill="white"/>
<path d="M63.4483 38.6207H60.6897V41.3793H63.4483V38.6207Z" fill="white"/>
<path d="M63.4483 41.3793H60.6897V44.1379H63.4483V41.3793Z" fill="white"/>
<path d="M63.4483 52.4138H60.6897V55.1724H63.4483V52.4138Z" fill="white"/>
<path d="M63.4483 55.1724H60.6897V57.931H63.4483V55.1724Z" fill="white"/>
<path d="M63.4483 60.6897H60.6897V63.4483H63.4483V60.6897Z" fill="white"/>
<path d="M63.4483 66.2069H60.6897V68.9655H63.4483V66.2069Z" fill="white"/>
<path d="M63.4483 71.7241H60.6897V74.4827H63.4483V71.7241Z" fill="white"/>
<path d="M66.2069 22.069H63.4482V24.8276H66.2069V22.069Z" fill="white"/>
<path d="M66.2069 24.8276H63.4482V27.5863H66.2069V24.8276Z" fill="white"/>
<path d="M66.2069 30.3448H63.4482V33.1035H66.2069V30.3448Z" fill="white"/>
<path d="M66.2069 33.1034H63.4482V35.862H66.2069V33.1034Z" fill="white"/>
<path d="M66.2069 38.6207H63.4482V41.3793H66.2069V38.6207Z" fill="white"/>
<path d="M66.2069 41.3793H63.4482V44.1379H66.2069V41.3793Z" fill="white"/>
<path d="M66.2069 49.6552H63.4482V52.4138H66.2069V49.6552Z" fill="white"/>
<path d="M66.2069 52.4138H63.4482V55.1724H66.2069V52.4138Z" fill="white"/>
<path d="M66.2069 55.1724H63.4482V57.931H66.2069V55.1724Z" fill="white"/>
<path d="M66.2069 66.2069H63.4482V68.9655H66.2069V66.2069Z" fill="white"/>
<path d="M66.2069 68.9656H63.4482V71.7242H66.2069V68.9656Z" fill="white"/>
<path d="M68.9655 22.069H66.2069V24.8276H68.9655V22.069Z" fill="white"/>
<path d="M68.9655 24.8276H66.2069V27.5863H68.9655V24.8276Z" fill="white"/>
<path d="M68.9655 27.5862H66.2069V30.3448H68.9655V27.5862Z" fill="white"/>
<path d="M68.9655 30.3448H66.2069V33.1035H68.9655V30.3448Z" fill="white"/>
<path d="M68.9655 46.8966H66.2069V49.6552H68.9655V46.8966Z" fill="white"/>
<path d="M68.9655 52.4138H66.2069V55.1724H68.9655V52.4138Z" fill="white"/>
<path d="M68.9655 55.1724H66.2069V57.931H68.9655V55.1724Z" fill="white"/>
<path d="M68.9655 57.931H66.2069V60.6897H68.9655V57.931Z" fill="white"/>
<path d="M68.9655 60.6897H66.2069V63.4483H68.9655V60.6897Z" fill="white"/>
<path d="M68.9655 63.4482H66.2069V66.2069H68.9655V63.4482Z" fill="white"/>
<path d="M68.9655 66.2069H66.2069V68.9655H68.9655V66.2069Z" fill="white"/>
<path d="M68.9655 74.4828H66.2069V77.2414H68.9655V74.4828Z" fill="white"/>
<path d="M71.7242 22.069H68.9656V24.8276H71.7242V22.069Z" fill="white"/>
<path d="M71.7242 24.8276H68.9656V27.5863H71.7242V24.8276Z" fill="white"/>
<path d="M71.7242 27.5862H68.9656V30.3448H71.7242V27.5862Z" fill="white"/>
<path d="M71.7242 33.1034H68.9656V35.862H71.7242V33.1034Z" fill="white"/>
<path d="M71.7242 46.8966H68.9656V49.6552H71.7242V46.8966Z" fill="white"/>
<path d="M71.7242 49.6552H68.9656V52.4138H71.7242V49.6552Z" fill="white"/>
<path d="M71.7242 63.4482H68.9656V66.2069H71.7242V63.4482Z" fill="white"/>
<path d="M71.7242 68.9656H68.9656V71.7242H71.7242V68.9656Z" fill="white"/>
<path d="M71.7242 74.4828H68.9656V77.2414H71.7242V74.4828Z" fill="white"/>
<path d="M74.4827 24.8276H71.7241V27.5863H74.4827V24.8276Z" fill="white"/>
<path d="M74.4827 27.5862H71.7241V30.3448H74.4827V27.5862Z" fill="white"/>
<path d="M74.4827 30.3448H71.7241V33.1035H74.4827V30.3448Z" fill="white"/>
<path d="M74.4827 33.1034H71.7241V35.862H74.4827V33.1034Z" fill="white"/>
<path d="M74.4827 38.6207H71.7241V41.3793H74.4827V38.6207Z" fill="white"/>
<path d="M74.4827 41.3793H71.7241V44.1379H74.4827V41.3793Z" fill="white"/>
<path d="M74.4827 49.6552H71.7241V52.4138H74.4827V49.6552Z" fill="white"/>
<path d="M74.4827 55.1724H71.7241V57.931H74.4827V55.1724Z" fill="white"/>
<path d="M74.4827 57.931H71.7241V60.6897H74.4827V57.931Z" fill="white"/>
<path d="M74.4827 63.4482H71.7241V66.2069H74.4827V63.4482Z" fill="white"/>
<path d="M74.4827 66.2069H71.7241V68.9655H74.4827V66.2069Z" fill="white"/>
<path d="M74.4827 74.4828H71.7241V77.2414H74.4827V74.4828Z" fill="white"/>
<path d="M74.4827 77.2413H71.7241V80H74.4827V77.2413Z" fill="white"/>
<path d="M77.2414 22.069H74.4828V24.8276H77.2414V22.069Z" fill="white"/>
<path d="M77.2414 24.8276H74.4828V27.5863H77.2414V24.8276Z" fill="white"/>
<path d="M77.2414 27.5862H74.4828V30.3448H77.2414V27.5862Z" fill="white"/>
<path d="M77.2414 30.3448H74.4828V33.1035H77.2414V30.3448Z" fill="white"/>
<path d="M77.2414 33.1034H74.4828V35.862H77.2414V33.1034Z" fill="white"/>
<path d="M77.2414 38.6207H74.4828V41.3793H77.2414V38.6207Z" fill="white"/>
<path d="M77.2414 44.1379H74.4828V46.8966H77.2414V44.1379Z" fill="white"/>
<path d="M77.2414 60.6897H74.4828V63.4483H77.2414V60.6897Z" fill="white"/>
<path d="M77.2414 66.2069H74.4828V68.9655H77.2414V66.2069Z" fill="white"/>
<path d="M77.2414 68.9656H74.4828V71.7242H77.2414V68.9656Z" fill="white"/>
<path d="M77.2414 71.7241H74.4828V74.4827H77.2414V71.7241Z" fill="white"/>
<path d="M77.2414 77.2413H74.4828V80H77.2414V77.2413Z" fill="white"/>
<path d="M80 24.8276H77.2413V27.5863H80V24.8276Z" fill="white"/>
<path d="M80 27.5862H77.2413V30.3448H80V27.5862Z" fill="white"/>
<path d="M80 30.3448H77.2413V33.1035H80V30.3448Z" fill="white"/>
<path d="M80 33.1034H77.2413V35.862H80V33.1034Z" fill="white"/>
<path d="M80 35.8621H77.2413V38.6207H80V35.8621Z" fill="white"/>
<path d="M80 38.6207H77.2413V41.3793H80V38.6207Z" fill="white"/>
<path d="M80 41.3793H77.2413V44.1379H80V41.3793Z" fill="white"/>
<path d="M80 52.4138H77.2413V55.1724H80V52.4138Z" fill="white"/>
<path d="M80 55.1724H77.2413V57.931H80V55.1724Z" fill="white"/>
<path d="M80 60.6897H77.2413V63.4483H80V60.6897Z" fill="white"/>
<path d="M80 63.4482H77.2413V66.2069H80V63.4482Z" fill="white"/>
<path d="M80 66.2069H77.2413V68.9655H80V66.2069Z" fill="white"/>
<path d="M80 68.9656H77.2413V71.7242H80V68.9656Z" fill="white"/>
<path fill-rule="evenodd" clip-rule="evenodd" d="M0 0V19.3103H19.3103V0H0ZM2.75862 2.75862H16.5517V16.5517H2.75862V2.75862Z" fill="white"/>
<path d="M13.7931 5.51721H5.51721V13.7931H13.7931V5.51721Z" fill="white"/>
<path fill-rule="evenodd" clip-rule="evenodd" d="M80 0L60.6897 0V19.3103L80 19.3103V0ZM77.2414 2.75862V16.5517L63.4483 16.5517V2.75862L77.2414 2.75862Z" fill="white"/>
<path d="M74.4828 13.7931V5.51721L66.2069 5.51721V13.7931H74.4828Z" fill="white"/>
<path fill-rule="evenodd" clip-rule="evenodd" d="M0 80H19.3103L19.3103 60.6897H0L0 80ZM2.75862 77.2414L2.75862 63.4483H16.5517L16.5517 77.2414H2.75862Z" fill="white"/>
<path d="M5.51721 66.2069L5.51721 74.4828H13.7931V66.2069H5.51721Z" fill="white"/>
</mask>
<g mask="url(#mask0_375_12282)">
<path d="M83.1035 -3.10339H-3.10339V83.1035H83.1035V-3.10339Z" fill="#044E58"/>
</g>
</svg>
