<svg width="80" height="80" viewBox="0 0 80 80" fill="none" xmlns="http://www.w3.org/2000/svg">
<path d="M41.377 2.76068H38.6163V0H41.377V2.76068ZM79.9934 0V11.0361V16.5508V19.3115H60.6819V16.5508V11.0361V0H79.9934ZM77.2327 2.76068H63.4426V11.0361V16.5508H77.2327V11.0361V2.76068ZM35.8623 5.52135V2.76068H33.1016V5.52135H35.8623ZM5.51473 5.51473V11.0361V13.7968H13.7901V11.0361V5.51473H5.51473ZM44.1311 11.0361H46.8917V8.27541H44.1311V11.0361ZM74.4786 11.0361V5.51473H66.2032V11.0361V13.7968H74.4786V11.0361ZM19.3115 19.3115H0V16.5508V11.0361V0H19.3115V2.76068V11.0361V16.5508V19.3115ZM2.76067 16.5508H16.5508V11.0361V2.76068H2.76067V11.0361V16.5508ZM24.8262 16.5508V13.7968H27.5869V11.0361H30.3409V13.7968H35.8557V11.0361H38.6163V8.27541H35.8557V11.0361H30.3409V8.27541V5.52135V2.76068H33.1016V0H30.3409V2.76068H24.8262V5.52135H27.5803V8.27541H24.8262V11.0361V13.7901H22.0655V16.5508V19.3115H24.8262V16.5508ZM2.76067 22.0655H0V24.8262H2.76067V22.0655ZM11.0361 24.8262V22.0655H8.2754V24.8262H11.0361ZM55.1671 22.0655V24.8262H52.4065V22.0722H46.8917V27.5869H44.1311V30.3476H38.6163V33.1016H35.8557V27.5869H30.3409V30.3409H33.095V33.1016H35.8557V35.8623H38.6163V33.1016H44.1311V30.3409H46.8917V33.1016H49.6524V35.8623H46.8917V38.623H41.3704V41.377H35.8557V38.623H33.1016V41.377H30.3409V38.623H24.8196V41.377H22.0655V44.1377H19.3049V41.377H16.5508V44.1377H8.2754V41.377H11.0295V38.623H8.2754V35.8623H11.0295V27.5869H13.7901V30.3409H16.5442V33.1016H13.7901V38.6164H22.0655V33.1016H19.3115V35.8623H16.5508V33.1016H19.3049V30.3476H16.5508V27.5869H19.3115V30.3409H24.8262V24.8262H22.0655V22.0655H27.5803V16.5508H30.3409V19.3115H33.1016V16.5508H35.8623V19.3115H38.6163V22.0722H27.5803V24.8262H27.5869V27.5869H30.3409V24.8262H38.6163V27.5869H41.377V24.8262H44.1311V22.0722H41.377V24.8262H38.6163V22.0655H41.377V19.3115H44.1311V16.5508H41.377V19.3115H38.6163V16.5508H41.377V13.7901H49.6524V11.0361V8.27541H52.4065V5.52135H49.6524V8.27541H46.8917V5.52135H44.1311V8.27541H38.6163V5.51473H44.1311V2.76068H46.8917V0H57.9278V2.76068H52.4065V5.51473H57.9212V8.27541H52.4131V11.0361V13.7901H55.1671V16.5508H57.9278V19.3115H55.1671V16.5508H52.4131V22.0655H55.1671ZM30.3409 35.8623V38.6164H33.1016V35.8623H30.3409ZM27.5803 33.1016H24.8262V35.8623H27.5803V33.1016ZM49.6524 16.5508H52.4065V13.7968H49.6524V16.5508ZM49.6524 19.3115V16.5508H46.8917V19.3115H49.6524ZM66.2032 22.0655H63.4426V24.8262H66.2032V22.0655ZM16.5508 24.8262H19.3049V22.0655H13.7901V27.5869H16.5508V24.8262ZM71.718 24.8262H68.9573V30.3409H63.4426V24.8262H60.6885V22.0655H57.9278V24.8262H55.1671V27.5869H57.9278V30.3409H55.1671V27.5869H52.4065V30.3476H55.1671V33.1016H52.4065V38.6164H46.8917V41.377H41.377V44.1377H52.4131V41.377H52.4065V38.623H55.1671V41.377H60.6819V38.6164V35.8623H63.4426V33.1016H57.9278V30.3476H63.4426V33.1016H68.9573V30.3476H71.718V33.1016H74.4786V35.8623H79.9934V33.1016H77.2327V30.3476V27.5869H71.718V24.8262ZM77.2327 27.5869H79.9934V24.8262H77.2327V27.5869ZM68.9573 35.8623H71.718V33.1016H68.9573V35.8623ZM66.2032 38.623V35.8623H63.4426V38.623H66.2032ZM68.9573 41.377V44.1377H71.718V41.377H74.4786V44.1377H77.2393V41.377H79.9934V38.6164H68.9573V41.377ZM5.51473 41.377H8.26878V38.6164H2.76067V35.8623H5.51473V27.5869H2.75405V30.3409H0V38.623H2.75405V41.377H0V44.1377H5.51473V41.377ZM27.5803 44.1377H30.3409V41.377H27.5803V44.1377ZM63.4426 44.1377V41.377H60.6819V44.1377H63.4426ZM33.1016 44.1377V49.6524H38.6163V55.1738H41.377V57.9278H44.1311V63.4492H46.8917V55.1738H49.6524V49.6524H49.6458V46.8984H49.6524V44.1377H46.8917V46.8918H44.1377V44.1377H41.377V46.8984H44.1311V49.6524H46.8917V55.1672H41.377V49.6524V46.8918H38.6163V44.1377H33.1016ZM55.1671 44.1377H52.4065V46.8984H55.1671V44.1377ZM77.2393 46.8918H79.9934V55.1738H74.4786V57.9278H79.9934V60.6885H77.2393V63.4492H74.4786V66.2032H68.9573V68.9639H77.2327V66.2032H79.9934V68.9639H77.2393V71.718H79.9934V74.4787H77.2393V80H74.4786V74.4787H77.2327V71.7246H74.4786V74.4787H68.9639V77.2393H68.9573V80H60.6819V74.4787H63.4426V77.2393H66.2032V68.9639H63.4426V71.7246H60.6819V68.9639H55.1671V66.2032H49.6524V60.6885H52.4065V55.1672H55.1671V52.4131H57.9278V55.1672H60.6819V49.6524H57.9278V44.1377H60.6885V46.8918H63.4426V44.1377H66.2032V49.6524H66.1966V52.4131H63.4426V55.1672H68.9573V57.9278H68.9639V63.4426H74.4786V60.6885H71.718V55.1672H74.4786V49.6524H77.2327V46.8984H74.4786V44.1377H77.2393V46.8918ZM55.1671 63.4426V60.6885H52.4131V63.4426H55.1671ZM66.2032 66.2032V57.9278H57.9212V60.6885H57.9278V66.2032H66.2032ZM8.2754 46.8984H11.0295V44.1377H2.75405V46.8984H5.51473V55.1738H8.2754V57.9278H13.7901V55.1738H16.5508V52.4131H8.2754V46.8984ZM71.718 46.8918H68.9573V49.6524H71.718V46.8918ZM2.76067 49.6524H0V52.4131H2.76067V49.6524ZM16.5508 49.6524V52.4131H22.0655V46.8984H27.5803V44.1377H22.0655V46.8918H19.3115V44.1377H16.5508V46.8984H19.3049V49.6524H16.5508ZM30.3409 55.1738V52.4131V49.6524H27.5803V52.4131H22.0655V55.1738H30.3409ZM33.1016 55.1672V57.9278H35.8623V52.4131H33.1016V55.1672ZM2.76067 55.1672H0V57.9278H2.76067V55.1672ZM16.5508 57.9278H19.3115V55.1672H16.5508V57.9278ZM22.0655 60.6885H24.8262V57.9278H22.0655V60.6885ZM38.6163 60.6885H41.377V57.9278H38.6163V60.6885ZM19.3115 63.4426V77.2393V80H0V60.6885H19.3115V63.4426ZM16.5508 66.2032V63.4492H2.76067V77.2393H16.5508V66.2032ZM60.6819 63.4492H63.4426V60.6885H60.6819V63.4492ZM22.0655 63.4426V66.2032H24.8262V63.4426H22.0655ZM41.377 63.4426H38.6163V66.2032H41.377V63.4426ZM5.51473 68.9639V74.4787H13.7901V66.2032H5.51473V68.9639ZM35.8557 68.9639H38.6163V71.7246H35.8557V74.4787H35.8623V77.2393H33.1016V74.4787H27.5803V71.7246H22.0655V68.9639H24.8262V66.2032H27.5803V57.9278H30.3409V63.4426H33.1016V60.6885H35.8623V63.4492H35.8557V66.2032V68.9639ZM27.5869 68.9639H30.3409V66.2032H27.5869V68.9639ZM33.1016 68.9639H30.3409V71.718H33.1016V68.9639ZM52.4065 68.9639H55.1671V71.7246H52.4131V74.4787H57.9212V77.2393H57.9278V80H55.1671V77.2393H52.4065V80H46.8917V77.2393H44.1377V80H41.377V77.2393H44.1311V71.718H46.8917V68.9639H44.1311V66.2032H49.6458V68.9639H49.6524V71.718H52.4065V68.9639ZM49.6524 74.4787V71.7246H46.8917V74.4787H49.6524ZM22.0655 80H33.1016V77.2393H22.0655V80Z" fill="#044E58"/>
</svg>
