<svg width="20" height="30" viewBox="0 0 20 30" fill="none" xmlns="http://www.w3.org/2000/svg">
<path d="M14.0289 3.09666C13.89 3.43245 13.9393 3.80286 14.0289 4.14557C13.8613 3.8294 13.813 3.4013 14.0289 3.09666ZM8.13638 16.9529C8.17427 17.2195 8.09389 17.9211 7.78503 17.9914C7.75518 18.0272 7.71728 18.0607 7.67021 18.0618L7.63461 18.0918C7.60017 18.1403 7.55883 18.1899 7.49798 18.2003H7.49568C7.44287 18.3122 7.37397 18.4149 7.28786 18.5107C7.24193 18.5453 7.196 18.4865 7.18797 18.4461C7.15008 18.288 7.2626 18.1472 7.33264 18.0226C7.45205 17.8137 7.46468 17.5841 7.50831 17.3522C7.53242 17.2437 7.50142 17.126 7.45894 17.021C7.44631 17.0522 7.43598 17.0856 7.42794 17.1179C7.43483 17.0833 7.44401 17.0487 7.45779 17.0152C7.45779 17.0152 7.43024 17.0545 7.41301 17.1825C7.41761 17.1606 7.42335 17.1399 7.42909 17.1179C7.40038 17.2576 7.40957 17.4064 7.38086 17.5472C7.36364 17.6487 7.34757 17.7503 7.31657 17.8495C7.30164 17.9026 7.24423 18.0341 7.18108 17.958C7.13745 17.8749 7.15122 17.7757 7.14548 17.6857C7.12711 17.5333 7.19371 17.3799 7.18567 17.2264C7.18108 17.0233 7.15122 16.8179 7.15237 16.6114C7.14893 16.4048 7.17878 16.1925 7.2626 16.0021C7.34642 15.8152 7.28671 15.604 7.25227 15.409C7.11219 14.7085 6.89058 13.7069 6.74476 12.9973C6.66209 12.5946 6.57254 12.1953 6.50364 11.7868C6.48872 11.3737 6.49216 10.9641 6.49331 10.5521C6.50364 10.176 6.50135 9.79631 6.55302 9.42244C6.55416 9.40283 6.55531 9.38552 6.55646 9.37167C6.52431 9.41437 6.48642 9.45245 6.44279 9.48591C6.41983 9.78131 6.39686 10.0779 6.3716 10.3733L6.39227 10.4079C6.39227 10.4079 6.38079 10.4148 6.36701 10.4217C6.35553 10.5637 6.3429 10.7068 6.33027 10.8487C6.31534 11.3068 6.13163 11.7787 6.25449 12.2322C6.43016 12.6638 6.59091 13.1069 6.70228 13.5627C6.83088 14.2527 7.09152 14.9255 7.05018 15.6374C7.0077 16.3402 6.90666 17.036 6.76084 17.7249C6.59205 18.4057 6.41408 19.0842 6.29467 19.7766C6.25449 20.0062 6.21085 20.237 6.19363 20.4701C6.20396 20.3316 6.22004 20.1943 6.23841 20.057C6.20626 20.2543 6.18559 20.4135 6.18904 20.4701C6.19248 20.5289 6.19937 20.6443 6.20741 20.7897C6.25563 21.3505 6.33486 22.0544 6.3429 22.5748C6.42901 24.2249 5.76421 25.7781 5.41975 27.3647C5.3566 27.6832 5.33478 28.0109 5.35086 28.3363C5.33593 28.1448 5.33593 27.9532 5.34741 27.7617C5.34512 27.7836 5.34282 27.8021 5.34167 27.8159C5.32904 27.9775 5.33708 28.3813 5.33708 28.4794C5.33708 28.5221 5.38301 28.6202 5.44501 28.7321C5.40827 28.6537 5.37382 28.5752 5.34167 28.4967C5.46797 28.7056 5.63676 29.0056 5.78028 29.1983C5.8618 29.3079 5.95251 29.4106 6.04896 29.5087C6.10981 29.5641 6.243 29.721 6.1167 29.7833C6.088 29.7903 6.06274 29.7833 6.03862 29.7718C6.03862 29.781 6.03633 29.7903 6.03288 29.7995C5.9927 29.8757 5.90084 29.8491 5.84688 29.8053C5.86869 29.901 5.72746 29.9264 5.66431 29.8549C5.65857 29.871 5.65054 29.886 5.63216 29.901C5.53457 29.9507 5.44271 29.8907 5.37152 29.8353C5.41515 29.8445 5.45649 29.8537 5.49668 29.8595C5.67694 29.8849 5.61609 29.7937 5.55064 29.7095C5.53801 29.6979 5.52883 29.6876 5.52423 29.6806C5.52997 29.6876 5.53686 29.7014 5.52883 29.721C5.51734 29.7487 5.43582 29.691 5.39793 29.721C5.36004 29.751 5.3853 29.8433 5.36693 29.8191C5.35086 29.7983 5.21537 29.7118 5.18092 29.6899C5.18781 29.6991 5.1947 29.7083 5.19929 29.7164C5.19355 29.7072 5.18666 29.6979 5.17863 29.6887C5.17518 29.6864 5.17174 29.6841 5.17174 29.6841C5.15796 29.7383 5.14303 29.6979 5.10055 29.6737C5.05807 29.6495 4.96966 29.6345 4.88469 29.6737C4.79972 29.7129 4.79972 29.6345 4.79169 29.5364C4.78365 29.4383 4.7492 28.9502 4.72854 28.7887C4.71476 28.6802 4.68031 28.3906 4.65964 28.1771C4.6562 28.3525 4.65964 28.5267 4.67687 28.7033C4.69179 29.0056 4.73313 29.3033 4.7492 29.6056C4.73772 29.7603 4.80546 29.916 4.97769 29.9287C5.10055 29.9426 5.22915 29.8849 5.22341 29.7856C5.23833 29.9541 4.8778 29.998 4.78365 29.826C4.73772 29.7614 4.73772 29.6795 4.73542 29.6056C4.71476 29.3056 4.66883 29.0056 4.64931 28.7044C4.58501 28.1009 4.67457 27.4963 4.73313 26.8962C4.80202 26.2962 4.72854 25.6938 4.72509 25.0892C4.70672 24.4857 4.72394 23.8799 4.7492 23.2775L4.78709 22.3729C4.79628 22.2206 4.82728 22.0729 4.80891 21.9263C4.74002 21.4809 4.70098 21.0251 4.68376 20.5739C4.62635 19.1442 4.66998 17.7133 4.72509 16.2836C4.72739 16.1625 4.72968 16.0829 4.72968 16.0575C4.6539 16.0575 4.57008 16.0471 4.57008 16.0471C4.55401 16.0506 4.52875 16.0529 4.49775 16.054C4.47938 16.0552 4.46215 16.0563 4.44608 16.054C4.43575 16.054 4.42541 16.054 4.41508 16.054C4.47478 17.5587 4.52645 19.0681 4.4656 20.5751C4.44952 21.0262 4.40934 21.482 4.34045 21.9275C4.32207 22.074 4.35308 22.2217 4.36226 22.374L4.40015 23.2787C4.42541 23.8822 4.44263 24.4869 4.42426 25.0903C4.42082 25.695 4.34848 26.2973 4.41623 26.8974C4.47478 27.4974 4.56434 28.1021 4.50004 28.7056C4.48053 29.0068 4.4346 29.3056 4.41393 29.6068C4.41049 29.6806 4.41049 29.7626 4.36571 29.8272C4.27385 29.998 3.90987 29.9553 3.92595 29.7856C3.92135 29.8837 4.04536 29.9449 4.17166 29.9287C4.24515 29.9207 4.31863 29.8849 4.35652 29.8203C4.399 29.758 4.39786 29.6795 4.40015 29.6045C4.41623 29.3022 4.45756 29.0044 4.47249 28.7021C4.49086 28.5129 4.49316 28.3236 4.48856 28.1355C4.46904 28.3513 4.43115 28.6733 4.41623 28.7887C4.39556 28.9502 4.36111 29.4395 4.35308 29.5364C4.34504 29.6345 4.34504 29.7129 4.26007 29.6737C4.17511 29.6345 4.08669 29.6495 4.04421 29.6737C4.00173 29.6979 3.9868 29.7372 3.97302 29.6853C3.96384 29.6968 3.95465 29.7083 3.94776 29.7199C3.95465 29.7083 3.96269 29.6968 3.97188 29.6853C3.97188 29.6853 3.7962 29.7949 3.77783 29.8191C3.75946 29.8433 3.78472 29.751 3.74683 29.721C3.70894 29.691 3.62742 29.7487 3.61593 29.721C3.60905 29.7037 3.61364 29.691 3.61938 29.6829C3.55049 29.7718 3.45289 29.8872 3.65268 29.8595C3.69401 29.8537 3.7342 29.8433 3.77783 29.8353C3.70549 29.8907 3.61479 29.9507 3.51719 29.901C3.49882 29.886 3.49078 29.8699 3.48504 29.8549C3.42189 29.9276 3.28066 29.901 3.30248 29.8053C3.27492 29.8295 3.23933 29.848 3.1957 29.8491C3.14977 29.8514 3.11532 29.8133 3.10958 29.7718C3.08547 29.7833 3.06021 29.7903 3.0315 29.7833C2.9052 29.721 3.03839 29.5641 3.09925 29.5087C3.1957 29.4106 3.2864 29.3079 3.36792 29.1983C3.50915 29.0079 3.67909 28.709 3.80424 28.5013C3.80654 28.4933 3.80654 28.4863 3.80654 28.4806C3.80654 28.424 3.80883 28.2659 3.80883 28.1113C3.80654 28.1875 3.80309 28.2625 3.79735 28.3386C3.81457 28.0132 3.79161 27.6855 3.72846 27.367C3.38515 25.7804 2.7192 24.2272 2.80531 22.5771C2.81335 22.1109 2.87765 21.4924 2.92587 20.9674C2.9408 20.7401 2.94998 20.5531 2.95572 20.4724C2.95802 20.4343 2.94883 20.3466 2.93276 20.2347C2.94195 20.3143 2.94883 20.3927 2.95572 20.4724C2.9385 20.2393 2.89487 20.0085 2.85468 19.7789C2.73527 19.0865 2.5573 18.4092 2.38852 17.7272C2.24384 17.0395 2.14165 16.3425 2.09917 15.6398C2.05784 14.9278 2.31848 14.2539 2.44707 13.565C2.55845 13.1092 2.72034 12.6661 2.89487 12.2345C3.01658 11.7811 2.83401 11.3091 2.81909 10.851C2.80646 10.7091 2.79498 10.5671 2.78235 10.4252C2.76627 10.4171 2.75594 10.4125 2.75364 10.4102L2.77775 10.3663C2.76972 10.2729 2.76168 10.1783 2.75364 10.0848C2.72838 9.82631 2.71001 9.60707 2.70427 9.4836C2.38622 9.22512 2.37474 8.73817 2.50104 8.26968C2.50448 8.21775 2.50793 8.13813 2.50908 8.04005C2.50448 7.91658 2.50333 7.79311 2.49989 7.66964C2.48956 7.50232 2.47119 7.31423 2.43674 7.11691C2.24729 6.23763 1.78686 5.46681 1.38155 4.67061C1.27477 4.43405 1.07039 4.10865 0.942939 3.87786C0.518107 3.09089 -0.0513972 2.28315 0.00371611 1.35078C0.00371611 1.39117 0.00371611 1.4304 0.00486431 1.46964C0.00945708 1.38771 0.0243836 1.31732 0.0588294 1.2677C0.062274 1.26308 0.0668668 1.25962 0.0703114 1.25501C0.0657186 1.25962 0.0599776 1.26424 0.0553848 1.27001C0.0944235 1.21116 0.158722 1.17308 0.223021 1.14654C0.683447 0.983836 1.21162 1.10961 1.68467 1.14769C2.16347 1.19847 2.83861 1.26655 3.3197 1.32424C3.45863 1.03922 3.68368 0.784209 3.93743 0.644584C3.92824 0.630737 3.91102 0.603043 3.89724 0.584581C3.8892 0.574195 3.86739 0.540732 3.84672 0.503806C3.8582 0.530347 3.87313 0.556887 3.89724 0.584581C3.82146 0.5165 3.7962 0.447264 3.80309 0.386107C3.80309 0.379183 3.80309 0.37226 3.80539 0.36649C3.83983 0.216481 4.06947 0.113782 4.25089 0.166862C4.37604 0.184171 4.4943 0.294947 4.57812 0.224558C4.64012 0.16917 4.57468 0.0491625 4.48971 0.0630095C4.46101 0.0653173 4.4346 0.084934 4.41737 0.109166C4.43 0.0814722 4.45412 0.0549321 4.48741 0.0480086C4.50808 0.042239 4.52875 0.0445468 4.54712 0.0503164C4.54597 0.0503164 4.54482 0.0480086 4.54482 0.0480086C4.54482 0.0480086 4.54942 0.0503164 4.55516 0.0526242C4.5609 0.0549321 4.56664 0.0572399 4.57123 0.0595478C4.63209 0.0860879 4.78709 0.158785 4.86058 0.218789C4.86402 0.221096 4.86747 0.224558 4.87091 0.226866C4.87091 0.226866 4.87436 0.229174 4.87436 0.230328C4.87436 0.230328 4.87665 0.232636 4.87665 0.233789C4.97195 0.322641 4.99606 0.450726 4.96162 0.554579C5.31756 0.630737 5.64939 0.95845 5.8308 1.33809C5.94447 1.28847 6.13507 1.36348 6.10292 1.50772C6.10292 1.50541 6.10063 1.50425 6.09948 1.5031C6.09948 1.50656 6.10292 1.51002 6.10407 1.51464C6.10407 1.51464 6.10522 1.51464 6.10637 1.51464C6.14655 1.51464 6.18444 1.5181 6.212 1.52618C6.30156 1.53887 6.44738 1.62888 6.40031 1.73042C6.55072 1.74888 6.67932 1.80543 6.71491 1.94274C6.74132 1.9462 6.76773 1.95082 6.79414 1.95428C6.88944 1.96813 7.03181 1.98544 7.03641 2.11121C7.04559 2.17122 6.99163 2.23815 6.92962 2.23584C6.60698 2.18853 6.28893 2.1666 5.96399 2.20468C5.98696 2.2093 6.00992 2.21853 6.03059 2.23584C6.07077 2.26699 6.07651 2.34084 6.03403 2.37085C6.22808 2.52316 6.10866 2.86242 5.90888 3.04589C6.0191 3.30206 6.05585 3.59515 5.98007 3.86402C5.94907 3.9621 5.89855 4.05326 5.83425 4.13173C6.03748 3.82017 6.00647 3.41514 5.8641 3.08397C5.79865 3.13359 5.72746 3.16474 5.65628 3.1682C5.65283 3.19821 5.64824 3.22936 5.64479 3.25936C5.6069 3.51784 5.47945 3.74863 5.30837 3.94133C5.29919 3.97479 5.28656 4.02903 5.27737 4.08788C5.27737 4.09134 5.27622 4.09826 5.27508 4.10403C5.27737 4.08903 5.27967 4.07288 5.28311 4.05788C5.23489 4.77677 5.30837 5.62144 5.95021 6.06454C5.91003 6.04262 5.87214 6.01838 5.83539 5.993C5.87099 6.01838 5.90888 6.04377 5.95021 6.06454C5.95021 6.06454 5.96744 6.068 5.99499 6.07377C5.98351 6.07031 5.97203 6.068 5.96055 6.06454C6.00073 6.07377 6.04207 6.083 6.08226 6.09223C6.11326 6.09916 6.14655 6.10608 6.1833 6.11531C6.27975 6.13608 6.37505 6.15685 6.47149 6.17532C6.51513 6.18109 6.57368 6.18916 6.63798 6.20416C6.66669 6.20878 6.69654 6.21455 6.72524 6.21801C7.13171 6.30456 7.36134 6.73381 7.3866 7.12268C7.43253 7.51271 7.46353 7.90504 7.48994 8.29737C7.57376 9.30128 7.48535 10.3063 7.46353 11.3114C7.47387 11.4256 7.50831 11.5791 7.54276 11.7222C7.6771 12.1768 7.81373 12.6373 7.83784 13.1127L7.85392 13.6308C7.86655 14.2401 7.88492 15.1043 7.87803 15.7067C7.87344 15.6305 7.86999 15.5521 7.8654 15.4724C7.8677 15.604 7.87459 15.7505 7.89066 15.8809C7.97218 16.234 8.04337 16.601 8.13293 16.9506L8.13638 16.9529ZM3.17158 29.676C3.15781 29.676 3.13255 29.676 3.09006 29.676C3.05102 29.676 3.03036 29.6714 3.02117 29.6622C3.0005 29.7014 2.99591 29.7406 3.0361 29.7695C3.05791 29.7776 3.08432 29.7741 3.10958 29.7672C3.10958 29.7476 3.11417 29.7268 3.1314 29.7106C3.14518 29.6979 3.15781 29.6864 3.17158 29.6749V29.676ZM3.33578 29.7176C3.32659 29.7233 3.3174 29.7268 3.31052 29.7222C3.291 29.7106 3.28755 29.6518 3.21292 29.6703C3.17618 29.7199 3.12566 29.7799 3.19684 29.7926C3.24736 29.7891 3.29329 29.7556 3.33578 29.7176ZM3.50686 29.7637C3.50686 29.7637 3.49882 29.766 3.49537 29.766C3.43337 29.766 3.48963 29.7245 3.40007 29.7245C3.38744 29.7245 3.37826 29.7245 3.37022 29.7245C3.35874 29.7441 3.34611 29.7626 3.33003 29.7799C3.32544 29.7856 3.31855 29.7914 3.31281 29.796C3.34841 29.8607 3.41041 29.841 3.48045 29.8433C3.47586 29.8156 3.48619 29.788 3.50686 29.7626V29.7637ZM3.80194 28.5083C3.78013 28.5625 3.75601 28.6167 3.7319 28.671C3.76635 28.604 3.79276 28.5463 3.80194 28.5083ZM5.97892 29.6772C6.01107 29.7026 6.03862 29.7314 6.03862 29.7695C6.06388 29.7764 6.08915 29.7799 6.11211 29.7718C6.15459 29.7418 6.14885 29.7003 6.12589 29.661C6.11785 29.6726 6.09718 29.6795 6.05355 29.6783C6.01796 29.6783 5.99499 29.6783 5.98007 29.6783L5.97892 29.6772ZM5.81817 29.7233C5.85951 29.7591 5.90314 29.7903 5.95136 29.7937C6.02255 29.7822 5.97318 29.7233 5.93644 29.6737C5.85606 29.6506 5.85262 29.7118 5.83195 29.7233C5.82736 29.7256 5.82276 29.7256 5.81702 29.7233H5.81817ZM5.6425 29.7649C5.66202 29.7891 5.67235 29.8168 5.66776 29.8445C5.7378 29.841 5.7998 29.8618 5.83425 29.7972C5.82851 29.7914 5.82276 29.7856 5.81817 29.7799C5.80324 29.7626 5.79062 29.7441 5.77913 29.7256C5.7711 29.7256 5.75961 29.7245 5.74354 29.7245C5.65398 29.7245 5.71024 29.766 5.64824 29.766C5.64594 29.766 5.64479 29.766 5.6425 29.766V29.7649ZM6.54842 9.46398C6.5312 9.63476 6.52316 9.80785 6.52087 9.97979C6.52661 9.82978 6.54039 9.60707 6.54842 9.46398ZM3.29674 3.0505C3.35529 3.10359 3.42074 3.14397 3.48849 3.16474C3.48849 3.16474 3.39663 3.11859 3.29903 3.04704C3.29903 3.0482 3.29788 3.04935 3.29674 3.0505ZM5.8021 5.97107C5.78947 5.96184 5.77798 5.95146 5.76535 5.94107C5.77684 5.95146 5.78947 5.96069 5.8021 5.97107ZM5.85032 3.0505C5.84114 3.03089 5.83195 3.01012 5.82162 2.9905C5.81128 2.97088 5.80095 2.95242 5.79061 2.93281C5.77569 2.97088 5.76076 3.01012 5.74584 3.05166C5.73665 2.99396 5.74124 2.93281 5.75732 2.87511C5.74124 2.84741 5.72517 2.81972 5.70909 2.79087C5.69072 2.9155 5.67465 3.04012 5.65972 3.16474C5.72632 3.14397 5.79176 3.10359 5.85147 3.0505H5.85032ZM3.61364 0.978067L3.83409 0.76113C3.75601 0.824596 3.68138 0.897293 3.61364 0.978067ZM2.86731 4.57483C3.09351 4.69715 3.3197 4.85293 3.47356 5.06179L3.47471 5.06294C3.56886 4.98793 3.70435 4.99832 3.81228 5.04563C3.8605 4.73176 3.88117 4.41905 3.86395 4.10057C3.85935 4.04518 3.85361 3.99441 3.85131 3.95979C3.6722 3.76363 3.54015 3.52707 3.49997 3.26052C3.49652 3.23052 3.49193 3.19936 3.48849 3.16936C3.41845 3.1659 3.34611 3.13474 3.28066 3.08512C3.13829 3.4163 3.10729 3.82132 3.31052 4.13288C3.24622 4.05441 3.19684 3.96325 3.16469 3.86517C3.08777 3.59746 3.12566 3.30321 3.23588 3.04704C3.02117 2.84857 2.89717 2.46893 3.16125 2.33854C3.18192 2.33277 3.20258 2.32931 3.2244 2.32931C3.22096 2.297 3.21407 2.21045 3.20833 2.17699C3.1911 2.1216 3.18192 2.0639 3.17618 2.00505C3.17503 1.99813 3.17388 1.99121 3.17273 1.98544C2.58945 2.00621 1.9832 2.08352 1.39877 2.05352C1.23458 2.0639 1.20013 2.07198 1.20013 2.07198C1.61463 2.4447 1.87987 2.95242 2.1761 3.41745C2.37703 3.75209 2.63193 4.20327 2.86731 4.57483ZM4.41278 16.0552C4.41278 16.0679 4.41278 16.099 4.41508 16.1463C4.41508 16.1163 4.41393 16.0863 4.41278 16.0552ZM4.48741 16.0552C4.48741 16.0552 4.48282 16.0552 4.48053 16.0552C4.48282 16.0552 4.48512 16.0552 4.48741 16.0552ZM7.48765 17.0787C7.47961 17.0591 7.47042 17.0395 7.45894 17.0187C7.46927 17.0383 7.47846 17.0579 7.48765 17.0787ZM19.8778 1.88389C19.7791 2.15276 18.6538 5.0514 18.3852 5.89722C18.1176 6.74304 17.9316 7.33154 17.8099 7.59348C17.7192 7.78965 17.6365 7.94889 17.5688 8.20737C17.4322 8.95857 17.3047 9.71208 17.2025 10.4679C17.1681 10.7252 17.1474 10.9848 17.113 11.2422C17.0831 11.4995 17.0303 11.7591 17.0751 12.0118C17.2737 12.7642 17.5355 13.5015 17.6882 14.2677C17.8363 15.0363 17.8708 15.8267 17.7984 16.6044C17.7169 17.1641 17.6009 17.7168 17.4815 18.2695C17.4505 18.4253 17.4207 18.5684 17.3908 18.6919C17.3759 18.7623 17.361 18.8315 17.346 18.9019C17.2737 19.2446 17.1497 19.7108 17.0808 20.11C17.0567 20.3177 17.0429 20.5185 17.0418 20.6985C17.121 22.0717 17.2749 23.5176 16.9648 24.8676C16.8075 25.5611 16.5722 26.2316 16.3862 26.9135C16.2093 27.5978 16.1542 28.3109 16.1462 29.0171C16.1462 28.9617 16.1462 28.9052 16.145 28.8498C16.1416 28.9964 16.1416 29.1002 16.145 29.136C16.1577 29.2664 16.2966 29.3633 16.447 29.4256C16.4068 29.4002 16.3678 29.3748 16.3299 29.3472C16.4562 29.4025 16.5802 29.466 16.7145 29.4925C16.7696 29.4972 16.8431 29.5064 16.8833 29.5595C16.9912 29.7337 16.6537 29.7464 16.5561 29.7799C16.4504 29.8145 16.3517 29.8768 16.238 29.8537C16.2266 29.8733 16.2116 29.8895 16.191 29.9022C16.0072 30.0187 15.6697 30.0557 15.5193 29.8687C15.4343 29.7256 15.4527 29.5537 15.4596 29.3956C15.5284 28.1263 15.6077 26.8535 15.5893 25.5819C15.5434 24.4695 15.4779 23.3502 15.649 22.2436C15.6892 21.9148 15.556 21.1601 15.5319 20.8243C15.4458 20.2762 15.4917 19.1373 15.5135 18.3769C15.5158 18.2811 15.5181 18.1841 15.5204 18.0872C15.5204 18.0434 15.5216 18.0007 15.5227 17.9614L15.548 17.0522C15.5526 16.8721 15.5572 16.7048 15.5617 16.5583L15.5755 16.0529V16.084C15.5755 16.0436 15.5767 16.0148 15.5778 15.9986C15.5273 15.9525 15.4825 15.8994 15.4423 15.8428C15.4205 15.859 15.3953 15.8694 15.3654 15.8694C15.3378 15.8694 15.3149 15.859 15.2931 15.8452C15.2529 15.8994 15.2104 15.9513 15.1599 15.9975C15.161 16.0448 15.1656 16.2029 15.1725 16.4302L15.1679 16.0529L15.2207 17.9614C15.2265 18.6538 15.3137 20.1631 15.2104 20.8255C15.1851 21.167 15.0531 21.9182 15.0933 22.2448C15.2644 23.3514 15.1989 24.4707 15.153 25.5831C15.1346 26.8547 15.2138 28.1275 15.2827 29.3968C15.2885 29.5549 15.3068 29.7268 15.223 29.8699C15.0726 30.058 14.735 30.0176 14.5513 29.9033C14.5307 29.8907 14.5157 29.8733 14.5043 29.8549C14.3894 29.878 14.2918 29.8156 14.1862 29.781C14.0886 29.7476 13.751 29.7337 13.859 29.5606C13.898 29.5064 13.9726 29.4972 14.0278 29.4937C14.1621 29.4672 14.285 29.4037 14.4124 29.3483C14.3803 29.3725 14.347 29.3956 14.3125 29.4175C14.4537 29.3552 14.5812 29.2606 14.5927 29.1371C14.5996 29.061 14.5938 28.6663 14.5628 28.2129C14.5295 27.7755 14.4664 27.3393 14.3573 26.9158C14.1713 26.2339 13.9348 25.5635 13.7786 24.87C13.4766 23.5568 13.6144 22.149 13.6948 20.8093C13.7005 20.5785 13.6822 20.3027 13.6454 20.0189C13.5742 19.6427 13.4651 19.2215 13.3974 18.903C13.3928 18.88 13.3871 18.858 13.3825 18.835C13.3285 18.6342 13.2677 18.3457 13.2102 18.0284C13.1104 17.5564 13.0151 17.0845 12.945 16.6067C12.8715 15.8278 12.9071 15.0386 13.0552 14.2701C13.2079 13.5039 13.4686 12.7665 13.6684 12.0141C13.7132 11.7614 13.6603 11.5018 13.6305 11.2445C13.5995 11.0114 13.5788 10.7771 13.5501 10.5452C13.5444 10.499 13.5386 10.4529 13.5329 10.4079C13.495 10.1321 13.4537 9.85747 13.41 9.58284C13.4089 9.63707 13.4066 9.72362 13.4054 9.84016C13.4215 10.5117 13.4387 11.1822 13.4192 11.8537C13.3756 12.1203 13.3136 12.3765 13.2608 12.6396C13.1012 13.4162 12.7716 14.9659 12.6006 15.7505C12.612 15.7598 12.6166 15.7736 12.6235 15.7863C12.6626 15.9617 12.6626 16.1556 12.6373 16.3483C12.7177 16.6425 12.7027 16.9541 12.7337 17.2541C12.7636 17.411 12.7716 17.5772 12.7498 17.7364C12.7441 17.7664 12.7383 17.8426 12.7073 17.8611C12.7613 17.943 12.7854 18.0561 12.7395 18.1415C12.7395 18.1415 12.7395 18.1426 12.7395 18.1438C12.7464 18.1645 12.6959 18.2038 12.6637 18.2268C12.6717 18.2626 12.674 18.2984 12.6522 18.3319C12.6465 18.3365 12.6407 18.3399 12.6361 18.3422C12.6649 18.3976 12.6568 18.4749 12.5983 18.5119C12.3537 18.5626 12.0689 17.9603 12.0161 17.7572C11.9828 17.5633 11.8841 17.3879 11.8324 17.1964C11.8003 16.9933 11.8531 16.7948 11.8933 16.5987C11.938 16.3402 11.9863 16.0817 12.0379 15.8232C12.0161 16.0055 11.992 16.1879 11.9668 16.3702C12.0196 16.0494 12.0701 15.6917 12.0724 15.4574C12.0575 14.8909 12.054 14.1789 12.0517 13.6585C12.0265 12.9661 12.2653 12.3061 12.4455 11.6472C12.395 11.8964 12.3307 12.1445 12.2722 12.3926C12.3767 12.0015 12.4972 11.526 12.4846 11.3437C12.48 11.2814 12.4777 11.091 12.4765 10.8233C12.4731 11.0299 12.4651 11.2364 12.4467 11.443C12.4754 10.4148 12.3847 9.38436 12.4547 8.35507L12.4938 7.58425C12.5144 7.32693 12.5018 7.06037 12.5994 6.81574C12.6488 6.69227 12.736 6.58611 12.8359 6.50418C12.8888 6.45687 12.945 6.41418 13.0024 6.37264C13.1046 6.29186 13.2068 6.23647 13.2929 6.20186C13.4778 6.11647 13.6764 6.06569 13.8842 6.068C13.7465 6.07608 13.6087 6.10262 13.4778 6.14531C13.7063 6.09108 13.9508 6.068 13.9508 6.068C13.991 6.03338 14.0886 5.95492 14.1277 5.92261C14.6512 5.42642 14.7546 4.65907 14.6742 3.96787C14.4296 3.84094 14.324 3.53053 14.3194 3.26744C14.3194 3.26744 14.3194 3.26975 14.3194 3.2709C14.3148 3.24898 14.3125 3.22821 14.3091 3.21205C14.2964 3.19705 14.2861 3.1809 14.2746 3.16474C14.2689 3.16474 14.2643 3.16474 14.2574 3.16359C14.2585 3.16359 14.2597 3.16474 14.2608 3.16474C14.2069 3.16936 14.1552 3.15551 14.1081 3.13128C14.1058 3.13013 14.1024 3.12782 14.1001 3.12551C14.0301 3.08397 13.9749 3.01473 13.9474 2.93973C13.9049 2.81972 13.8257 2.70433 13.8372 2.57509C13.8234 2.53701 13.8119 2.49547 13.8039 2.45739C13.7097 2.43316 13.6374 2.38931 13.6638 2.29353C13.681 2.25776 13.7143 2.23815 13.7499 2.22776C13.4938 2.20584 13.2378 2.17353 12.9829 2.21507L12.7946 2.23815C12.7096 2.25084 12.6442 2.15506 12.6775 2.0766C12.6982 2.00159 12.7843 1.97621 12.8486 1.96928C12.8945 1.96121 12.9416 1.95313 12.9886 1.9462C13.0196 1.81581 13.1448 1.75581 13.3021 1.73273C13.2872 1.70157 13.2929 1.66003 13.3136 1.63118C13.3779 1.54118 13.495 1.5181 13.6006 1.51579C13.6006 1.51349 13.6006 1.50887 13.6018 1.50656C13.6018 1.50656 13.6018 1.50887 13.6006 1.50887C13.6006 1.50656 13.6018 1.50541 13.6018 1.5031C13.6018 1.49964 13.6018 1.49848 13.6029 1.49387C13.6029 1.49041 13.6064 1.48464 13.6098 1.47656C13.6293 1.40963 13.6787 1.34732 13.7522 1.32886C13.836 1.31847 13.9072 1.30809 13.9818 1.27693C14.0484 1.25155 14.1185 1.23308 14.1885 1.21693C14.2057 1.18116 14.2264 1.13962 14.2448 1.10384C14.3056 0.965374 14.4078 0.837289 14.5353 0.751899C14.5376 0.749591 14.5422 0.746129 14.5444 0.744975C14.5479 0.742668 14.5536 0.74036 14.5571 0.738052C14.6191 0.698819 14.6868 0.668817 14.7592 0.653816C14.7982 0.638815 14.8269 0.62843 14.8269 0.62843C14.7925 0.551117 14.7925 0.458804 14.8372 0.359567C14.8384 0.354951 14.8395 0.350335 14.8418 0.346873C14.8441 0.343412 14.8476 0.337642 14.8499 0.333026C14.8797 0.275331 14.9222 0.216481 14.9842 0.156477C14.9842 0.156477 15.153 0.0122371 15.2207 0.00762142C15.2919 -0.0189187 15.3792 0.0260841 15.3792 0.108012C15.3666 0.0249302 15.269 -0.0062256 15.2093 0.0445468C15.1587 0.0883957 15.153 0.189941 15.2024 0.226866C15.2529 0.264945 15.3321 0.231482 15.4033 0.204941C15.5698 0.143784 15.866 0.042239 15.9774 0.244175C16.0095 0.328411 15.9958 0.412647 15.9613 0.493421C15.9487 0.5165 15.9303 0.533808 15.9119 0.549963V0.551117C15.9119 0.551117 15.9602 0.605351 16.0118 0.65497C16.2162 0.742668 16.3896 0.906524 16.4906 1.10615C16.4952 1.11308 16.5021 1.12346 16.5125 1.13846C16.8948 1.12346 17.2771 1.10961 17.6583 1.09L18.7457 1.03576C19.066 1.01384 19.4036 0.981529 19.709 1.09577C19.7825 1.11769 19.8434 1.14769 19.8835 1.18808C20.0868 1.39348 19.9823 1.61618 19.8835 1.88505L19.8778 1.88389ZM12.4788 8.98395C12.4685 9.29436 12.4616 9.60245 12.4616 9.89786C12.4639 10.0121 12.4662 10.1252 12.4685 10.2394C12.4697 9.85401 12.4731 9.41206 12.4788 8.9828V8.98395ZM12.7326 6.65419C12.6901 6.70727 12.6557 6.76497 12.6316 6.82959C12.627 6.84228 12.6235 6.85613 12.6189 6.86882C12.6511 6.7892 12.689 6.71766 12.7326 6.65304V6.65419ZM13.6075 19.8089C13.5731 19.5919 13.5271 19.375 13.4743 19.1754C13.518 19.3761 13.5662 19.5942 13.6075 19.8089ZM17.7295 16.7544C17.7376 16.7037 17.7468 16.6517 17.7536 16.601C17.7559 16.5802 17.7559 16.5594 17.7582 16.5387C17.7491 16.6067 17.7399 16.6794 17.7295 16.7556V16.7544ZM17.0969 19.9658C17.1486 19.675 17.2197 19.3623 17.276 19.0923C17.1991 19.3611 17.1382 19.6669 17.0969 19.9658ZM14.4985 29.8537C14.4893 29.8387 14.4824 29.8214 14.4779 29.8041C14.4767 29.8041 14.4744 29.8018 14.4744 29.8018C14.4744 29.8018 14.4331 29.7741 14.3527 29.7395C14.2723 29.706 14.2643 29.6795 14.1759 29.6714C14.1093 29.6645 13.96 29.6276 13.8911 29.6102C13.8888 29.6195 13.89 29.6287 13.8969 29.6356C13.9933 29.7072 14.169 29.7026 14.2746 29.7776C14.3389 29.8191 14.4204 29.8491 14.4997 29.8537H14.4985ZM15.1932 28.4633C15.2104 28.8879 15.2437 29.5468 15.2517 29.6956C15.2644 29.5976 15.2552 29.4949 15.2494 29.3979C15.2311 29.0864 15.2115 28.7748 15.1932 28.4633ZM14.7626 29.8837C14.6317 29.8803 14.5203 29.826 14.4859 29.8076C14.4939 29.8445 14.5226 29.8722 14.5525 29.8941C14.7316 30.0037 15.0565 30.036 15.2001 29.8583C15.2207 29.8226 15.2345 29.7833 15.2437 29.7429C15.1461 29.923 14.9165 29.8883 14.7638 29.8837H14.7626ZM15.4779 29.6576C15.486 29.5087 15.5043 29.1383 15.5193 28.7956C15.5066 28.9964 15.4952 29.1971 15.4825 29.3968C15.4779 29.481 15.471 29.571 15.4768 29.6564L15.4779 29.6576ZM16.2553 29.7995C16.2518 29.8191 16.2449 29.8364 16.2346 29.8526C16.3138 29.848 16.3942 29.818 16.4585 29.7764C16.5641 29.7014 16.7398 29.706 16.8362 29.6345C16.842 29.6252 16.8431 29.616 16.842 29.6079C16.7765 29.6253 16.6204 29.6645 16.5515 29.6703C16.4631 29.6783 16.455 29.7037 16.3747 29.7383C16.3 29.7695 16.261 29.7949 16.2553 29.7983V29.7995ZM15.9648 29.8837C15.8155 29.8872 15.595 29.9195 15.4929 29.7568C15.502 29.7914 15.5147 29.826 15.533 29.8583C15.6766 30.0384 16.0015 30.0014 16.1806 29.8941C16.2174 29.8722 16.2369 29.841 16.2461 29.8053C16.2174 29.8214 16.1014 29.8803 15.9648 29.8837ZM16.385 5.38257C16.3471 5.40681 16.3081 5.43104 16.2702 5.45643C16.2736 5.46219 16.2759 5.46796 16.2794 5.47373C16.2989 5.45527 16.331 5.42412 16.385 5.38257ZM17.563 8.22698C17.5412 8.31007 17.5217 8.40238 17.5033 8.50969C17.4976 8.542 17.4907 8.58701 17.4815 8.64009C17.5079 8.50162 17.5355 8.3643 17.563 8.22583V8.22698ZM18.8835 1.85274C18.8835 1.85274 18.6906 1.86197 18.4483 1.87005C18.0981 1.90005 17.7456 1.90813 17.3943 1.88966C17.183 1.88389 16.9706 1.8562 16.7593 1.83197C16.7593 1.84928 16.7628 1.86543 16.7628 1.88389C16.7651 2.01659 16.7685 2.15737 16.7628 2.2993C16.7628 2.34315 16.7628 2.35469 16.7628 2.35469C16.8052 2.34892 16.8328 2.37085 16.85 2.402C16.8558 2.41008 16.8604 2.41931 16.8627 2.4297C16.8787 2.47816 16.881 2.53932 16.8822 2.57855C16.8902 2.76087 16.8167 2.94781 16.6847 3.06551C16.9247 3.37591 16.8879 3.8294 16.6732 4.14442C16.8098 3.79594 16.8477 3.41399 16.6801 3.06781C16.6192 3.12205 16.5457 3.15897 16.4619 3.17513C16.4596 3.17744 16.4585 3.17859 16.4573 3.1809C16.4482 3.18782 16.439 3.19474 16.4309 3.20167C16.4229 3.22475 16.4114 3.2559 16.3965 3.2836C16.3965 3.2836 16.3965 3.2859 16.3953 3.28706C16.3999 3.27898 16.4034 3.27206 16.408 3.26398C16.3448 3.50861 16.3563 3.91594 16.067 4.00133C16.0187 4.48829 16.0463 5.01909 16.2713 5.45181C16.478 5.30295 16.695 5.16564 16.9086 5.03063C17.1279 4.85985 17.2599 4.60599 17.4299 4.3879C17.888 3.80401 18.299 3.18321 18.5597 2.48162C18.5631 2.47355 18.5677 2.46547 18.5712 2.45739C18.6848 2.1816 18.7916 1.9462 18.8858 1.84928L18.8835 1.85274ZM19.4622 1.05192C19.3818 1.04384 19.3003 1.04038 19.2187 1.04269C19.3037 1.04269 19.3852 1.04499 19.4622 1.05192Z" fill="#F3597B"/>
</svg>
