<svg width="18" height="30" viewBox="0 0 18 30" fill="none" xmlns="http://www.w3.org/2000/svg">
<path d="M17.4773 16.289C17.948 15.5123 18.2742 14.3397 17.6744 13.5747C17.5945 13.4489 17.5265 13.3918 17.5265 13.3918C17.5486 13.3415 17.5656 13.2945 17.5775 13.2492C17.5673 13.2962 17.552 13.3432 17.5265 13.3918C17.8698 12.9305 17.4178 12.5396 16.9607 12.4591C16.9997 12.2813 17.0456 12.0581 17.0813 11.7964C17.4161 9.91921 16.7092 7.99837 15.6437 6.4466C15.0846 5.59102 14.461 4.75726 13.6606 4.103C13.2477 3.75909 12.7854 3.47893 12.296 3.26085C11.827 3.03605 11.4634 2.94043 11.2901 2.9052C11.2544 2.89513 11.217 2.88674 11.1796 2.87836C11.1796 2.87836 11.1796 2.87668 11.1796 2.875C11.4464 2.14022 11.1201 1.26955 10.4404 0.786398C10.5067 0.840081 10.5695 0.897119 10.629 0.95919C10.5695 0.90383 10.5067 0.850147 10.4404 0.786398C10.0071 0.368678 9.30865 0.633737 9.30865 0.633737C9.30865 0.637093 9.30865 0.63877 9.30865 0.642125C9.28486 0.289831 8.99768 -0.0574308 8.50997 0.00799532C8.32645 0.0415472 8.18031 0.175755 8.09364 0.330093C8.46749 -0.325846 9.4446 0.175755 9.23388 0.850147C9.20839 0.932349 9.16761 0.997775 9.11833 1.05146C9.07075 1.09843 9.03336 1.12359 9.03336 1.12359C8.78696 1.288 8.39442 1.24774 8.12593 1.12527C7.31366 0.761234 6.33655 0.533082 5.4818 0.902152C4.7375 1.2058 4.41123 1.87516 4.64404 2.49587C4.67122 2.57639 4.70351 2.64685 4.7426 2.70053C4.74769 2.70724 4.75279 2.71395 4.75789 2.72066C4.81227 2.8079 4.87854 2.89345 4.95671 2.97566C4.91253 2.92701 4.87514 2.875 4.83776 2.82132C5.07566 3.0998 5.43422 3.3917 5.43422 3.3917C5.43422 3.3917 5.42232 3.39841 5.40193 3.41015C5.02638 3.60308 4.66953 3.83291 4.34326 4.10468C4.29398 4.14494 4.2481 4.18688 4.20051 4.22882C4.19032 4.23721 4.18012 4.24392 4.16993 4.25231C3.9881 4.38987 3.76379 4.61466 3.51909 4.89818C3.08746 5.37965 2.71022 5.90977 2.35846 6.44827C1.96762 7.01698 1.62775 7.63601 1.36776 8.28524C1.36266 8.2953 1.35756 8.30705 1.35246 8.31711C1.16384 8.74154 1.04319 9.16933 0.970119 9.58034C0.798489 10.4091 0.784894 11.263 0.987112 12.1018C1.05339 12.4692 1.24371 13.1805 1.24371 13.1805C1.22842 13.1805 1.21312 13.1805 1.19953 13.1805C0.966721 13.1805 0.735614 13.2358 0.538494 13.3532C0.162945 13.6703 0.0117064 14.0964 0.0015105 14.546C0.0015105 14.5527 0.0015105 14.5594 0.0015105 14.5678C0.0015105 14.5779 0.0015105 14.588 0.0015105 14.598C0.0015105 14.6467 -0.00188813 14.6953 0.0015105 14.7473C0.0134057 15.0275 0.0524899 15.202 0.166344 15.5173C0.193533 15.5979 0.222421 15.6767 0.254708 15.7539C0.254708 15.7572 0.256408 15.7589 0.258107 15.7623C0.258107 15.7623 0.258107 15.7639 0.258107 15.7656C0.47222 16.3243 0.7713 16.742 1.08907 17.0557C1.15704 17.1278 1.22842 17.1983 1.30318 17.2654C0.657446 18.7115 0.419542 20.4226 0.822279 21.9442C0.983714 22.5095 1.2658 23.0346 1.61416 23.5044C1.276 23.0262 1.0092 22.4961 0.861363 21.9325C0.477318 20.4243 0.72032 18.745 1.36436 17.3208C1.7654 17.663 2.24291 17.9062 2.77309 17.9633C2.77479 17.9784 2.77649 17.9918 2.77819 18.0069C2.76459 18.0639 2.76629 18.2065 2.84616 18.5571C2.88185 18.8105 2.92773 19.0604 3.011 19.3037C3.37125 20.384 3.95411 21.3939 4.69841 22.2663L4.70011 22.2697C4.85475 22.9742 4.94651 23.6587 4.99409 24.3096C4.95841 23.8952 4.90743 23.4842 4.84455 23.0766C5.12154 25.3866 5.01788 27.7621 4.33986 30C4.34496 29.9849 4.35005 29.9681 4.35685 29.953C4.34666 29.9832 4.33986 30 4.33986 30H13.6725C13.4856 29.5907 13.3428 29.074 13.2375 28.5053C13.3479 29.0119 13.489 29.5118 13.6725 30C12.9945 27.7621 12.8925 25.3883 13.1678 23.0766C13.1202 23.3853 13.0794 23.6956 13.0471 24.0076C13.0777 23.6436 13.1185 23.3249 13.1678 23.0766C13.2562 22.6337 13.3462 22.3317 13.4516 22.0918C13.8492 21.6003 14.1976 21.0702 14.4848 20.5099C14.4848 20.5099 14.4848 20.5082 14.4865 20.5065C14.7668 20.0485 14.9368 19.567 15.0404 19.1477C15.1475 18.7618 15.1832 18.3609 15.2325 17.9633C15.7626 17.9079 16.2402 17.663 16.6412 17.3208C17.2852 18.745 17.5282 20.4243 17.1442 21.9325C16.998 22.4961 16.7296 23.0262 16.3914 23.5044C16.7397 23.0346 17.0218 22.5079 17.1833 21.9442C17.586 20.4226 17.3498 18.7132 16.7024 17.2654C17.015 16.9852 17.2784 16.6447 17.4807 16.2907L17.4773 16.289ZM2.64904 17.9348C2.42983 17.8878 2.22421 17.8123 2.02879 17.7133C2.28879 17.8358 2.5097 17.9012 2.64904 17.9348ZM16.823 9.02841C16.8587 9.14752 16.8927 9.26663 16.9233 9.38574C16.891 9.26663 16.8587 9.14752 16.823 9.02841ZM7.55666 0.989387C7.40542 0.944092 7.24568 0.898797 7.07575 0.860212C7.24229 0.882021 7.40032 0.932349 7.55666 0.989387ZM0.86986 11.0768C0.886853 11.4727 0.931035 11.783 0.959923 11.9592C0.907245 11.6656 0.876657 11.3703 0.86986 11.0768ZM13.7235 21.602C13.7456 21.5684 13.7693 21.5349 13.7948 21.5013C13.771 21.5349 13.7473 21.5684 13.7235 21.602Z" fill="#F3597B"/>
</svg>
