<svg width="18" height="22" viewBox="0 0 18 22" fill="none" xmlns="http://www.w3.org/2000/svg">
<path d="M17.2794 18.2919C17.6736 16.2542 18.047 13.7153 17.9952 11.5752C17.9952 11.571 17.9952 11.5669 17.9952 11.5627C17.9889 11.3247 17.9786 11.0908 17.962 10.8653C17.8727 9.4748 17.4848 8.13438 17.1466 6.79396L17.0242 6.18013L17.0076 6.1154C16.854 5.36585 16.6756 4.62257 16.4681 3.88763L16.4515 3.82082C16.4515 3.82082 16.4453 3.79994 16.4308 3.76236C16.0656 2.48249 15.6216 1.2235 15.0967 0C15.4162 0.822625 15.7212 1.6536 15.9951 2.49293C15.7337 1.74129 15.3976 0.793395 15.0967 0H2.90124C2.6004 0.793395 2.26428 1.74129 2.00286 2.49502C2.27673 1.6536 2.58172 0.822625 2.90124 0C2.37632 1.2235 1.93232 2.48249 1.56716 3.76236C1.55471 3.79994 1.54849 3.82082 1.54849 3.82082L1.53189 3.88763C1.32441 4.62257 1.14598 5.36585 0.992452 6.1154L0.975854 6.18013L0.853442 6.79396C0.515256 8.13647 0.129349 9.47689 0.0380595 10.8674C0.0214614 11.0929 0.0110875 11.3268 0.00486324 11.5648C0.00486324 11.5689 0.00486324 11.5752 0.00486324 11.5794C-0.0470059 13.7195 0.324377 16.2583 0.720657 18.2961C0.776676 18.6197 0.836844 18.9413 0.901162 19.2649C1.08582 20.1752 1.30989 21.0772 1.56094 21.9729C1.56509 21.9896 1.56924 22 1.56924 22C5.43453 21.881 8.53838 17.8827 8.53838 17.8827C8.56327 16.5611 8.51763 15.2374 8.43879 13.9178C8.57572 13.9345 8.71266 13.9387 8.84544 13.9116C8.90561 13.9074 8.95955 13.9032 9.00105 13.899C9.04254 13.9032 9.09649 13.9074 9.15666 13.9116C9.28944 13.9387 9.42845 13.9345 9.56331 13.9178C9.48447 15.2374 9.4409 16.5611 9.46372 17.8827C9.46372 17.8827 12.5655 21.881 16.4329 22C16.4329 22 16.4349 21.9896 16.4412 21.9729C16.6922 21.0792 16.9163 20.1773 17.1009 19.2649C17.1653 18.9433 17.2233 18.6197 17.2814 18.2961L17.2794 18.2919ZM17.6964 9.53953L17.5117 8.6146C17.5802 8.92152 17.6445 9.23052 17.6964 9.53953ZM9.58613 13.8635C9.58613 13.8635 9.58613 13.8635 9.58406 13.8635C9.58406 13.8635 9.58406 13.8635 9.58613 13.8635ZM0.488284 8.6146L0.30363 9.53953C0.355499 9.23052 0.419816 8.92152 0.488284 8.6146Z" fill="#F3597B"/>
</svg>
