<svg width="160" height="99" viewBox="0 0 160 99" fill="none" xmlns="http://www.w3.org/2000/svg"><path d="M80 7.962A15.646 15.646 0 0180 0a15.646 15.646 0 010 7.962zM0 79.06c2.675.679 5.374.679 8.05 0a16.158 16.158 0 00-8.05 0zm116.579-61.87a15.969 15.969 0 004.025-6.909c-1.918 1.944-3.291 4.263-4.025 6.909zm-77.183-6.91a16.241 16.241 0 004.025 6.909c-.734-2.623-2.107-4.941-4.025-6.909zm111.086 29.881a16.51 16.51 0 00-6.984 3.982c2.652-.726 4.996-2.085 6.984-3.982zm-140.94 0c1.988 1.897 4.308 3.256 6.984 3.982-1.966-1.897-4.31-3.232-6.985-3.982zm49.931-24.307a16.2 16.2 0 002.747 7.494 16.199 16.199 0 00-2.747-7.494zm38.331 7.494c1.563-2.248 2.462-4.778 2.746-7.494a15.607 15.607 0 00-2.746 7.494zm40.083 44.189a16.19 16.19 0 007.931-1.382 16.192 16.192 0 00-7.931 1.382zM14.229 66.155a16.191 16.191 0 007.931 1.382 16.191 16.191 0 00-7.93-1.382zm27.535-22.762a509.318 509.318 0 009.825 9.063c3.267 3.091 6.677 6.159 10.844 7.985-5.162-7.212-13.638-11.638-20.55-17.212-.096-.07-.214.07-.12.164zm-5.067-4.332c-1.61-2.225-3.693-3.934-6.18-5.129a16.181 16.181 0 006.18 5.129zm60.87 21.357c8.074-3.77 13.969-11.264 20.717-17.025.094-.093-.048-.21-.119-.164a454.811 454.811 0 00-10.725 8.01c-3.646 2.645-7.292 5.432-9.849 9.179h-.024zm31.939-26.486c-2.486 1.195-4.57 2.904-6.18 5.129a16.33 16.33 0 006.18-5.129zm-29.405 45.08c0-.211.047-.422.047-.633 0-.093-.071-.187-.095-.257-.97-10.702-9.541-19.086-20.03-19.086-10.488 0-19.058 8.384-20.029 19.086-.047.094-.118.164-.095.257 0 .211.024.422.048.633 0 .21-.048.421-.048.632 0 .094.071.187.095.258.97 10.701 9.541 19.085 20.03 19.085 10.488 0 19.059-8.383 20.029-19.085.048-.094.119-.164.095-.258 0-.21-.024-.422-.047-.632zM80 158a15.646 15.646 0 000-7.962A15.646 15.646 0 0080 158zm71.95-78.918c2.676.68 5.375.68 8.05 0a16.156 16.156 0 00-8.05 0zm-31.346 68.638a16.243 16.243 0 00-4.025-6.909c.734 2.623 2.107 4.941 4.025 6.909zm-77.183-6.909a15.967 15.967 0 00-4.025 6.909c1.918-1.944 3.291-4.262 4.025-6.909zm107.038-22.973c-1.989-1.896-4.309-3.255-6.985-3.981 1.965 1.897 4.309 3.232 6.985 3.981zm-133.98-3.981c-2.652.726-4.996 2.085-6.985 3.981a16.5 16.5 0 006.984-3.981zm45.717 20.819c-1.563 2.248-2.462 4.777-2.746 7.494 1.538-2.249 2.485-4.778 2.746-7.494zm38.331 7.494a16.195 16.195 0 00-2.747-7.494 16.202 16.202 0 002.747 7.494zm45.244-50.278a16.19 16.19 0 00-7.931-1.382 16.19 16.19 0 007.931 1.381zm-131.59 0c2.747.21 5.422-.258 7.932-1.382a16.19 16.19 0 00-7.931 1.381zm48.204 5.713c-4.167 1.827-7.576 4.918-10.843 7.986a507.763 507.763 0 00-9.825 9.063c-.095.07.023.234.118.164 6.913-5.574 15.389-10 20.55-17.213zm-31.914 26.533c2.485-1.194 4.569-2.904 6.179-5.129a16.33 16.33 0 00-6.18 5.129zm87.741-9.461c-6.747-5.761-12.619-13.254-20.716-17.025 2.534 3.747 6.203 6.534 9.849 9.18a580.755 580.755 0 0010.725 8.009c.095.07.214-.07.119-.164h.023zm5.067 4.332c1.61 2.225 3.693 3.935 6.179 5.129a16.188 16.188 0 00-6.179-5.129zm-20.408-28.312c12.453 4.59 23.344 13.091 34.827 19.788-5.541-2.201-12.075-6.276-17.899-9.18-5.919-3.044-11.909-6.252-16.976-10.561-2.249 4.075-5.658 7.54-9.707 9.999 8.453 10.14 13.59 22.856 20.125 34.331-3.694-4.637-7.269-11.405-10.844-16.791-3.575-5.55-7.15-11.287-9.352-17.493a27.215 27.215 0 01-6.747 2.881c4.995 7.236 6.321 16.533 9.21 24.799.047.117-.142.164-.19.07a561.372 561.372 0 01-5.256-12.247c-1.775-4.028-3.528-8.173-3.859-12.599-1.989.515-4.072.82-6.156.82 1.99 12.739.119 26.017 0 38.944-.852-5.855-.52-13.489-.9-19.906-.26-6.322-.473-12.786.616-19.015-2.107.047-4.167-.234-6.18-.749-.899 8.664-5.918 16.603-9.043 24.752-.048.117-.213.047-.19-.07a464.97 464.97 0 013.93-12.716c1.232-4.168 2.605-8.407 5.162-11.99a24.99 24.99 0 01-6.724-2.833c-4.664 12.247-13.187 22.973-19.935 34.26 2.226-5.48 6.345-11.943 9.28-17.704 3.055-5.784 6.275-11.662 10.56-16.626-4.025-2.46-7.434-5.949-9.66-10.07-10.251 8.337-23.083 13.442-34.684 19.905 4.688-3.653 11.53-7.189 16.975-10.725 5.611-3.536 11.388-7.05 17.662-9.227a24.2 24.2 0 01-2.225-5.784c-8.003 3.49-17.402 3.185-26.02 4.566-.118 0-.142-.164-.023-.187a503.511 503.511 0 0113.092-2.998c4.214-1.006 8.547-1.943 12.903-1.592a23.354 23.354 0 01-.568-4.45c-13.14-.21-26.28-.632-39.42-1.123 13.14-.492 26.28-1.054 39.42-1.265.047-1.522.213-2.997.568-4.45-4.356.352-8.689-.585-12.903-1.592a503.511 503.511 0 01-13.093-2.997c-.118-.024-.094-.211.024-.188 8.618 1.382 18.017 1.078 26.02 4.567a24.202 24.202 0 012.225-5.784c-6.274-2.178-12.05-5.69-17.662-9.227-5.445-3.536-12.287-7.072-16.975-10.725C33.856 53.978 46.712 59.06 56.964 67.42c2.249-4.122 5.634-7.61 9.66-10.07-4.286-4.964-7.506-10.842-10.56-16.626-2.936-5.761-7.055-12.201-9.28-17.704 6.747 11.287 15.27 22.012 19.934 34.26a24.969 24.969 0 016.724-2.834c-2.557-3.582-3.93-7.821-5.161-11.99a465.072 465.072 0 01-3.93-12.715c-.024-.117.141-.188.189-.07 3.125 8.125 8.144 16.087 9.044 24.752 1.989-.515 4.072-.796 6.18-.75-1.09-6.229-.9-12.692-.616-19.015.379-6.44.047-14.074.9-19.905.118 12.927 2.012 26.205 0 38.944 2.106 0 4.166.304 6.155.82.355-4.426 2.084-8.571 3.86-12.6a615.744 615.744 0 015.255-12.247c.047-.093.237-.047.19.07-2.913 8.244-4.215 17.564-9.21 24.8a26.369 26.369 0 016.747 2.88c2.202-6.205 5.777-11.92 9.352-17.493 3.575-5.386 7.15-12.154 10.844-16.79-6.535 11.474-11.696 24.19-20.125 34.33 4.049 2.436 7.458 5.902 9.707 10 5.043-4.31 11.057-7.494 16.976-10.562 5.824-2.904 12.335-6.978 17.899-9.18-11.483 6.698-22.374 15.175-34.827 19.789a23.724 23.724 0 012.249 5.76c3.977-1.826 8.405-2.435 12.737-2.903a628.103 628.103 0 0113.33-1.616c.118 0 .165.164.023.187-8.594 1.616-17.33 5.082-26.066 4.52a22.99 22.99 0 01.591 4.613c11.72.258 28.127.68 39.468 1.17-11.317.493-27.724.774-39.468 1.031a22.991 22.991 0 01-.591 4.614c8.736-.563 17.472 2.88 26.066 4.52.119.023.071.21-.023.187a626.802 626.802 0 01-13.33-1.616c-4.332-.469-8.76-1.078-12.737-2.904a23.725 23.725 0 01-2.249 5.76v-.14zm1.183-11.662c-2.13-30.583-46.214-30.818-48.132 0 1.918 30.818 46.002 30.584 48.132 0z" fill="#FFCC19"/></svg>