<svg xmlns="http://www.w3.org/2000/svg" width="32" height="32"><path fill-rule="evenodd" fill="#C4C0B9" d="M31.94 17.419c-.049.371-.079.745-.141 1.113-.557 3.301-1.95 6.205-4.328 8.562-4.398 4.359-9.679 5.876-15.66 4.283C3.519 29.168-1.435 20.872.387 12.559 1.808 6.079 7.152 1.111 13.708.169c.33-.047.673-.031.988-.169h2.499c.016.07.073.058.122.061 1.471.107 2.909.396 4.272.951 5.752 2.342 9.192 6.564 10.248 12.701.062.361.042.733.167 1.084v2.435c-.098.036-.056.122-.064.187zM16.025 2.482C8.585 2.459 2.51 8.518 2.497 15.975c-.012 7.443 6.053 13.508 13.51 13.51 7.456.001 13.521-6.063 13.512-13.508-.009-7.449-6.031-13.471-13.494-13.495zm4.181 18.29c-.783-.567-1.549-1.156-2.323-1.736-.84-.63-1.677-1.264-2.522-1.887-.399-.295-.597-.679-.597-1.171 0-2.413-.002-4.827.002-7.24.001-.645.336-1.098.906-1.267a1.223 1.223 0 011.347.475c.182.257.235.548.234.856-.002 1.061-.001 2.122-.001 3.183 0 1.082.005 2.164-.004 3.245a.42.42 0 00.195.383c1.393 1.037 2.779 2.083 4.17 3.121.461.344.685.786.549 1.354-.21.875-1.208 1.225-1.956.684z"/></svg>