<svg xmlns="http://www.w3.org/2000/svg" width="32" height="32"><path fill-rule="evenodd" fill="#C4C0B9" d="M31.925 28.914c-.424 1.925-1.864 3.092-3.826 3.092-8.071.001-16.142 0-24.214.002-.324 0-.646-.02-.96-.095-1.747-.416-2.927-1.879-2.929-3.678-.006-7.321-.002-14.643-.002-21.964 0-.084.003-.167.007-.25.085-1.574 1.257-2.992 2.785-3.384.739-.19 1.49-.108 2.237-.12.175-.002.226-.046.224-.224-.01-.76-.005-1.52-.005-2.28h2.5c0 .76.006 1.52-.004 2.28-.003.177.047.226.223.223.656-.01 1.312-.004 1.969-.004 4.675 0 9.351-.002 14.027.006.233.001.294-.053.288-.287-.017-.739-.006-1.479-.006-2.218h2.5c0 .759.005 1.518-.004 2.277-.002.17.036.232.219.227.467-.012.935-.012 1.403 0a3.769 3.769 0 013.482 2.692c.054.183.042.384.149.553V28.82c-.048.014-.053.052-.063.094zM29.484 6.267c-.009-.715-.533-1.234-1.247-1.252-.426-.011-.854.006-1.28-.007-.178-.006-.225.049-.222.224.01.687-.003 1.374.008 2.061.003.178-.049.225-.224.222-.687-.01-1.375-.01-2.062 0-.178.003-.225-.048-.222-.224.01-.687-.002-1.374.008-2.061.003-.178-.049-.222-.224-.222-5.351.005-10.703.005-16.054-.002-.214 0-.228.082-.226.253.008.676-.003 1.353.007 2.03.002.171-.037.23-.22.227a52.446 52.446 0 00-2.061.001c-.215.005-.228-.081-.226-.252.008-.677-.002-1.354.007-2.031.003-.171-.037-.233-.219-.227-.385.015-.771.003-1.156.005-.868.005-1.375.51-1.378 1.378-.002.853.012 1.707-.008 2.561-.006.265.068.317.323.316 4.394-.008 8.788-.006 13.181-.006 4.404 0 8.808-.002 13.212.005.223 0 .299-.037.294-.281-.018-.906.002-1.812-.011-2.718zm-.313 5.488c-4.384.008-8.768.006-13.152.006-4.405 0-8.809.002-13.214-.007-.26-.001-.319.061-.319.32.009 5.331.007 10.663.007 15.994 0 .951.489 1.439 1.442 1.439h24.116c.049 0 1.437-.491 1.437-1.444 0-5.332-.002-10.663.007-15.994.001-.268-.073-.315-.324-.314zM27.03 21.887a81.049 81.049 0 00-2.092.001c-.173.003-.207-.057-.202-.213.01-.353.003-.707.003-1.061 0-.334.007-.667-.003-1-.005-.161.017-.238.211-.235a63.49 63.49 0 002.093.001c.172-.003.203.057.202.212-.007.698-.01 1.395.001 2.093.003.172-.058.203-.213.202zm.02-4.999a93.99 93.99 0 00-2.124 0c-.152.002-.192-.043-.19-.192.007-.708.007-1.416 0-2.124-.002-.152.043-.192.192-.19.708.007 1.416.007 2.124 0 .151-.002.194.043.19.192-.01.354-.003.708-.003 1.062 0 .354-.008.708.003 1.062.005.151-.043.191-.192.19zm-5.041 0c-.333-.011-.666-.003-.999-.003-.354 0-.708-.007-1.062.003-.155.004-.215-.03-.213-.202.011-.698.009-1.395.002-2.093-.002-.155.029-.215.202-.212.697.01 1.395.008 2.092.001.155-.002.215.029.213.202a63.431 63.431 0 000 2.092c.004.195-.073.217-.235.212zm-4.957 9.998c-.708-.007-1.416-.008-2.124 0-.151.002-.192-.042-.191-.192a93.99 93.99 0 000-2.124c-.001-.15.043-.192.192-.19.708.007 1.416.007 2.124 0 .151-.002.195.042.191.192-.011.353-.004.707-.004 1.062 0 .353-.007.708.004 1.061.004.152-.043.193-.192.191zm.001-4.999c-.364-.01-.729-.003-1.093-.003-.344 0-.688-.008-1.031.003-.15.004-.193-.04-.192-.191a93.99 93.99 0 000-2.124c-.001-.149.04-.193.191-.191.708.007 1.416.007 2.124 0 .149-.002.193.039.192.19a93.99 93.99 0 000 2.124c.001.15-.04.196-.191.192zm-.001-4.999c-.364-.011-.728-.003-1.093-.003-.343 0-.687-.008-1.03.003-.151.005-.193-.041-.192-.191a93.99 93.99 0 000-2.124c-.001-.15.041-.193.192-.191.707.007 1.416.007 2.123 0 .151-.002.193.041.192.191a93.99 93.99 0 000 2.124c.001.15-.041.195-.192.191zm-4.999 9.998c-.708-.007-1.416-.007-2.124 0-.15.002-.192-.041-.191-.191a93.99 93.99 0 000-2.124c-.001-.15.041-.193.191-.191.708.007 1.416.007 2.124 0 .15-.002.196.041.192.191-.011.364-.004.729-.004 1.093 0 .344-.007.687.004 1.031.004.15-.042.193-.192.191zm0-4.999c-.708-.007-1.416-.007-2.124 0-.15.001-.192-.041-.191-.191a93.99 93.99 0 000-2.124c-.001-.15.041-.193.191-.191.708.007 1.416.007 2.124 0 .15-.002.196.041.192.191-.011.354-.004.708-.004 1.062 0 .354-.007.708.004 1.062.004.15-.042.192-.192.191zm0-4.999a93.99 93.99 0 00-2.124 0c-.15.002-.192-.041-.191-.191a93.99 93.99 0 000-2.124c-.001-.15.041-.196.191-.191.365.01.729.003 1.094.003.343 0 .687.007 1.03-.003.151-.005.193.041.192.191a93.99 93.99 0 000 2.124c.001.15-.041.193-.192.191zm-5.001 4.999c-.708-.007-1.416-.008-2.124 0-.153.002-.19-.046-.189-.193.007-.708.008-1.416 0-2.124-.002-.153.046-.194.193-.189.343.01.687.003 1.031.003.364 0 .729.008 1.093-.003.153-.005.191.046.189.193-.007.708-.007 1.416 0 2.124.002.153-.045.19-.193.189zm.193-5.212c.004.151-.024.217-.2.214a85.894 85.894 0 00-2.093-.002c-.151.002-.217-.023-.214-.2.011-.697.008-1.394.002-2.092-.002-.152.023-.217.199-.215.698.012 1.396.012 2.093 0 .191-.003.219.07.213.233-.011.344-.003.687-.003 1.031 0 .344-.006.687.003 1.031zM4.931 24.38c.354.01.708.003 1.062.003.354 0 .708.007 1.062-.003.152-.005.192.043.19.192-.007.708-.007 1.416 0 2.124.002.151-.043.192-.192.19-.708-.007-1.416-.008-2.124 0-.151.002-.191-.043-.19-.192.007-.708.008-1.416 0-2.124-.002-.151.043-.194.192-.19zm15 0c.708.007 1.416.008 2.124 0 .156-.002.191.049.188.195-.01.353-.004.708-.004 1.061 0 .344-.004.688.002 1.031.003.142-.006.224-.193.221a71.613 71.613 0 00-2.124-.002c-.155.002-.189-.05-.187-.195.007-.708.007-1.415-.001-2.123-.002-.156.05-.189.195-.188zm-.001-4.999c.708.007 1.416.008 2.124 0 .154-.002.19.047.189.193-.007.708-.008 1.416 0 2.124.002.154-.048.19-.194.189-.708-.007-1.416-.008-2.124 0-.154.002-.193-.047-.188-.194.01-.343.003-.687.003-1.03 0-.365.007-.73-.004-1.094-.004-.154.048-.19.194-.188z"/></svg>