<svg width="24" height="24" viewBox="0 0 24 24" fill="none" xmlns="http://www.w3.org/2000/svg"><path d="M.998 6.198c.25 3.46 1.98 7.61 5.59 11.217 3.609 3.608 7.768 5.338 11.23 5.58 1.189.088 4.38-2.31 4.96-4.04.425-1.254.293-2.097-.859-2.698l-2.714-1.46c-.66-.358-1.174-.095-1.746.683-1.247 1.715-1.856 2.053-3.389 1.202-1.43-.8-2.457-1.745-3.741-3.028-1.284-1.283-2.237-2.31-3.03-3.732-.858-1.532-.513-2.133 1.203-3.387.785-.572 1.042-1.085.683-1.745l-1.46-2.713C7.13.927 6.28.794 5.025 1.22 3.301 1.813.917 5.017.998 6.198zM4.666 1.74L7.6 6.872m9.536 9.532l5.135 2.933" stroke="#fff" stroke-linecap="round" stroke-linejoin="round"/></svg>