<svg width="40" height="40" viewBox="0 0 40 40" fill="none" xmlns="http://www.w3.org/2000/svg"><path d="M15.115 22.109v2.781a.31.31 0 01-.306.31.31.31 0 01-.306-.31v-2.78c0-.17.138-.31.306-.31a.31.31 0 01.306.31zm18.405-2.002c-1.763-4.894-3.598-9.87-1.69-14.617h-1.98c-1.835 4.453.146 9.053 1.908 13.285 2.273 5.564 4.552 11.128.073 16.772-.59.67-1.245 1.413-1.981 2.076l-.073.073c-.218.221-.437.368-.735.596-.073.074-.146.074-.219.074H8.261c-.291.368-.663.67-.954 1.038l-.59.596h24.159c7.64-6.234 5.142-13.064 2.644-19.886v-.007zM20.25 27.62c-.518 0-.7-.037-.7-.037a.31.31 0 00-.35.258.308.308 0 00.256.353c.021 0 .218.03.786.044h.037c.59 0 1.718-.17 2.2-.324a.312.312 0 00.196-.39.307.307 0 00-.386-.198c-.423.14-1.493.294-2.01.294h-.03zM7.307 14.845h1.908v-1.929H7.307v1.928zm1.908-9.943H7.307V6.83h1.908V4.902zm0 4.01H7.307v1.929h1.908V8.913zm6.475 12.27a.304.304 0 000 .39c.015.036.08.213.08.72 0 1.406-.029 2.974-.073 3.165l-.094.236a.306.306 0 00.174.397.298.298 0 00.393-.177l.088-.235c.095-.243.117-1.972.117-3.393 0-.618-.088-1-.255-1.148a.3.3 0 00-.43.037v.007zm-9.046-2.4C4 12.541 1.43 6.234 9.07 0h24.16c-7.27 6.307-4.625 12.688-1.982 18.995a80.949 80.949 0 011.472 3.783c1.245 3.562 1.762 7.05-.146 10.54 0 .073-.073.22-.146.294a.56.56 0 01-.145.294c-.073.074-.146.221-.219.295-.073.073-.146.22-.218.294-.073.074-.146.22-.219.294-.073.074-.146.221-.218.295-.073.073-.146.22-.219.294-.073.074-.146.22-.218.294-.146.074-.219.221-.292.295l-.291.294-.291.295-.292.294-.291.294c-.146.074-.219.221-.364.295-.146.073-.219.22-.364.294H4.59c7.269-6.307 4.625-12.688 2.054-18.995v.044zm11.15 2.443v-.353c0-.051-.035-.228-.08-.442-.778.067-2.534.361-2.912.523-.401.177-.649.243-.729.427-.08.184-.08 3.51-.08 3.71 0 .198.022.367.364.912.343.545 1.202 1.177 1.887 1.398.305.096.757.184 1.172.25.16-.33.335-.743.379-1.074.05-.398.05-2.193 0-5.343v-.008zm7.874.317c-.422-.184-3.314-1.112-4.872-1.178a21.042 21.042 0 00-2.477.022c.044.273.073.486.073.486v.346c.03 2.06.066 4.857-.007 5.431-.044.346-.197.744-.35 1.082.226.03.386.044.408.044l-.022.64c-.109.126-.174.347-.174.597 0 .39.174.648.313.706v.015s.058.28.306.464c0 0-.008.051 0 .243.014.184.284.485.437.728.145.243.116.648.094 1.038-.022.39.146.412.146.412h3.838s-.094-.618-.218-.957c-.124-.338-.4-1.398-.343-2.553a3.034 3.034 0 01.794-1.877c.729-.324 1.035-.515 1.676-.979.64-.471.604-.721.699-1.067.007-.037 0-2.296 0-2.738 0-.441.095-.714-.335-.898l.014-.007zM10.096 5.27c0 .147.146.294.292.294h4.697c.146 0 .292-.147.292-.294 0-.148-.146-.295-.292-.295h-4.697c-.146 0-.292.147-.292.295zm0 1.11c0 .148.146.295.292.295H21.4c.146 0 .292-.147.292-.294s-.146-.295-.292-.295H10.388c-.146 0-.292.148-.292.295zm0 2.893c0 .147.146.295.292.295h4.697c.146 0 .292-.148.292-.295s-.146-.294-.292-.294h-4.697c-.146 0-.292.147-.292.294zm0 1.111c0 .148.146.295.292.295H21.4c.146 0 .292-.147.292-.295 0-.147-.146-.294-.292-.294H10.388c-.146 0-.292.147-.292.294zm0 2.82c0 .146.146.294.292.294h4.697c.146 0 .292-.147.292-.295 0-.147-.146-.294-.292-.294h-4.697c-.146 0-.292.147-.292.294zm0 1.184c0 .147.146.295.292.295H21.4c.146 0 .292-.148.292-.295s-.146-.294-.292-.294H10.388c-.146 0-.292.147-.292.294zM6.716 4.6v2.524c0 .147.147.295.292.295h2.498c.146 0 .292-.148.292-.295V4.6c0-.147-.146-.295-.292-.295H7.008c-.218 0-.364.148-.291.295zm0 4.004v2.524c0 .147.147.294.292.294h2.498c.146 0 .292-.147.292-.294V8.604c0-.148-.146-.295-.292-.295H7.008c-.218 0-.364.147-.291.295zm2.79 6.83c.146 0 .292-.148.292-.295v-2.524c0-.148-.146-.295-.292-.295H7.008c-.218 0-.364.147-.291.294v2.525c0 .147.146.294.291.294h2.498z" fill="#fff"/></svg>