<svg width="40" height="40" viewBox="0 0 40 40" fill="none" xmlns="http://www.w3.org/2000/svg"><path d="M9.348 25.302c.13-.96.13-5.33 0-12.98 0-.48-.01-.79-.01-.86 0-.13-.09-.56-.19-1.08-1.92.17-6.219.87-7.148 1.27-.98.42-1.6.59-1.8 1.04-.2.45-.2 8.54-.2 9.01 0 .47.06.9.9 2.22.84 1.32 2.949 2.86 4.629 3.4.74.23 1.85.44 2.879.6.39-.8.82-1.81.93-2.62h.01zm-6.569-4.05c0 .41-.34.75-.75.75s-.75-.34-.75-.75v-6.76c0-.41.34-.75.75-.75s.75.34.75.75v6.76zm2.59 2.48c-.12.29-.4.47-.7.47-.09 0-.18-.02-.28-.05a.753.753 0 01-.42-.97l.22-.57c.1-.45.17-4.28.17-7.69 0-1.22-.16-1.66-.2-1.75a.767.767 0 010-.96c.27-.32.74-.36 1.06-.09.42.35.63 1.29.63 2.79 0 3.44-.05 7.66-.28 8.24l-.23.57.03.01zm18.315 3.17c.18-.08.35-.16.52-.23-1.83-2.16-3.67-4.33-3.79-4.47-.549-.68-.869-1.36-.869-2.83v-8.8c-1.02-.19-1.98-.32-2.79-.36-2.948-.13-4.648-.04-6.078.06.11.67.18 1.17.18 1.19 0 .07 0 .37.01.84.08 5 .17 11.81-.02 13.2-.11.84-.48 1.8-.86 2.63.56.07.95.11 1.01.11l-.06 1.55c-.26.3-.43.84-.43 1.45 0 .95.43 1.58.76 1.72v.03s.15.67.76 1.13c0 0-.02.13 0 .58.02.45.7 1.18 1.07 1.77.36.59.28 1.57.22 2.53-.06.95.36 1 .36 1h9.427s-.22-1.51-.53-2.32c-.31-.81-.98-3.4-.84-6.2.14-2.81 1.95-4.56 1.95-4.56v-.02zm-2.82 1.7c-1.189.39-3.968.79-5.408.79h-.1c-1.38-.02-1.88-.09-1.93-.1a.747.747 0 01-.62-.86c.07-.41.45-.69.86-.62 0 0 .45.06 1.71.08 1.34.02 4.05-.4 5.019-.72.4-.13.82.09.95.48s-.09.82-.48.95zm9.159 1.66a4.09 4.09 0 01-.66-.63c-.91-1.03-7.159-8.39-7.398-8.69-.24-.3-.43-.54-.43-1.57V1.032c0-.48.05-1.73 1.19-.52.86.92 4.998 4.78 6.978 6.62.2.19.32.45.32.73v22.4zM40 1.032v18.34c0 1.03-.18 1.27-.43 1.57-.24.3-6.488 7.66-7.398 8.69-.25.29-.47.48-.66.63V7.872c0-.28.12-.54.32-.73 1.98-1.84 6.118-5.7 6.978-6.62 1.14-1.22 1.19.03 1.19.52v-.01z" fill="#fff"/></svg>