<svg width="22" height="22" viewBox="0 0 22 22" fill="none" xmlns="http://www.w3.org/2000/svg"><path d="M8.143 3.571h6.285m5.143 0h1.143v17.143H1.286V3.571h1.143" stroke="#fff" stroke-linecap="round" stroke-linejoin="round"/><path d="M5.857 1.286H4.143v4h1.714v-4zm12 0h-1.714v4h1.714v-4zm2.857 6.857H1.286M7 11H4.143v2.286H7V11zm5.714 0H9.857v2.286h2.857V11zm5.143 0H15v2.286h2.857V11zM7 15.571H4.143v2.286H7v-2.286zm5.714 0H9.857v2.286h2.857v-2.286zm5.143 0H15v2.286h2.857v-2.286z" stroke="#fff" stroke-linecap="round" stroke-linejoin="round"/></svg>