<svg width="40" height="40" viewBox="0 0 40 40" fill="none" xmlns="http://www.w3.org/2000/svg"><path d="M29.34 29.34l-4.104-4.67a1.718 1.718 0 01-.189-1.934c.142-.236.236-.472.33-.708a1.679 1.679 0 011.51-1.132L40 20l-13.113-.896c-.66 0-1.274-.472-1.463-1.085a3.646 3.646 0 00-.33-.755 1.719 1.719 0 01.236-1.934l4.104-4.717-4.811 4.198a1.644 1.644 0 01-1.887.236l-.708-.283a1.68 1.68 0 01-1.132-1.51L20 0l-.896 13.255c0 .66-.472 1.273-1.132 1.51l-.708.282c-.613.33-1.368.189-1.887-.236l-4.811-4.198 4.104 4.717c.472.52.566 1.32.236 1.934-.142.236-.236.519-.33.755a1.695 1.695 0 01-1.463 1.085L0 20l13.113.896a1.75 1.75 0 011.51 1.132c.094.236.188.472.33.708.33.66.283 1.415-.189 1.934l-4.104 4.67 4.764-4.151a1.644 1.644 0 011.887-.236l.708.283a1.68 1.68 0 011.132 1.51L20.047 40l.896-13.255a1.75 1.75 0 011.133-1.51l.707-.282a1.822 1.822 0 011.887.236l4.764 4.15h-.094z" fill="#fff"/></svg>