<svg width="10" height="42" viewBox="0 0 10 42" fill="none" xmlns="http://www.w3.org/2000/svg"><path opacity=".3" d="M5.663 9.629L9.943.817C10.21.283 9.478-.218 8.879.099L5.38 1.95a.815.815 0 01-.783 0L1.117.1C.532-.218-.2.283.05.817l4.28 8.812a.784.784 0 001.333 0z" fill="url(#paint0_linear_9_5444)"/><path opacity=".6" d="M5.663 25.629l4.28-8.812c.267-.535-.466-1.035-1.065-.718L5.38 17.95a.815.815 0 01-.783 0l-3.48-1.85c-.584-.317-1.317.183-1.067.718l4.28 8.812a.784.784 0 001.333 0z" fill="url(#paint1_linear_9_5444)"/><path d="M5.663 41.629l4.28-8.812c.267-.535-.466-1.035-1.065-.718L5.38 33.952a.815.815 0 01-.783 0l-3.48-1.853c-.584-.317-1.317.184-1.067.718l4.28 8.812a.784.784 0 001.333 0z" fill="url(#paint2_linear_9_5444)"/><defs><linearGradient id="paint0_linear_9_5444" x1="0" y1="5" x2="10" y2="5" gradientUnits="userSpaceOnUse"><stop stop-color="#DC3825"/><stop offset="1" stop-color="#FFA800"/></linearGradient><linearGradient id="paint1_linear_9_5444" x1="0" y1="21" x2="10" y2="21" gradientUnits="userSpaceOnUse"><stop stop-color="#DC3825"/><stop offset="1" stop-color="#FFA800"/></linearGradient><linearGradient id="paint2_linear_9_5444" x1="0" y1="37" x2="10" y2="37" gradientUnits="userSpaceOnUse"><stop stop-color="#DC3825"/><stop offset="1" stop-color="#FFA800"/></linearGradient></defs></svg>