<svg width="80" height="80" viewBox="0 0 80 80" fill="none" xmlns="http://www.w3.org/2000/svg"><path d="M41.377 2.76h-2.76V0h2.76v2.76zM79.993 0v19.311H60.682V0h19.311zm-2.76 2.76h-13.79v13.791h13.79V2.76zm-41.37 2.761v-2.76h-2.761v2.76h2.76zM5.514 5.515v8.281h8.275v-8.28H5.515zm38.616 5.521h2.76v-2.76h-2.76v2.76zm30.348 0V5.515h-8.276v8.281h8.276v-2.76zM19.31 19.311H0V0h19.311v19.311zm-16.55-2.76h13.79V2.76H2.76v13.79zm22.065 0v-2.754h2.76v-2.76h2.755v2.76h5.515v-2.76h2.76V8.274h-2.76v2.761H30.34V2.761h2.76V0h-2.76v2.76h-5.515v2.761h2.754v2.754h-2.754v5.515h-2.76v5.521h2.76v-2.76zM2.761 22.066H0v2.76h2.76v-2.76zm8.275 2.76v-2.76h-2.76v2.76h2.76zm44.131-2.76v2.76h-2.76v-2.754h-5.515v5.515h-2.76v2.76h-5.516v2.755h-2.76v-5.515H30.34v2.754h2.754v2.76h2.76v2.761h2.761v-2.76h5.515V30.34h2.76v2.76h2.761v2.761h-2.76v2.761H41.37v2.754h-5.514v-2.754h-2.754v2.754H30.34v-2.754h-5.52v2.754h-2.755v2.76h-2.76v-2.76H16.55v2.76H8.275v-2.76h2.755v-2.754H8.274v-2.76h2.755v-8.276h2.76v2.754h2.754v2.76H13.79v5.515h8.276v-5.514H19.31v2.76h-2.76v-2.76h2.754v-2.754H16.55v-2.761h2.76v2.754h5.515v-5.515h-2.76v-2.76h5.514V16.55h2.76v2.76h2.762v-2.76h2.76v2.76h2.754v2.761H27.58v2.754h.007v2.76h2.754v-2.76h8.275v2.76h2.761v-2.76h2.754v-2.754h-2.754v2.754h-2.76v-2.76h2.76V19.31h2.754v-2.76h-2.754v2.76h-2.76v-2.76h2.76v-2.76h8.275V8.275h2.755V5.52h-2.755v2.754h-2.76V5.521h-2.76v2.754h-5.516v-2.76h5.515V2.76h2.76V0h11.037v2.76h-5.521v2.755h5.514v2.76h-5.508v5.515h2.754v2.76h2.76v2.761h-2.76v-2.76h-2.754v5.515h2.754zM30.341 35.861v2.754h2.76v-2.754h-2.76zm-2.76-2.76h-2.755v2.76h2.754v-2.76zm22.07-16.551h2.755v-2.754h-2.755v2.754zm0 2.76v-2.76h-2.76v2.76h2.76zm16.551 2.755h-2.76v2.76h2.76v-2.76zm-49.652 2.76h2.754v-2.76H13.79v5.52h2.76v-2.76zm55.167 0h-2.76v5.515h-5.515v-5.515h-2.755v-2.76h-2.76v2.76h-2.76v2.76h2.76v2.755h-2.76v-2.754h-2.761v2.76h2.76v2.755h-2.76v5.514h-5.515v2.761h-5.515v2.76h11.036v-2.76h-.006v-2.754h2.76v2.754h5.515v-5.515h2.76v-2.76h-5.514v-2.754h5.515v2.754h5.514v-2.754h2.761v2.754h2.76v2.76h5.515v-2.76h-2.76v-5.514h-5.515v-2.76zm5.515 2.76h2.76v-2.76h-2.76v2.76zm-8.276 8.276h2.761v-2.76h-2.76v2.76zm-2.754 2.761v-2.76h-2.76v2.76h2.76zm2.754 2.754v2.76h2.761v-2.76h2.76v2.76h2.761v-2.76h2.754v-2.76H68.957v2.76zm-63.442 0h2.754v-2.76H2.76v-2.755h2.754v-8.275h-2.76v2.754H0v8.282h2.754v2.754H0v2.76h5.515v-2.76zm22.065 2.76h2.76v-2.76h-2.76v2.76zm35.863 0v-2.76h-2.761v2.76h2.76zm-30.341 0v5.515h5.514v5.522h2.761v2.754h2.754v5.521h2.76v-8.275h2.761v-5.522h-.006v-2.754h.006v-2.76h-2.76v2.754h-2.754v-2.754h-2.761v2.76h2.754v2.754h2.76v5.515h-5.514v-8.274h-2.76v-2.754h-5.515zm22.065 0h-2.76v2.761h2.76v-2.76zm22.072 2.755h2.754v8.282H74.48v2.754h5.514v2.76H77.24v2.761h-2.76v2.754h-5.522v2.76h8.276v-2.76h2.76v2.76H77.24v2.755h2.754v2.76H77.24V80h-2.76v-5.521h2.754v-2.754H74.48v2.754h-5.515v2.76h-.007V80h-8.275v-5.521h2.76v2.76h2.761v-8.275h-2.76v2.76h-2.761v-2.76h-5.515v-2.76h-5.515v-5.515h2.755v-5.522h2.76v-2.754h2.76v2.754h2.755v-5.515h-2.754v-5.514h2.76v2.754h2.755v-2.754h2.76v5.514h-.006v2.761h-2.754v2.754h5.514v2.76h.007v5.516h5.515v-2.755h-2.761v-5.52h2.76v-5.516h2.755v-2.754H74.48v-2.76h2.76v2.754zm-22.072 16.55v-2.754h-2.754v2.755h2.754zm11.036 2.761v-8.275H57.92v2.76h.007v5.515h8.275zM8.275 46.898h2.755v-2.76H2.754v2.76h2.76v8.276h2.761v2.754h5.515v-2.754h2.76v-2.76H8.276v-5.516zm63.443-.006h-2.76v2.76h2.76v-2.76zm-68.957 2.76H0v2.761h2.76v-2.76zm13.79 0v2.761h5.515v-5.515h5.514v-2.76h-5.514v2.754H19.31v-2.754h-2.76v2.76h2.754v2.754H16.55zm13.79 5.522v-5.522h-2.76v2.761h-5.515v2.76h8.275zm2.76-.007v2.76h2.761v-5.514h-2.76v2.754zm-30.34 0H0v2.76h2.76v-2.76zm13.79 2.76h2.76v-2.76h-2.76v2.76zm5.515 2.761h2.76v-2.76h-2.76v2.76zm16.55 0h2.761v-2.76h-2.76v2.76zm-19.305 2.755V80H0V60.688h19.311v2.755zm-2.76 2.76V63.45H2.76v13.79h13.79V66.203zm44.13-2.754h2.762v-2.76h-2.761v2.76zm-38.615-.006v2.76h2.76v-2.76h-2.76zm19.311 0h-2.76v2.76h2.76v-2.76zm-35.862 5.52v5.516h8.275v-8.276H5.515v2.76zm30.34 0h2.761v2.762h-2.76v2.754h.006v2.76h-2.76v-2.76H27.58v-2.754h-5.514v-2.761h2.76v-2.76h2.754v-8.276h2.76v5.515h2.762v-2.755h2.76v2.761h-.006v5.514zm-8.268 0h2.754v-2.76h-2.754v2.76zm5.515 0H30.34v2.755h2.76v-2.754zm19.305 0h2.76v2.762h-2.754v2.754h5.508v2.76h.007V80h-2.76v-2.76h-2.761V80h-5.515v-2.76h-2.754V80h-2.761v-2.76h2.754v-5.522h2.76v-2.754h-2.76v-2.76h5.515v2.76h.006v2.754h2.755v-2.754zm-2.755 5.516v-2.754h-2.76v2.754h2.76zM22.065 80h11.037v-2.76H22.066V80z" fill="#044E58"/></svg>