<svg width="80" height="80" viewBox="0 0 80 80" fill="none" xmlns="http://www.w3.org/2000/svg"><mask id="a" style="mask-type:luminance" maskUnits="userSpaceOnUse" x="0" y="0" width="80" height="80"><path d="M2.759 24.828H0v2.758h2.759v-2.758zm0 2.758H0v2.759h2.759v-2.759zm0 5.517H0v2.759h2.759v-2.759zm0 5.517H0v2.76h2.759v-2.76zm0 8.277H0v2.758h2.759v-2.758zm0 2.758H0v2.759h2.759v-2.759zm0 2.759H0v2.758h2.759v-2.758z" fill="#fff"/><path d="M2.759 55.172H0v2.759h2.759v-2.759zm2.758-33.103H2.76v2.759h2.758v-2.759zm0 2.759H2.76v2.758h2.758v-2.758zm0 2.758H2.76v2.759h2.758v-2.759zm0 2.759H2.76v2.758h2.758v-2.758zm0 5.517H2.76v2.759h2.758v-2.759z" fill="#fff"/><path d="M5.517 38.62H2.76v2.76h2.758v-2.76z" fill="#fff"/><path d="M5.517 41.38H2.76v2.758h2.758v-2.759z" fill="#fff"/><path d="M5.517 44.138H2.76v2.759h2.758v-2.76zm0 2.759H2.76v2.758h2.758v-2.758zm0 5.517H2.76v2.758h2.758v-2.758zm2.759-27.586H5.517v2.758h2.759v-2.758zm0 13.792H5.517v2.76h2.759v-2.76z" fill="#fff"/><path d="M8.276 41.38H5.517v2.758h2.759v-2.759zm0 13.792H5.517v2.759h2.759v-2.759zm2.758-33.103H8.276v2.759h2.758v-2.759zm0 2.759H8.276v2.758h2.758v-2.758zm0 2.758H8.276v2.759h2.758v-2.759zm0 2.759H8.276v2.758h2.758v-2.758zm0 16.552H8.276v2.758h2.758v-2.758zm0 2.758H8.276v2.759h2.758v-2.759zm0 2.759H8.276v2.758h2.758v-2.758zm2.759-30.345h-2.759v2.759h2.759v-2.759zm0 2.759h-2.759v2.758h2.759v-2.758zm0 13.792h-2.759v2.76h2.759v-2.76z" fill="#fff"/><path d="M13.793 41.38h-2.759v2.758h2.759v-2.759zm0 8.275h-2.759v2.759h2.759v-2.759zm0 2.759h-2.759v2.758h2.759v-2.758zm2.759-27.586h-2.759v2.758h2.759v-2.758zm0 5.517h-2.759v2.758h2.759v-2.758zm0 13.793h-2.759v2.759h2.759v-2.76zm0 11.034h-2.759v2.759h2.759v-2.759zm2.758-33.103h-2.758v2.759h2.758v-2.759zm0 5.517h-2.758v2.759h2.758v-2.759zm0 5.517h-2.758v2.759h2.758v-2.759zm0 5.517h-2.758v2.76h2.758v-2.76zm0 5.518h-2.758v2.759h2.758v-2.76zm0 5.517h-2.758v2.759h2.758v-2.759zm0 5.517h-2.758v2.759h2.758v-2.759zm2.759-33.103H19.31v2.759h2.759v-2.759zm0 2.759H19.31v2.758h2.759v-2.758zm0 8.275H19.31v2.759h2.759v-2.759zm0 2.759H19.31v2.759h2.759v-2.759zm0 5.518H19.31v2.758h2.759v-2.759zm0 5.517H19.31v2.758h2.759v-2.758zm0 2.758H19.31v2.759h2.759v-2.759zm2.759-46.896h-2.759v2.758h2.759V2.76zm0 5.517h-2.759v2.758h2.759V8.276zm0 2.758h-2.759v2.759h2.759v-2.759z" fill="#fff"/><path d="M24.828 13.793h-2.759v2.759h2.759v-2.759zm0 2.759h-2.759v2.758h2.759v-2.758zm0 5.517h-2.759v2.759h2.759v-2.759zm0 2.759h-2.759v2.758h2.759v-2.758zm0 2.758h-2.759v2.759h2.759v-2.759zm0 2.759h-2.759v2.758h2.759v-2.758zm0 2.758h-2.759v2.759h2.759v-2.759zm0 2.759h-2.759v2.759h2.759v-2.759z" fill="#fff"/><path d="M24.828 38.62h-2.759v2.76h2.759v-2.76z" fill="#fff"/><path d="M24.828 41.38h-2.759v2.758h2.759v-2.759z" fill="#fff"/><path d="M24.828 44.138h-2.759v2.759h2.759v-2.76zm0 8.276h-2.759v2.758h2.759v-2.758zm0 5.517h-2.759v2.759h2.759v-2.76zm0 2.759h-2.759v2.758h2.759V60.69zm0 5.517h-2.759v2.759h2.759v-2.76zm0 2.759h-2.759v2.758h2.759v-2.758zm0 5.517h-2.759v2.758h2.759v-2.758zM27.586 0h-2.758v2.759h2.758V0zm0 8.276h-2.758v2.758h2.758V8.276zm0 2.758h-2.758v2.759h2.758v-2.759zm0 8.276h-2.758v2.759h2.758V19.31zm0 2.759h-2.758v2.759h2.758v-2.759zm0 5.517h-2.758v2.759h2.758v-2.759zm0 8.276h-2.758v2.759h2.758v-2.759zm0 5.518h-2.758v2.758h2.758v-2.759zm0 5.517h-2.758v2.758h2.758v-2.758zm0 2.758h-2.758v2.759h2.758v-2.759zm0 2.759h-2.758v2.758h2.758v-2.758z" fill="#fff"/><path d="M27.586 55.172h-2.758v2.759h2.758v-2.759zm0 11.035h-2.758v2.759h2.758v-2.76zm0 5.517h-2.758v2.759h2.758v-2.759zm0 2.759h-2.758v2.758h2.758v-2.758zM30.345 0h-2.759v2.759h2.759V0zm0 2.759h-2.759v2.758h2.759V2.76zm0 2.758h-2.759v2.759h2.759V5.517zm0 2.759h-2.759v2.758h2.759V8.276zm0 8.276h-2.759v2.758h2.759v-2.758zm0 8.276h-2.759v2.758h2.759v-2.758zm0 8.275h-2.759v2.759h2.759v-2.759zm0 2.759h-2.759v2.759h2.759v-2.759zm0 8.276h-2.759v2.759h2.759v-2.76zm0 13.793h-2.759v2.759h2.759v-2.76zm0 2.759h-2.759v2.758h2.759V60.69zm2.758-57.931h-2.758v2.758h2.758V2.76zm0 2.758h-2.758v2.759h2.758V5.517zm0 2.759h-2.758v2.758h2.758V8.276zm0 5.517h-2.758v2.759h2.758v-2.759zm0 8.276h-2.758v2.759h2.758v-2.759zm0 2.759h-2.758v2.758h2.758v-2.758zm0 2.758h-2.758v2.759h2.758v-2.759zm0 2.759h-2.758v2.758h2.758v-2.758zm0 2.758h-2.758v2.759h2.758v-2.759zm0 5.517h-2.758v2.76h2.758v-2.76z" fill="#fff"/><path d="M33.103 41.38h-2.758v2.758h2.758v-2.759zm0 5.517h-2.758v2.758h2.758v-2.758zm0 2.758h-2.758v2.759h2.758v-2.759zm0 5.517h-2.758v2.759h2.758v-2.759zm0 8.276h-2.758v2.759h2.758v-2.759z" fill="#fff"/><path d="M33.103 66.207h-2.758v2.759h2.758v-2.76zm0 2.759h-2.758v2.758h2.758v-2.758zm0 8.275h-2.758V80h2.758v-2.759zM35.862 0h-2.759v2.759h2.759V0zm0 2.759h-2.759v2.758h2.759V2.76zm0 5.517h-2.759v2.758h2.759V8.276zm0 8.276h-2.759v2.758h2.759v-2.758zm0 5.517h-2.759v2.759h2.759v-2.759zm0 5.517h-2.759v2.759h2.759v-2.759zm0 16.552h-2.759v2.759h2.759v-2.76zm0 13.793h-2.759v2.759h2.759v-2.76zm0 2.759h-2.759v2.758h2.759V60.69zm0 8.276h-2.759v2.758h2.759v-2.758zm0 5.517h-2.759v2.758h2.759v-2.758z" fill="#fff"/><path d="M38.62 0h-2.758v2.759h2.759V0zm0 8.276h-2.758v2.758h2.759V8.276zm0 2.758h-2.758v2.759h2.759v-2.759zm0 8.276h-2.758v2.759h2.759V19.31zm0 2.759h-2.758v2.759h2.759v-2.759zm0 8.276h-2.758v2.758h2.759v-2.758zm0 2.758h-2.758v2.759h2.759v-2.759zm0 2.759h-2.758v2.759h2.759v-2.759z" fill="#fff"/><path d="M38.62 38.62h-2.758v2.76h2.759v-2.76z" fill="#fff"/><path d="M38.62 41.38h-2.758v2.758h2.759v-2.759z" fill="#fff"/><path d="M38.62 44.138h-2.758v2.759h2.759v-2.76zm0 5.517h-2.758v2.759h2.759v-2.759zm0 11.035h-2.758v2.758h2.759V60.69zm0 5.517h-2.758v2.759h2.759v-2.76zm0 5.517h-2.758v2.759h2.759v-2.759zm0 5.517h-2.758V80h2.759v-2.759zm2.76-71.724h-2.76v2.759h2.76V5.517zm0 5.517h-2.76v2.759h2.76v-2.759zm0 5.518h-2.76v2.758h2.76v-2.758zm0 5.517h-2.76v2.759h2.76v-2.759z" fill="#fff"/><path d="M41.38 44.138h-2.76v2.759h2.76v-2.76zm0 5.517h-2.76v2.759h2.76v-2.759zm0 2.759h-2.76v2.758h2.76v-2.758z" fill="#fff"/><path d="M41.38 55.172h-2.76v2.759h2.76v-2.759zm0 8.276h-2.76v2.759h2.76v-2.759zm0 5.518h-2.76v2.758h2.76v-2.758zm0 8.275h-2.76V80h2.76v-2.759zm2.758-74.482h-2.759v2.758h2.759V2.76zm0 2.758h-2.759v2.759h2.759V5.517zm0 5.517h-2.759v2.759h2.759v-2.759zm0 11.035h-2.759v2.759h2.759v-2.759zm0 5.517h-2.759v2.759h2.759v-2.759zm0 11.034h-2.759v2.76h2.759v-2.76z" fill="#fff"/><path d="M44.138 41.38h-2.759v2.758h2.759v-2.759z" fill="#fff"/><path d="M44.138 44.138h-2.759v2.759h2.759v-2.76zm0 8.276h-2.759v2.758h2.759v-2.758zm0 13.793h-2.759v2.759h2.759v-2.76zm0 2.759h-2.759v2.758h2.759v-2.758zm0 2.758h-2.759v2.759h2.759v-2.759zm0 2.759h-2.759v2.758h2.759v-2.758zm0 2.758h-2.759V80h2.759v-2.759zm2.759-74.482h-2.76v2.758h2.76V2.76zm0 2.758h-2.76v2.759h2.76V5.517zm0 5.517h-2.76v2.759h2.76v-2.759zm0 5.518h-2.76v2.758h2.76v-2.758zm0 2.758h-2.76v2.759h2.76V19.31zm0 5.518h-2.76v2.758h2.76v-2.758zm0 5.517h-2.76v2.758h2.76v-2.758zm0 2.758h-2.76v2.759h2.76v-2.759zm0 2.759h-2.76v2.759h2.76v-2.759z" fill="#fff"/><path d="M46.897 38.62h-2.76v2.76h2.76v-2.76z" fill="#fff"/><path d="M46.897 41.38h-2.76v2.758h2.76v-2.759zm0 5.517h-2.76v2.758h2.76v-2.758zm0 2.758h-2.76v2.759h2.76v-2.759zm0 5.517h-2.76v2.759h2.76v-2.759zm0 13.794h-2.76v2.758h2.76v-2.758zm0 5.517h-2.76v2.758h2.76v-2.758zM49.655 0h-2.758v2.759h2.758V0zm0 11.034h-2.758v2.759h2.758v-2.759z" fill="#fff"/><path d="M49.655 13.793h-2.758v2.759h2.758v-2.759zm0 8.276h-2.758v2.759h2.758v-2.759zm0 8.276h-2.758v2.758h2.758v-2.758zm0 8.275h-2.758v2.76h2.758v-2.76zm0 8.277h-2.758v2.758h2.758v-2.758zm0 5.517h-2.758v2.758h2.758v-2.758z" fill="#fff"/><path d="M49.655 55.172h-2.758v2.759h2.758v-2.759zm0 11.035h-2.758v2.759h2.758v-2.76zm0 2.759h-2.758v2.758h2.758v-2.758zm0 2.758h-2.758v2.759h2.758v-2.759zM52.414 0h-2.759v2.759h2.759V0zm0 2.759h-2.759v2.758h2.759V2.76zm0 11.034h-2.759v2.759h2.759v-2.759zm0 2.759h-2.759v2.758h2.759v-2.758zm0 2.758h-2.759v2.759h2.759V19.31zm0 2.759h-2.759v2.759h2.759v-2.759zm0 2.759h-2.759v2.758h2.759v-2.758zm0 2.758h-2.759v2.759h2.759v-2.759zm0 2.759h-2.759v2.758h2.759v-2.758zm0 13.793h-2.759v2.759h2.759v-2.76zm0 8.276h-2.759v2.758h2.759v-2.758zm0 16.552h-2.759v2.758h2.759v-2.758zm0 2.758h-2.759v2.759h2.759v-2.759zm0 5.517h-2.759V80h2.759v-2.759z" fill="#fff"/><path d="M55.172 0h-2.758v2.759h2.758V0zm0 2.759h-2.758v2.758h2.758V2.76zm0 5.517h-2.758v2.758h2.758V8.276zm0 5.517h-2.758v2.759h2.758v-2.759zm0 5.517h-2.758v2.759h2.758V19.31zm0 5.518h-2.758v2.758h2.758v-2.758zm0 2.758h-2.758v2.759h2.758v-2.759zm0 5.517h-2.758v2.759h2.758v-2.759zm0 2.759h-2.758v2.759h2.758v-2.759z" fill="#fff"/><path d="M55.172 38.62h-2.758v2.76h2.758v-2.76z" fill="#fff"/><path d="M55.172 41.38h-2.758v2.758h2.758v-2.759z" fill="#fff"/><path d="M55.172 44.138h-2.758v2.759h2.758v-2.76zm0 13.793h-2.758v2.759h2.758v-2.76zm0 2.759h-2.758v2.758h2.758V60.69zm0 5.517h-2.758v2.759h2.758v-2.76zm0 5.517h-2.758v2.759h2.758v-2.759zm0 2.759h-2.758v2.758h2.758v-2.758zm0 2.758h-2.758V80h2.758v-2.759zM57.931 0h-2.759v2.759h2.759V0zm0 2.759h-2.759v2.758h2.759V2.76zm0 2.758h-2.759v2.759h2.759V5.517zm0 2.759h-2.759v2.758h2.759V8.276zm0 2.758h-2.759v2.759h2.759v-2.759zm0 5.518h-2.759v2.758h2.759v-2.758zm0 2.758h-2.759v2.759h2.759V19.31zm0 2.759h-2.759v2.759h2.759v-2.759zm0 2.759h-2.759v2.758h2.759v-2.758zm0 13.792h-2.759v2.76h2.759v-2.76zm0 8.277h-2.759v2.758h2.759v-2.758zm0 8.275h-2.759v2.759h2.759v-2.759z" fill="#fff"/><path d="M57.931 57.931h-2.759v2.759h2.759v-2.76zm0 2.759h-2.759v2.758h2.759V60.69z" fill="#fff"/><path d="M57.931 63.448h-2.759v2.759h2.759v-2.759z" fill="#fff"/><path d="M57.931 66.207h-2.759v2.759h2.759v-2.76zm0 2.759h-2.759v2.758h2.759v-2.758zm0 2.758h-2.759v2.759h2.759v-2.759zm0 2.759h-2.759v2.758h2.759v-2.758zm2.759-52.414h-2.76v2.759h2.759v-2.759zm0 5.517h-2.76v2.759h2.759v-2.759zm0 8.276h-2.76v2.759h2.759v-2.759z" fill="#fff"/><path d="M60.69 38.62h-2.76v2.76h2.759v-2.76z" fill="#fff"/><path d="M60.69 41.38h-2.76v2.758h2.759v-2.759zm0 5.517h-2.76v2.758h2.759v-2.758zm0 2.758h-2.76v2.759h2.759v-2.759zm0 2.759h-2.76v2.758h2.759v-2.758z" fill="#fff"/><path d="M60.69 55.172h-2.76v2.759h2.759v-2.759zm0 11.035h-2.76v2.759h2.759v-2.76zm0 2.759h-2.76v2.758h2.759v-2.758zm0 2.758h-2.76v2.759h2.759v-2.759zm2.758-46.896H60.69v2.758h2.758v-2.758zm0 11.034H60.69v2.759h2.758v-2.759z" fill="#fff"/><path d="M63.448 38.62H60.69v2.76h2.758v-2.76z" fill="#fff"/><path d="M63.448 41.38H60.69v2.758h2.758v-2.759zm0 11.034H60.69v2.758h2.758v-2.758z" fill="#fff"/><path d="M63.448 55.172H60.69v2.759h2.758v-2.759zm0 5.518H60.69v2.758h2.758V60.69zm0 5.517H60.69v2.759h2.758v-2.76zm0 5.517H60.69v2.759h2.758v-2.759zm2.759-49.655h-2.759v2.759h2.759v-2.759zm0 2.759h-2.759v2.758h2.759v-2.758zm0 5.517h-2.759v2.758h2.759v-2.758zm0 2.758h-2.759v2.759h2.759v-2.759zm0 5.517h-2.759v2.76h2.759v-2.76z" fill="#fff"/><path d="M66.207 41.38h-2.759v2.758h2.759v-2.759zm0 8.275h-2.759v2.759h2.759v-2.759zm0 2.759h-2.759v2.758h2.759v-2.758z" fill="#fff"/><path d="M66.207 55.172h-2.759v2.759h2.759v-2.759zm0 11.035h-2.759v2.759h2.759v-2.76zm0 2.759h-2.759v2.758h2.759v-2.758zm2.759-46.897h-2.76v2.759h2.76v-2.759zm0 2.759h-2.76v2.758h2.76v-2.758zm0 2.758h-2.76v2.759h2.76v-2.759zm0 2.759h-2.76v2.758h2.76v-2.758zm0 16.552h-2.76v2.758h2.76v-2.758z" fill="#fff"/><path d="M68.966 52.414h-2.76v2.758h2.76v-2.758z" fill="#fff"/><path d="M68.966 55.172h-2.76v2.759h2.76v-2.759z" fill="#fff"/><path d="M68.966 57.931h-2.76v2.759h2.76v-2.76zm0 2.759h-2.76v2.758h2.76V60.69z" fill="#fff"/><path d="M68.966 63.448h-2.76v2.759h2.76v-2.759z" fill="#fff"/><path d="M68.966 66.207h-2.76v2.759h2.76v-2.76zm0 8.276h-2.76v2.758h2.76v-2.758zm2.758-52.414h-2.758v2.759h2.758v-2.759zm0 2.759h-2.758v2.758h2.758v-2.758zm0 2.758h-2.758v2.759h2.758v-2.759zm0 5.517h-2.758v2.759h2.758v-2.759zm0 13.794h-2.758v2.758h2.758v-2.758zm0 2.758h-2.758v2.759h2.758v-2.759zm0 13.793h-2.758v2.759h2.758v-2.759zm0 5.518h-2.758v2.758h2.758v-2.758zm0 5.517h-2.758v2.758h2.758v-2.758zm2.759-49.655h-2.759v2.758h2.759v-2.758zm0 2.758h-2.759v2.759h2.759v-2.759zm0 2.759h-2.759v2.758h2.759v-2.758zm0 2.758h-2.759v2.759h2.759v-2.759zm0 5.517h-2.759v2.76h2.759v-2.76z" fill="#fff"/><path d="M74.483 41.38h-2.759v2.758h2.759v-2.759zm0 8.275h-2.759v2.759h2.759v-2.759zm0 5.517h-2.759v2.759h2.759v-2.759z" fill="#fff"/><path d="M74.483 57.931h-2.759v2.759h2.759v-2.76zm0 5.517h-2.759v2.759h2.759v-2.759z" fill="#fff"/><path d="M74.483 66.207h-2.759v2.759h2.759v-2.76zm0 8.276h-2.759v2.758h2.759v-2.758zm0 2.758h-2.759V80h2.759v-2.759zm2.758-55.172h-2.758v2.759h2.758v-2.759zm0 2.759h-2.758v2.758h2.758v-2.758zm0 2.758h-2.758v2.759h2.758v-2.759zm0 2.759h-2.758v2.758h2.758v-2.758zm0 2.758h-2.758v2.759h2.758v-2.759zm0 5.517h-2.758v2.76h2.758v-2.76zm0 5.518h-2.758v2.759h2.758v-2.76zm0 16.552h-2.758v2.758h2.758V60.69zm0 5.517h-2.758v2.759h2.758v-2.76zm0 2.759h-2.758v2.758h2.758v-2.758zm0 2.758h-2.758v2.759h2.758v-2.759zm0 5.517h-2.758V80h2.758v-2.759zM80 24.828h-2.759v2.758H80v-2.758zm0 2.758h-2.759v2.759H80v-2.759zm0 2.759h-2.759v2.758H80v-2.758zm0 2.758h-2.759v2.759H80v-2.759zm0 2.759h-2.759v2.759H80v-2.759z" fill="#fff"/><path d="M80 38.62h-2.759v2.76H80v-2.76z" fill="#fff"/><path d="M80 41.38h-2.759v2.758H80v-2.759zm0 11.034h-2.759v2.758H80v-2.758z" fill="#fff"/><path d="M80 55.172h-2.759v2.759H80v-2.759zm0 5.518h-2.759v2.758H80V60.69z" fill="#fff"/><path d="M80 63.448h-2.759v2.759H80v-2.759z" fill="#fff"/><path d="M80 66.207h-2.759v2.759H80v-2.76zm0 2.759h-2.759v2.758H80v-2.758z" fill="#fff"/><path fill-rule="evenodd" clip-rule="evenodd" d="M0 0v19.31h19.31V0H0zm2.759 2.759h13.793v13.793H2.759V2.759z" fill="#fff"/><path d="M13.793 5.517H5.517v8.276h8.276V5.517z" fill="#fff"/><path fill-rule="evenodd" clip-rule="evenodd" d="M80 0H60.69v19.31H80V0zm-2.759 2.759v13.793H63.448V2.759h13.793z" fill="#fff"/><path d="M74.483 13.793V5.517h-8.276v8.276h8.276z" fill="#fff"/><path fill-rule="evenodd" clip-rule="evenodd" d="M0 80h19.31V60.69H0V80zm2.759-2.759V63.448h13.793v13.793H2.759z" fill="#fff"/><path d="M5.517 66.207v8.276h8.276v-8.276H5.517z" fill="#fff"/></mask><g mask="url(#a)"><path d="M83.103-3.103H-3.103v86.207h86.206V-3.103z" fill="#044E58"/></g></svg>