<svg width="160" height="99" viewBox="0 0 160 99" fill="none" xmlns="http://www.w3.org/2000/svg">
<path d="M80 7.96206C79.3134 5.31584 79.3134 2.64621 80 0C80.6866 2.64621 80.6866 5.31584 80 7.96206ZM0 79.0585C2.67535 79.7377 5.37437 79.7377 8.04972 79.0585C5.37437 78.3794 2.67535 78.3794 0 79.0585ZM116.579 17.1887C118.497 15.245 119.846 12.9266 120.604 10.2804C118.686 12.2241 117.313 14.5425 116.579 17.1887ZM39.3963 10.2804C40.1539 12.9032 41.5034 15.2216 43.4211 17.1887C42.6872 14.5659 41.314 12.2475 39.3963 10.2804ZM150.482 40.1615C147.831 40.9109 145.487 42.2457 143.498 44.1426C146.15 43.4166 148.494 42.0584 150.482 40.1615ZM9.54128 40.1615C11.53 42.0584 13.8503 43.4166 16.5256 44.1426C14.5605 42.2457 12.2166 40.9109 9.54128 40.1615ZM59.4732 15.8539C59.7573 18.5703 60.6807 21.076 62.2196 23.3476C61.9355 20.6311 61.0121 18.1254 59.4732 15.8539ZM97.8041 23.3476C99.3667 21.0995 100.266 18.5703 100.55 15.8539C98.9879 18.102 98.0645 20.6311 97.8041 23.3476ZM137.887 67.537C140.633 67.7477 143.309 67.2794 145.818 66.1553C143.072 65.9446 140.397 66.4129 137.887 67.537ZM14.2291 66.1553C16.7387 67.2794 19.414 67.7477 22.1604 67.537C19.6508 66.4129 16.9754 65.9446 14.2291 66.1553ZM41.7638 43.3932C45.0074 46.4609 48.2746 49.4818 51.5892 52.4559C54.8565 55.5471 58.2658 58.6148 62.4327 60.4414C57.2714 53.2287 48.7955 48.8027 41.8822 43.2293C41.7875 43.159 41.6691 43.2995 41.7638 43.3932ZM36.6972 39.0609C35.0873 36.8362 33.0038 35.1267 30.5179 33.9324C32.1278 36.1337 34.1876 37.8666 36.6972 39.0609ZM97.5673 60.418C105.641 56.6477 111.536 49.154 118.284 43.3932C118.378 43.2995 118.236 43.1824 118.165 43.2293C114.543 45.8521 110.968 48.5217 107.44 51.2382C103.794 53.8844 100.148 56.6711 97.591 60.418H97.5673ZM129.506 33.9324C127.02 35.1267 124.936 36.8362 123.326 39.0609C125.812 37.8666 127.872 36.1571 129.506 33.9324ZM100.101 79.0117C100.101 78.8009 100.148 78.5902 100.148 78.3794C100.148 78.2858 100.077 78.1921 100.053 78.1218C99.0826 67.4199 90.512 59.0363 80.0237 59.0363C69.5354 59.0363 60.9648 67.4199 59.9941 78.1218C59.9467 78.2155 59.8757 78.2858 59.8994 78.3794C59.8994 78.5902 59.923 78.8009 59.9467 79.0117C59.9467 79.2225 59.8994 79.4332 59.8994 79.644C59.8994 79.7377 59.9704 79.8313 59.9941 79.9016C60.9648 90.6035 69.5354 98.9871 80.0237 98.9871C90.512 98.9871 99.0826 90.6035 100.053 79.9016C100.101 79.8079 100.172 79.7377 100.148 79.644C100.148 79.4332 100.124 79.2225 100.101 79.0117ZM80 158C80.6866 155.354 80.6866 152.684 80 150.038C79.3134 152.684 79.3134 155.354 80 158ZM151.95 79.082C154.626 79.7611 157.325 79.7611 160 79.082C157.325 78.4028 154.626 78.4028 151.95 79.082ZM120.604 147.72C119.846 145.097 118.497 142.778 116.579 140.811C117.313 143.434 118.686 145.752 120.604 147.72ZM43.4211 140.811C41.5034 142.755 40.1539 145.073 39.3963 147.72C41.314 145.776 42.6872 143.458 43.4211 140.811ZM150.459 117.838C148.47 115.942 146.15 114.583 143.474 113.857C145.439 115.754 147.783 117.089 150.459 117.838ZM16.4782 113.857C13.8266 114.583 11.4827 115.942 9.49393 117.838C12.1456 117.089 14.4895 115.754 16.4782 113.857ZM62.1959 134.676C60.6333 136.924 59.7336 139.453 59.4495 142.17C60.9885 139.921 61.9355 137.392 62.1959 134.676ZM100.527 142.17C100.243 139.453 99.3193 136.947 97.7804 134.676C98.0645 137.392 98.9879 139.898 100.527 142.17ZM145.771 91.8915C143.261 90.7674 140.586 90.2991 137.84 90.5099C140.349 91.6339 143.025 92.1023 145.771 91.8915ZM14.1817 91.8915C16.9281 92.1023 19.6034 91.6339 22.1131 90.5099C19.3667 90.2991 16.6913 90.7674 14.1817 91.8915ZM62.3853 97.6054C58.2184 99.432 54.8091 102.523 51.5419 105.591C48.2273 108.565 44.96 111.586 41.7165 114.654C41.6218 114.724 41.7402 114.888 41.8349 114.818C48.7481 109.244 57.224 104.818 62.3853 97.6054ZM30.4706 124.138C32.9565 122.944 35.0399 121.234 36.6499 119.009C34.164 120.204 32.1042 121.913 30.4706 124.138ZM118.212 114.677C111.465 108.916 105.593 101.423 97.4963 97.6523C100.03 101.399 103.699 104.186 107.345 106.832C110.897 109.549 114.472 112.218 118.07 114.841C118.165 114.911 118.284 114.771 118.189 114.677H118.212ZM123.279 119.009C124.889 121.234 126.972 122.944 129.458 124.138C127.848 121.937 125.789 120.204 123.279 119.009ZM102.871 90.6972C115.324 95.2871 126.215 103.788 137.698 110.485C132.157 108.284 125.623 104.209 119.799 101.305C113.88 98.2611 107.89 95.0529 102.823 90.744C100.574 94.8187 97.1648 98.2846 93.1163 100.743C101.569 110.883 106.706 123.599 113.241 135.074C109.547 130.437 105.972 123.669 102.397 118.283C98.8221 112.733 95.2471 106.996 93.0453 100.79C90.9381 102.055 88.6653 103.015 86.2977 103.671C91.2933 110.907 92.6191 120.204 95.5075 128.47C95.5549 128.587 95.3655 128.634 95.3181 128.54C93.5188 124.489 91.7668 120.391 90.0621 116.293C88.2865 112.265 86.5345 108.12 86.203 103.694C84.2143 104.209 82.1308 104.514 80.0473 104.514C82.0361 117.253 80.1657 130.531 80.0473 143.458C79.195 137.603 79.5265 129.969 79.1477 123.552C78.8872 117.23 78.6742 110.766 79.7632 104.537C77.6561 104.584 75.5963 104.303 73.5839 103.788C72.6842 112.452 67.665 120.391 64.5398 128.54C64.4924 128.657 64.3267 128.587 64.3504 128.47C65.6052 124.208 66.9074 119.969 68.2806 115.754C69.5117 111.586 70.8849 107.347 73.4418 103.764C71.0743 103.155 68.8014 102.195 66.718 100.931C62.0539 113.178 53.5306 123.904 46.7831 135.191C49.0086 129.711 53.1281 123.248 56.0639 117.487C59.1181 111.703 62.338 105.825 66.6233 100.861C62.5984 98.4016 59.1891 94.9124 56.9636 90.7909C46.712 99.1276 33.8798 104.233 22.2788 110.696C26.9666 107.043 33.8088 103.507 39.2542 99.9706C44.8653 96.4346 50.6422 92.9219 56.9162 90.744C55.9219 88.9174 55.1879 86.9738 54.6907 84.9598C46.6884 88.4491 37.2891 88.1447 28.6712 89.5263C28.5528 89.5263 28.5292 89.3624 28.6475 89.339C33.0038 88.2852 37.3602 87.2782 41.7402 86.3415C45.9544 85.3345 50.2871 84.3978 54.6434 84.7491C54.3119 83.2972 54.1225 81.7984 54.0752 80.2997C40.9352 80.0889 27.7952 79.6674 14.6552 79.1756C27.7952 78.6839 40.9352 78.1218 54.0752 77.9111C54.1225 76.3889 54.2882 74.9136 54.6434 73.4617C50.2871 73.813 45.9544 72.8762 41.7402 71.8693C37.3602 70.9326 33.0038 69.9256 28.6475 68.8718C28.5292 68.8484 28.5528 68.661 28.6712 68.6844C37.2891 70.0661 46.6884 69.7617 54.6907 73.2509C55.1879 71.237 55.9219 69.2933 56.9162 67.4667C50.6422 65.2889 44.8653 61.7762 39.2542 58.2401C33.8088 54.704 26.9666 51.1679 22.2788 47.5147C33.8562 53.9781 46.712 59.0597 56.9636 67.4199C59.2128 63.2984 62.5984 59.8091 66.6233 57.3502C62.338 52.3857 59.1181 46.5078 56.0639 40.7236C53.1281 34.9628 49.0086 28.5229 46.7831 23.0197C53.5306 34.3071 62.0539 45.0325 66.718 57.28C68.8014 56.0154 71.0743 55.0553 73.4418 54.4464C70.8849 50.8635 69.5117 46.6249 68.2806 42.4565C66.9074 38.2413 65.6052 34.0027 64.3504 29.7406C64.3267 29.6235 64.4924 29.5533 64.5398 29.6704C67.665 37.7964 72.6842 45.7584 73.5839 54.423C75.5726 53.9078 77.6561 53.6268 79.7632 53.6736C78.6742 47.4445 78.8636 40.9812 79.1477 34.6584C79.5265 28.2185 79.195 20.5843 80.0473 14.7532C80.1657 27.6799 82.0598 40.9578 80.0473 53.697C82.1545 53.697 84.2143 54.0015 86.203 54.5167C86.5581 50.0907 88.2865 45.9458 90.0621 41.9179C91.7668 37.8198 93.5188 33.7451 95.3181 29.6704C95.3655 29.5767 95.5549 29.6235 95.5075 29.7406C92.5954 37.9837 91.2933 47.304 86.2977 54.5401C88.6653 55.1724 90.9381 56.1559 93.0453 57.4205C95.2471 51.2148 98.8221 45.5008 102.397 39.9274C105.972 34.5413 109.547 27.7735 113.241 23.1368C106.706 34.6115 101.545 47.3274 93.1163 57.4673C97.1648 59.9028 100.574 63.3686 102.823 67.4667C107.866 63.1578 113.88 59.973 119.799 56.9053C125.623 54.0015 132.134 49.9268 137.698 47.7255C126.215 54.423 115.324 62.9002 102.871 67.5136C103.865 69.3167 104.623 71.2604 105.12 73.2743C109.097 71.4478 113.525 70.8389 117.857 70.3705C122.285 69.7851 126.736 69.2465 131.187 68.7547C131.305 68.7547 131.352 68.9186 131.21 68.942C122.616 70.5579 113.88 74.0237 105.144 73.4617C105.499 74.9604 105.688 76.506 105.735 78.075C117.455 78.3326 133.862 78.7541 145.203 79.2459C133.886 79.7377 117.479 80.0187 105.735 80.2763C105.688 81.8453 105.499 83.3908 105.144 84.8896C113.88 84.3275 122.616 87.77 131.21 89.4092C131.329 89.4326 131.281 89.62 131.187 89.5965C126.736 89.1048 122.285 88.5662 117.857 87.9807C113.525 87.5124 109.097 86.9035 105.12 85.0769C104.623 87.0909 103.865 89.0345 102.871 90.8377V90.6972ZM104.054 79.0351C101.924 48.4515 57.8396 48.2173 55.9219 79.0351C57.8396 109.853 101.924 109.619 104.054 79.0351Z" fill="#FFCC19"/>
</svg>
