<svg 
 xmlns="http://www.w3.org/2000/svg"
 xmlns:xlink="http://www.w3.org/1999/xlink"
 width="32px" height="32px">
<path fill-rule="evenodd"  fill="rgb(196, 192, 185)"
 d="M31.940,17.419 C31.891,17.790 31.861,18.164 31.799,18.532 C31.242,21.833 29.849,24.737 27.471,27.094 C23.073,31.453 17.792,32.970 11.811,31.377 C3.519,29.168 -1.435,20.872 0.387,12.559 C1.808,6.079 7.152,1.111 13.708,0.169 C14.038,0.122 14.381,0.138 14.696,-0.000 C15.529,-0.000 16.362,-0.000 17.195,-0.000 C17.211,0.070 17.268,0.058 17.317,0.061 C18.788,0.168 20.226,0.457 21.589,1.012 C27.341,3.354 30.781,7.576 31.837,13.713 C31.899,14.074 31.879,14.446 32.004,14.797 C32.004,15.609 32.004,16.420 32.004,17.232 C31.906,17.268 31.948,17.354 31.940,17.419 ZM16.025,2.482 C8.585,2.459 2.510,8.518 2.497,15.975 C2.485,23.418 8.550,29.483 16.007,29.485 C23.463,29.486 29.528,23.422 29.519,15.977 C29.510,8.528 23.488,2.506 16.025,2.482 ZM20.206,20.772 C19.423,20.205 18.657,19.616 17.883,19.036 C17.043,18.406 16.206,17.772 15.361,17.149 C14.962,16.854 14.764,16.470 14.764,15.978 C14.764,13.565 14.762,11.151 14.766,8.738 C14.767,8.093 15.102,7.640 15.672,7.471 C16.175,7.323 16.716,7.514 17.019,7.946 C17.201,8.203 17.254,8.494 17.253,8.802 C17.251,9.863 17.252,10.924 17.252,11.985 C17.252,13.067 17.257,14.149 17.248,15.230 C17.247,15.406 17.304,15.510 17.443,15.613 C18.836,16.650 20.222,17.696 21.613,18.734 C22.074,19.078 22.298,19.520 22.162,20.088 C21.952,20.963 20.954,21.313 20.206,20.772 Z"/>
</svg>