<svg 
 xmlns="http://www.w3.org/2000/svg"
 xmlns:xlink="http://www.w3.org/1999/xlink"
 width="32px" height="32px">
<path fill-rule="evenodd"  fill="rgb(196, 192, 185)"
 d="M31.925,28.914 C31.501,30.839 30.061,32.006 28.099,32.006 C20.028,32.007 11.957,32.006 3.885,32.008 C3.561,32.008 3.239,31.988 2.925,31.913 C1.178,31.497 -0.002,30.034 -0.004,28.235 C-0.010,20.914 -0.006,13.592 -0.006,6.271 C-0.006,6.187 -0.003,6.104 0.001,6.021 C0.086,4.447 1.258,3.029 2.786,2.637 C3.525,2.447 4.276,2.529 5.023,2.517 C5.198,2.515 5.249,2.471 5.247,2.293 C5.237,1.533 5.242,0.773 5.242,0.013 C6.076,0.013 6.909,0.013 7.742,0.013 C7.742,0.773 7.748,1.533 7.738,2.293 C7.735,2.470 7.785,2.519 7.961,2.516 C8.617,2.506 9.273,2.512 9.930,2.512 C14.605,2.512 19.281,2.510 23.957,2.518 C24.190,2.519 24.251,2.465 24.245,2.231 C24.228,1.492 24.239,0.752 24.239,0.013 C25.072,0.013 25.905,0.013 26.739,0.013 C26.739,0.772 26.744,1.531 26.735,2.290 C26.733,2.460 26.771,2.522 26.954,2.517 C27.421,2.505 27.889,2.505 28.357,2.517 C29.964,2.561 31.389,3.669 31.839,5.209 C31.893,5.392 31.881,5.593 31.988,5.762 C31.988,13.448 31.988,21.134 31.988,28.820 C31.940,28.834 31.935,28.872 31.925,28.914 ZM29.484,6.267 C29.475,5.552 28.951,5.033 28.237,5.015 C27.811,5.004 27.383,5.021 26.957,5.008 C26.779,5.002 26.732,5.057 26.735,5.232 C26.745,5.919 26.732,6.606 26.743,7.293 C26.746,7.471 26.694,7.518 26.519,7.515 C25.832,7.505 25.144,7.505 24.457,7.515 C24.279,7.518 24.232,7.467 24.235,7.291 C24.245,6.604 24.233,5.917 24.243,5.230 C24.246,5.052 24.194,5.008 24.019,5.008 C18.668,5.013 13.316,5.013 7.965,5.006 C7.751,5.006 7.737,5.088 7.739,5.259 C7.747,5.935 7.736,6.612 7.746,7.289 C7.748,7.460 7.709,7.519 7.526,7.516 C6.839,7.505 6.152,7.501 5.465,7.517 C5.250,7.522 5.237,7.436 5.239,7.265 C5.247,6.588 5.237,5.911 5.246,5.234 C5.249,5.063 5.209,5.001 5.027,5.007 C4.642,5.022 4.256,5.010 3.871,5.012 C3.003,5.017 2.496,5.522 2.493,6.390 C2.491,7.243 2.505,8.097 2.485,8.951 C2.479,9.216 2.553,9.268 2.808,9.267 C7.202,9.259 11.596,9.261 15.989,9.261 C20.393,9.261 24.797,9.259 29.201,9.266 C29.424,9.266 29.500,9.229 29.495,8.985 C29.477,8.079 29.497,7.173 29.484,6.267 ZM29.171,11.755 C24.787,11.763 20.403,11.761 16.019,11.761 C11.614,11.761 7.210,11.763 2.805,11.754 C2.545,11.753 2.486,11.815 2.486,12.074 C2.495,17.405 2.493,22.737 2.493,28.068 C2.493,29.019 2.982,29.507 3.935,29.507 C11.974,29.507 20.012,29.507 28.051,29.507 C28.1000,29.507 29.488,29.016 29.488,28.063 C29.488,22.731 29.486,17.400 29.495,12.069 C29.496,11.801 29.422,11.754 29.171,11.755 ZM27.030,21.887 C26.333,21.880 25.635,21.877 24.938,21.888 C24.765,21.891 24.731,21.831 24.736,21.675 C24.746,21.322 24.739,20.968 24.739,20.614 C24.739,20.280 24.746,19.947 24.736,19.614 C24.731,19.453 24.753,19.376 24.947,19.379 C25.644,19.392 26.342,19.390 27.040,19.380 C27.212,19.377 27.243,19.437 27.242,19.592 C27.235,20.290 27.232,20.987 27.243,21.685 C27.246,21.857 27.185,21.888 27.030,21.887 ZM27.050,16.888 C26.342,16.880 25.634,16.880 24.926,16.888 C24.774,16.890 24.734,16.845 24.736,16.696 C24.743,15.988 24.743,15.280 24.736,14.572 C24.734,14.420 24.779,14.380 24.928,14.382 C25.636,14.389 26.344,14.389 27.052,14.382 C27.203,14.380 27.246,14.425 27.242,14.574 C27.232,14.928 27.239,15.282 27.239,15.636 C27.239,15.990 27.231,16.344 27.242,16.698 C27.247,16.849 27.199,16.889 27.050,16.888 ZM22.009,16.888 C21.676,16.877 21.343,16.885 21.010,16.885 C20.656,16.885 20.302,16.878 19.948,16.888 C19.793,16.892 19.733,16.858 19.735,16.686 C19.746,15.988 19.744,15.291 19.737,14.593 C19.735,14.438 19.766,14.378 19.939,14.381 C20.636,14.391 21.334,14.389 22.031,14.382 C22.186,14.380 22.246,14.411 22.244,14.584 C22.233,15.281 22.232,15.979 22.244,16.676 C22.248,16.871 22.171,16.893 22.009,16.888 ZM17.052,26.886 C16.344,26.879 15.636,26.878 14.928,26.886 C14.777,26.888 14.736,26.844 14.737,26.694 C14.745,25.986 14.745,25.278 14.737,24.570 C14.736,24.420 14.780,24.378 14.929,24.380 C15.637,24.387 16.345,24.387 17.053,24.380 C17.204,24.378 17.248,24.422 17.244,24.572 C17.233,24.925 17.240,25.279 17.240,25.634 C17.240,25.987 17.233,26.342 17.244,26.695 C17.248,26.847 17.201,26.888 17.052,26.886 ZM17.053,21.887 C16.689,21.877 16.324,21.884 15.960,21.884 C15.616,21.884 15.272,21.876 14.929,21.887 C14.779,21.891 14.736,21.847 14.737,21.696 C14.745,20.988 14.745,20.280 14.737,19.572 C14.736,19.423 14.777,19.379 14.928,19.381 C15.636,19.388 16.344,19.388 17.052,19.381 C17.201,19.379 17.245,19.420 17.244,19.571 C17.236,20.279 17.236,20.987 17.244,21.695 C17.245,21.845 17.204,21.891 17.053,21.887 ZM17.052,16.888 C16.688,16.877 16.324,16.885 15.959,16.885 C15.616,16.885 15.272,16.877 14.929,16.888 C14.778,16.893 14.736,16.847 14.737,16.697 C14.745,15.989 14.745,15.281 14.737,14.573 C14.736,14.423 14.778,14.380 14.929,14.382 C15.636,14.389 16.345,14.389 17.052,14.382 C17.203,14.380 17.245,14.423 17.244,14.573 C17.236,15.281 17.236,15.989 17.244,16.697 C17.245,16.847 17.203,16.892 17.052,16.888 ZM12.053,26.886 C11.345,26.879 10.637,26.879 9.929,26.886 C9.779,26.888 9.737,26.845 9.738,26.695 C9.746,25.987 9.746,25.279 9.738,24.571 C9.737,24.421 9.779,24.378 9.929,24.380 C10.637,24.387 11.345,24.387 12.053,24.380 C12.203,24.378 12.249,24.421 12.245,24.571 C12.234,24.935 12.241,25.300 12.241,25.664 C12.241,26.008 12.234,26.351 12.245,26.695 C12.249,26.845 12.203,26.888 12.053,26.886 ZM12.053,21.887 C11.345,21.880 10.637,21.880 9.929,21.887 C9.779,21.888 9.737,21.846 9.738,21.696 C9.746,20.988 9.746,20.280 9.738,19.572 C9.737,19.422 9.779,19.379 9.929,19.381 C10.637,19.388 11.345,19.388 12.053,19.381 C12.203,19.379 12.249,19.422 12.245,19.572 C12.234,19.926 12.241,20.280 12.241,20.634 C12.241,20.988 12.234,21.342 12.245,21.696 C12.249,21.846 12.203,21.888 12.053,21.887 ZM12.053,16.888 C11.345,16.880 10.637,16.880 9.929,16.888 C9.779,16.890 9.737,16.847 9.738,16.697 C9.746,15.989 9.746,15.281 9.738,14.573 C9.737,14.423 9.779,14.377 9.929,14.382 C10.294,14.392 10.658,14.385 11.023,14.385 C11.366,14.385 11.710,14.392 12.053,14.382 C12.204,14.377 12.246,14.423 12.245,14.573 C12.237,15.281 12.237,15.989 12.245,16.697 C12.246,16.847 12.204,16.890 12.053,16.888 ZM7.052,21.887 C6.344,21.880 5.636,21.879 4.928,21.887 C4.775,21.889 4.738,21.841 4.739,21.694 C4.746,20.986 4.747,20.278 4.739,19.570 C4.737,19.417 4.785,19.376 4.932,19.381 C5.275,19.391 5.619,19.384 5.963,19.384 C6.327,19.384 6.692,19.392 7.056,19.381 C7.209,19.376 7.247,19.427 7.245,19.574 C7.238,20.282 7.238,20.990 7.245,21.698 C7.247,21.851 7.200,21.888 7.052,21.887 ZM7.245,16.675 C7.249,16.826 7.221,16.892 7.045,16.889 C6.348,16.878 5.650,16.881 4.952,16.887 C4.801,16.889 4.735,16.864 4.738,16.687 C4.749,15.990 4.746,15.293 4.740,14.595 C4.738,14.443 4.763,14.378 4.939,14.380 C5.637,14.392 6.335,14.392 7.032,14.380 C7.223,14.377 7.251,14.450 7.245,14.613 C7.234,14.957 7.242,15.300 7.242,15.644 C7.242,15.988 7.236,16.331 7.245,16.675 ZM4.931,24.380 C5.285,24.390 5.639,24.383 5.993,24.383 C6.347,24.383 6.701,24.390 7.055,24.380 C7.207,24.375 7.247,24.423 7.245,24.572 C7.238,25.280 7.238,25.988 7.245,26.696 C7.247,26.847 7.202,26.888 7.053,26.886 C6.345,26.879 5.637,26.878 4.929,26.886 C4.778,26.888 4.738,26.843 4.739,26.694 C4.746,25.986 4.747,25.278 4.739,24.570 C4.737,24.419 4.782,24.376 4.931,24.380 ZM19.931,24.380 C20.639,24.387 21.347,24.388 22.055,24.380 C22.211,24.378 22.246,24.429 22.243,24.575 C22.233,24.928 22.239,25.283 22.239,25.636 C22.239,25.980 22.235,26.324 22.241,26.667 C22.244,26.809 22.235,26.891 22.048,26.888 C21.340,26.875 20.632,26.878 19.924,26.886 C19.769,26.888 19.735,26.836 19.737,26.691 C19.744,25.983 19.744,25.276 19.736,24.568 C19.734,24.412 19.786,24.379 19.931,24.380 ZM19.930,19.381 C20.638,19.388 21.346,19.389 22.054,19.381 C22.208,19.379 22.244,19.428 22.243,19.574 C22.236,20.282 22.235,20.990 22.243,21.698 C22.245,21.852 22.195,21.888 22.049,21.887 C21.341,21.880 20.633,21.879 19.925,21.887 C19.771,21.889 19.732,21.840 19.737,21.693 C19.747,21.350 19.740,21.006 19.740,20.663 C19.740,20.298 19.747,19.933 19.736,19.569 C19.732,19.415 19.784,19.379 19.930,19.381 Z"/>
</svg>