<svg width="40" height="40" viewBox="0 0 40 40" fill="none" xmlns="http://www.w3.org/2000/svg">
<path d="M9.34766 25.3023C9.47763 24.3423 9.47763 19.9723 9.34766 12.3223C9.34766 11.8423 9.33767 11.5323 9.33767 11.4623C9.33767 11.3323 9.24769 10.9023 9.14771 10.3823C7.22819 10.5523 2.92927 11.2523 1.9995 11.6523C1.01975 12.0723 0.3999 12.2423 0.19995 12.6923C0 13.1423 0 21.2323 0 21.7023C0 22.1723 0.059985 22.6023 0.899775 23.9223C1.73957 25.2423 3.84904 26.7823 5.52862 27.3223C6.26843 27.5523 7.37816 27.7623 8.4079 27.9223C8.7978 27.1223 9.22769 26.1123 9.33767 25.3023H9.34766ZM2.77931 21.2523C2.77931 21.6623 2.43939 22.0023 2.02949 22.0023C1.6196 22.0023 1.27968 21.6623 1.27968 21.2523V14.4923C1.27968 14.0823 1.6196 13.7423 2.02949 13.7423C2.43939 13.7423 2.77931 14.0823 2.77931 14.4923V21.2523ZM5.36866 23.7323C5.24869 24.0223 4.96876 24.2023 4.66883 24.2023C4.57886 24.2023 4.48888 24.1823 4.3889 24.1523C4.009 24.0023 3.81905 23.5623 3.96901 23.1823L4.18895 22.6123C4.28893 22.1623 4.35891 18.3323 4.35891 14.9223C4.35891 13.7023 4.19895 13.2623 4.15896 13.1723C3.93902 12.9023 3.92902 12.4923 4.15896 12.2123C4.42889 11.8923 4.89878 11.8523 5.2187 12.1223C5.63859 12.4723 5.84854 13.4123 5.84854 14.9123C5.84854 18.3523 5.79855 22.5723 5.56861 23.1523L5.33867 23.7223L5.36866 23.7323ZM23.6841 26.9023C23.864 26.8223 24.034 26.7423 24.204 26.6723C22.3744 24.5123 20.5349 22.3423 20.4149 22.2023C19.865 21.5223 19.5451 20.8423 19.5451 19.3723V10.5723C18.5254 10.3823 17.5656 10.2523 16.7558 10.2123C13.8065 10.0823 12.107 10.1723 10.6773 10.2723C10.7873 10.9423 10.8573 11.4423 10.8573 11.4623C10.8573 11.5323 10.8573 11.8323 10.8673 12.3023C10.9473 17.3023 11.0372 24.1123 10.8473 25.5023C10.7373 26.3423 10.3674 27.3023 9.9875 28.1323C10.5474 28.2023 10.9373 28.2423 10.9973 28.2423L10.9373 29.7923C10.6773 30.0923 10.5074 30.6323 10.5074 31.2423C10.5074 32.1923 10.9373 32.8223 11.2672 32.9623V32.9923C11.2672 32.9923 11.4171 33.6623 12.027 34.1223C12.027 34.1223 12.007 34.2523 12.027 34.7023C12.047 35.1523 12.7268 35.8823 13.0967 36.4723C13.4566 37.0623 13.3767 38.0423 13.3167 39.0023C13.2567 39.9523 13.6766 40.0023 13.6766 40.0023H23.1042C23.1042 40.0023 22.8843 38.4923 22.5744 37.6823C22.2644 36.8723 21.5946 34.2823 21.7346 31.4823C21.8745 28.6723 23.6841 26.9223 23.6841 26.9223V26.9023ZM20.8648 28.6023C19.6751 28.9923 16.8958 29.3923 15.4561 29.3923C15.4261 29.3923 15.3962 29.3923 15.3562 29.3923C13.9765 29.3723 13.4766 29.3023 13.4266 29.2923C13.0167 29.2223 12.7368 28.8423 12.8068 28.4323C12.8768 28.0223 13.2567 27.7423 13.6666 27.8123C13.6666 27.8123 14.1165 27.8723 15.3762 27.8923C16.7158 27.9123 19.4251 27.4923 20.3949 27.1723C20.7948 27.0423 21.2147 27.2623 21.3447 27.6523C21.4746 28.0423 21.2547 28.4723 20.8648 28.6023ZM30.0225 30.2623C29.8325 30.1223 29.6126 29.9223 29.3627 29.6323C28.4529 28.6023 22.2044 21.2423 21.9645 20.9423C21.7246 20.6423 21.5346 20.4023 21.5346 19.3723V1.03232C21.5346 0.552319 21.5846 -0.697681 22.7243 0.512319C23.5841 1.43232 27.7231 5.29232 29.7026 7.13232C29.9025 7.32232 30.0225 7.58232 30.0225 7.86232V30.2523V30.2623ZM40 1.03232V19.3723C40 20.4023 39.82 20.6423 39.5701 20.9423C39.3302 21.2423 33.0817 28.6023 32.172 29.6323C31.922 29.9223 31.7021 30.1123 31.5121 30.2623V7.87232C31.5121 7.59232 31.6321 7.33232 31.832 7.14232C33.8115 5.30232 37.9505 1.44232 38.8103 0.522319C39.95 -0.697681 40 0.552319 40 1.04232V1.03232Z" fill="white"/>
</svg>
