<svg width="40" height="40" viewBox="0 0 40 40" fill="none" xmlns="http://www.w3.org/2000/svg">
<path d="M15.1147 22.1086V24.8905C15.1147 25.0598 14.9763 25.1996 14.8088 25.1996C14.6412 25.1996 14.5029 25.0598 14.5029 24.8905V22.1086C14.5029 21.9393 14.6412 21.7994 14.8088 21.7994C14.9763 21.7994 15.1147 21.9393 15.1147 22.1086ZM33.5198 20.1067C31.7572 15.2125 29.9218 10.2374 31.8301 5.49034H29.849C28.0136 9.94296 29.9946 14.5428 31.7572 18.7746C34.0296 24.3385 36.3093 29.9025 31.8301 35.5474C31.2401 36.2171 30.5846 36.9604 29.849 37.6228L29.7761 37.6964C29.5576 37.9172 29.3391 38.0644 29.0405 38.2925C28.9677 38.3661 28.8948 38.3661 28.822 38.3661H8.26098C7.96964 38.7341 7.59819 39.0359 7.30686 39.4039C7.08835 39.6247 6.94269 39.7718 6.7169 40H30.8759C38.5162 33.7663 36.018 26.9365 33.5198 20.1141V20.1067ZM20.2495 27.621C19.7323 27.621 19.5502 27.5842 19.5502 27.5842C19.3827 27.5621 19.2298 27.6725 19.2006 27.8418C19.1715 28.011 19.288 28.1656 19.4556 28.195C19.4774 28.195 19.6741 28.2245 20.2422 28.2392C20.2567 28.2392 20.264 28.2392 20.2786 28.2392C20.8685 28.2392 21.9975 28.0699 22.4782 27.9154C22.6384 27.8638 22.7258 27.6872 22.6748 27.5253C22.6238 27.3634 22.449 27.2751 22.2888 27.3266C21.8664 27.4664 20.7957 27.621 20.2786 27.621C20.2713 27.621 20.2567 27.621 20.2495 27.621ZM7.30686 14.8445H9.21511V12.9163H7.30686V14.8445ZM9.21511 4.90156H7.30686V6.82981H9.21511V4.90156ZM9.21511 8.9126H7.30686V10.8408H9.21511V8.9126ZM15.69 21.1812C15.5954 21.299 15.5954 21.4609 15.69 21.5713C15.7046 21.6081 15.7702 21.7847 15.7702 22.2925C15.7702 23.6983 15.741 25.2659 15.6973 25.4572L15.6026 25.6927C15.5444 25.8546 15.6172 26.0313 15.7774 26.0902C15.8139 26.1049 15.8503 26.1122 15.8867 26.1122C16.0105 26.1122 16.1271 26.0386 16.1708 25.9135L16.2582 25.678C16.3528 25.4351 16.3747 23.7056 16.3747 22.2852C16.3747 21.667 16.2873 21.2843 16.1198 21.1371C15.9887 21.0267 15.7993 21.0414 15.69 21.1739V21.1812ZM6.64407 18.782C4.00019 12.5409 1.42915 6.23367 9.06944 0H33.2285C25.9596 6.30727 28.6035 12.6881 31.2474 18.9954C31.7645 20.2539 32.2743 21.5198 32.7186 22.7783C33.9641 26.3404 34.4812 29.8289 32.573 33.3174C32.573 33.391 32.5001 33.5382 32.4273 33.6118C32.4273 33.6854 32.3545 33.8326 32.2816 33.9062C32.2088 33.9798 32.136 34.127 32.0631 34.2006C31.9903 34.2742 31.9175 34.4213 31.8446 34.4949C31.7718 34.5685 31.699 34.7157 31.6261 34.7893C31.5533 34.8629 31.4805 35.0101 31.4076 35.0837C31.3348 35.1573 31.262 35.3045 31.1891 35.3781C31.1163 35.4517 31.0434 35.5989 30.9706 35.6725C30.8249 35.7461 30.7521 35.8933 30.6793 35.9669C30.6064 36.0405 30.4608 36.1877 30.3879 36.2613C30.3151 36.3349 30.1694 36.4821 30.0966 36.5557C30.0238 36.6293 29.8781 36.7764 29.8053 36.85C29.7324 36.9236 29.5868 37.0708 29.5139 37.1444C29.3683 37.218 29.2954 37.3652 29.1498 37.4388C29.0041 37.5124 28.9313 37.6596 28.7856 37.7332H4.59015C11.859 31.4259 9.21511 25.0451 6.64407 18.7378V18.782ZM17.7949 21.2254C17.7949 21.0267 17.7949 20.9016 17.7949 20.8721C17.7949 20.8206 17.7585 20.644 17.7148 20.4305C16.9355 20.4968 15.1802 20.7912 14.8015 20.9531C14.4009 21.1297 14.1532 21.196 14.0731 21.3799C13.993 21.5639 13.993 24.8905 13.993 25.0892C13.993 25.2879 14.0149 25.4572 14.3572 26.0018C14.6995 26.5465 15.5589 27.1794 16.2436 27.4002C16.5495 27.4959 17.0011 27.5842 17.4162 27.6504C17.5764 27.3192 17.7512 26.9071 17.7949 26.5759C17.8459 26.1785 17.8459 24.3827 17.7949 21.2327V21.2254ZM25.6683 21.5419C25.2459 21.3579 22.3544 20.4305 20.7957 20.3643C19.5939 20.3128 18.902 20.3496 18.3194 20.3864C18.3631 20.6587 18.3922 20.8721 18.3922 20.8721C18.3922 20.9016 18.3922 21.0267 18.3922 21.218C18.4213 23.2787 18.4577 26.0754 18.3849 26.6495C18.3412 26.9954 18.1883 27.3928 18.0353 27.7314C18.2611 27.7608 18.4213 27.7755 18.4432 27.7755L18.4213 28.4158C18.3121 28.5409 18.2465 28.7617 18.2465 29.012C18.2465 29.402 18.4213 29.6596 18.5597 29.7185V29.7332C18.5597 29.7332 18.618 30.0129 18.8656 30.1969C18.8656 30.1969 18.8583 30.2484 18.8656 30.4397C18.8802 30.6237 19.1497 30.9255 19.3026 31.1684C19.4483 31.4112 19.4191 31.816 19.3973 32.2061C19.3754 32.5961 19.543 32.6182 19.543 32.6182H23.3813C23.3813 32.6182 23.2866 32 23.1628 31.6615C23.039 31.3229 22.7622 30.2631 22.8205 29.1076C22.8788 27.9522 23.6144 27.2309 23.6144 27.2309C24.3427 26.9071 24.6486 26.7157 25.2896 26.2521C25.9305 25.781 25.8941 25.5308 25.9888 25.1849C25.9961 25.1481 25.9888 22.8887 25.9888 22.4471C25.9888 22.0055 26.0835 21.7332 25.6537 21.5492L25.6683 21.5419ZM10.0964 5.26955C10.0964 5.41674 10.2421 5.56394 10.3877 5.56394H15.0855C15.2312 5.56394 15.3769 5.41674 15.3769 5.26955C15.3769 5.12235 15.2312 4.97516 15.0855 4.97516H10.3877C10.2421 4.97516 10.0964 5.12235 10.0964 5.26955ZM10.0964 6.38086C10.0964 6.52806 10.2421 6.67525 10.3877 6.67525H21.4002C21.5459 6.67525 21.6916 6.52806 21.6916 6.38086C21.6916 6.23367 21.5459 6.08648 21.4002 6.08648H10.3877C10.2421 6.08648 10.0964 6.23367 10.0964 6.38086ZM10.0964 9.27323C10.0964 9.42042 10.2421 9.56762 10.3877 9.56762H15.0855C15.2312 9.56762 15.3769 9.42042 15.3769 9.27323C15.3769 9.12603 15.2312 8.97884 15.0855 8.97884H10.3877C10.2421 8.97884 10.0964 9.12603 10.0964 9.27323ZM10.0964 10.3845C10.0964 10.5317 10.2421 10.6789 10.3877 10.6789H21.4002C21.5459 10.6789 21.6916 10.5317 21.6916 10.3845C21.6916 10.2374 21.5459 10.0902 21.4002 10.0902H10.3877C10.2421 10.0902 10.0964 10.2374 10.0964 10.3845ZM10.0964 13.2033C10.0964 13.3505 10.2421 13.4977 10.3877 13.4977H15.0855C15.2312 13.4977 15.3769 13.3505 15.3769 13.2033C15.3769 13.0561 15.2312 12.9089 15.0855 12.9089H10.3877C10.2421 12.9089 10.0964 13.0561 10.0964 13.2033ZM10.0964 14.3882C10.0964 14.5354 10.2421 14.6826 10.3877 14.6826H21.4002C21.5459 14.6826 21.6916 14.5354 21.6916 14.3882C21.6916 14.241 21.5459 14.0938 21.4002 14.0938H10.3877C10.2421 14.0938 10.0964 14.241 10.0964 14.3882ZM6.7169 4.59982V7.1242C6.7169 7.27139 6.86257 7.41858 7.00824 7.41858H9.50644C9.65211 7.41858 9.79778 7.27139 9.79778 7.1242V4.59982C9.79778 4.45262 9.65211 4.30543 9.50644 4.30543H7.00824C6.78973 4.30543 6.64407 4.45262 6.7169 4.59982ZM6.7169 8.6035V11.1279C6.7169 11.2751 6.86257 11.4223 7.00824 11.4223H9.50644C9.65211 11.4223 9.79778 11.2751 9.79778 11.1279V8.6035C9.79778 8.4563 9.65211 8.30911 9.50644 8.30911H7.00824C6.78973 8.30911 6.64407 8.4563 6.7169 8.6035ZM9.50644 15.4333C9.65211 15.4333 9.79778 15.2861 9.79778 15.1389V12.6145C9.79778 12.4673 9.65211 12.3201 9.50644 12.3201H7.00824C6.78973 12.3201 6.64407 12.4673 6.7169 12.6145V15.1389C6.7169 15.2861 6.86257 15.4333 7.00824 15.4333H9.50644Z" fill="white"/>
</svg>
