<svg width="22" height="22" viewBox="0 0 22 22" fill="none" xmlns="http://www.w3.org/2000/svg">
<path d="M8.14282 3.57129H14.4285" stroke="white" stroke-linecap="round" stroke-linejoin="round"/>
<path d="M19.5714 3.57129H20.7143V20.7141H1.28571V3.57129H2.42856" stroke="white" stroke-linecap="round" stroke-linejoin="round"/>
<path d="M5.85711 1.28613H4.14282V5.28613H5.85711V1.28613Z" stroke="white" stroke-linecap="round" stroke-linejoin="round"/>
<path d="M17.8571 1.28613H16.1428V5.28613H17.8571V1.28613Z" stroke="white" stroke-linecap="round" stroke-linejoin="round"/>
<path d="M20.7143 8.14258H1.28571" stroke="white" stroke-linecap="round" stroke-linejoin="round"/>
<path d="M6.99996 11H4.14282V13.2857H6.99996V11Z" stroke="white" stroke-linecap="round" stroke-linejoin="round"/>
<path d="M12.7143 11H9.85718V13.2857H12.7143V11Z" stroke="white" stroke-linecap="round" stroke-linejoin="round"/>
<path d="M17.8571 11H15V13.2857H17.8571V11Z" stroke="white" stroke-linecap="round" stroke-linejoin="round"/>
<path d="M6.99996 15.5713H4.14282V17.857H6.99996V15.5713Z" stroke="white" stroke-linecap="round" stroke-linejoin="round"/>
<path d="M12.7143 15.5713H9.85718V17.857H12.7143V15.5713Z" stroke="white" stroke-linecap="round" stroke-linejoin="round"/>
<path d="M17.8571 15.5713H15V17.857H17.8571V15.5713Z" stroke="white" stroke-linecap="round" stroke-linejoin="round"/>
</svg>
