<svg width="24" height="24" viewBox="0 0 24 24" fill="none" xmlns="http://www.w3.org/2000/svg">
<path d="M0.998058 6.19772C1.24747 9.6583 2.97867 13.8081 6.58779 17.4153C10.1969 21.0225 14.3562 22.7528 17.8186 22.9947C19.007 23.0827 22.198 20.6852 22.7775 18.9549C23.2029 17.7012 23.0709 16.8581 21.9192 16.2569L19.205 14.7978C18.5448 14.4386 18.0313 14.7025 17.4592 15.4797C16.2121 17.1953 15.6033 17.5326 14.0701 16.6821C12.6397 15.8829 11.6127 14.9371 10.329 13.6541C9.04522 12.371 8.09159 11.3446 7.29935 9.92224C6.44108 8.38991 6.78585 7.7887 8.50239 6.53498C9.2873 5.9631 9.54404 5.44988 9.1846 4.79003L7.72481 2.07729C7.13063 0.926203 6.2797 0.794232 5.02531 1.21947C3.30144 1.81334 0.917367 5.01731 0.998058 6.19772Z" stroke="white" stroke-linecap="round" stroke-linejoin="round"/>
<path d="M4.66583 1.74023L7.60008 6.87245" stroke="white" stroke-linecap="round" stroke-linejoin="round"/>
<path d="M17.1364 16.4041L22.2713 19.3367" stroke="white" stroke-linecap="round" stroke-linejoin="round"/>
</svg>
