<svg width="10" height="42" viewBox="0 0 10 42" fill="none" xmlns="http://www.w3.org/2000/svg" preserveAspectRatio="none">
<path opacity="0.3" d="M5.66318 9.62882L9.94366 0.816588C10.2101 0.282513 9.4773 -0.218182 8.8777 0.0989245L5.38004 1.9515C5.13021 2.08502 4.84706 2.08502 4.59723 1.9515L1.11622 0.0989245C0.533276 -0.218182 -0.199568 0.282513 0.0502651 0.816588L4.33074 9.62882C4.56392 9.996 5.04693 10.1128 5.41335 9.87917C5.51328 9.81241 5.59656 9.72896 5.66318 9.62882Z" fill="#F3597B"/>
<path opacity="0.6" d="M5.66318 25.6288L9.94366 16.8166C10.2101 16.2825 9.4773 15.7818 8.8777 16.0989L5.38004 17.9515C5.13021 18.085 4.84706 18.085 4.59723 17.9515L1.11622 16.0989C0.533276 15.7818 -0.199568 16.2825 0.0502651 16.8166L4.33074 25.6288C4.56392 25.996 5.04693 26.1128 5.41335 25.8792C5.51328 25.8124 5.59656 25.729 5.66318 25.6288Z" fill="#F3597B"/>
<path d="M5.66318 41.6288L9.94366 32.8166C10.2101 32.2825 9.4773 31.7818 8.8777 32.0989L5.38004 33.9515C5.13021 34.085 4.84706 34.085 4.59723 33.9515L1.11622 32.0989C0.533276 31.7818 -0.199568 32.2825 0.0502651 32.8166L4.33074 41.6288C4.56392 41.996 5.04693 42.1128 5.41335 41.8792C5.51328 41.8124 5.59656 41.729 5.66318 41.6288Z" fill="#F3597B"/>
</svg>
