<svg width="40" height="40" viewBox="0 0 40 40" fill="none" xmlns="http://www.w3.org/2000/svg">
<path d="M29.3396 29.3396L25.2358 24.6698C24.7641 24.1038 24.717 23.3491 25.0472 22.7358C25.1887 22.5 25.283 22.2641 25.3774 22.0283C25.6132 21.3679 26.1792 20.9434 26.8868 20.8962L40 20L26.8868 19.1038C26.2264 19.1038 25.6132 18.6321 25.4245 18.0189C25.3302 17.7358 25.2358 17.5 25.0943 17.2642C24.7641 16.6509 24.8585 15.8491 25.3302 15.3302L29.434 10.6132L24.6226 14.8113C24.1038 15.283 23.3491 15.3774 22.7358 15.0472C22.5 14.9528 22.2641 14.8585 22.0283 14.7642C21.3679 14.5283 20.9434 13.9623 20.8962 13.2547L20 0L19.1038 13.2547C19.1038 13.9151 18.6321 14.5283 17.9717 14.7642C17.7358 14.8585 17.5 14.9528 17.2642 15.0472C16.6509 15.3774 15.8962 15.2358 15.3774 14.8113L10.566 10.6132L14.6698 15.3302C15.1415 15.8491 15.2358 16.6509 14.9057 17.2642C14.7642 17.5 14.6698 17.783 14.5755 18.0189C14.3396 18.6321 13.7736 19.0566 13.1132 19.1038L0 20L13.1132 20.8962C13.8208 20.9434 14.3868 21.4151 14.6226 22.0283C14.717 22.2641 14.8113 22.5 14.9528 22.7358C15.283 23.3962 15.2358 24.1509 14.7642 24.6698L10.6604 29.3396L15.4245 25.1887C15.9434 24.717 16.6981 24.6226 17.3113 24.9528C17.5472 25.0472 17.783 25.1415 18.0189 25.2358C18.6792 25.4717 19.1038 26.0377 19.1509 26.7453L20.0472 40L20.9434 26.7453C20.9906 26.0377 21.4623 25.4717 22.0755 25.2358C22.3113 25.1415 22.5472 25.0472 22.783 24.9528C23.3962 24.6698 24.1509 24.7641 24.6698 25.1887L29.434 29.3396H29.3396Z" fill="white"/>
</svg>
